<svg width="52" height="50" viewBox="0 0 52 50" fill="none" xmlns="http://www.w3.org/2000/svg">
<rect width="51.2649" height="49.5217" rx="24.7609" fill="#E6F3ED"/>
<path d="M34.8149 21.8232H34.0862V21.1982C34.0862 20.5079 33.5271 19.9482 32.8362 19.9482C32.1453 19.9482 31.5862 20.5079 31.5862 21.1982V21.8232H30.9355C30.2446 21.8232 29.6855 22.3829 29.6855 23.0732C29.6855 23.7635 30.2446 24.3232 30.9355 24.3232H31.5862V25.052C31.5862 25.7423 32.1453 26.302 32.8362 26.302C33.5271 26.302 34.0862 25.7423 34.0862 25.052V24.3232H34.8149C35.5059 24.3232 36.0649 23.7635 36.0649 23.0732C36.0649 22.3829 35.5059 21.8232 34.8149 21.8232Z" fill="#34A853"/>
<path d="M37.4729 17.5714C37.3997 17.4744 37.3118 17.3761 37.2227 17.2791L37.1311 17.1783C36.7527 16.767 36.3169 16.3995 35.8689 16.1145C35.8628 16.1096 35.8555 16.1053 35.8494 16.1011C35.8433 16.0974 35.8384 16.0944 35.8335 16.0907C34.741 15.3772 33.458 15 32.125 15C30.1169 15 28.2212 15.8704 26.9431 17.3669C26.1358 18.2693 25.5985 19.3898 25.3724 20.6472C24.384 20.7502 23.3726 20.8964 22.3325 21.1285L21.6453 21.2787C20.9714 21.4264 20.5442 22.0923 20.6919 22.7667C20.8188 23.3514 21.3364 23.75 21.9114 23.75C21.9993 23.75 22.0896 23.7408 22.1799 23.7213L22.8721 23.5699C23.7327 23.3778 24.5643 23.2523 25.3783 23.1579C25.4401 23.4819 25.5163 23.7978 25.6235 24.0863C25.7932 24.6094 26.041 25.1166 26.334 25.5536C26.6501 26.0687 27.0566 26.5472 27.5217 26.9641C27.5693 27.0123 27.6621 27.1069 27.7988 27.2003C29.0024 28.2007 30.5356 28.75 32.125 28.75C32.5521 28.75 32.969 28.6983 33.3787 28.6233L32.6438 30.2826C32.3386 30.9735 31.7673 31.4606 31.0886 31.59L30.9446 31.6211C27.9099 32.1912 24.8191 32.1918 21.7771 31.6205C21.0667 31.4893 20.4551 30.9174 20.1768 30.116C19.2136 27.4274 18.7253 24.5703 18.7253 21.6248V20.0751C18.7253 18.6554 17.6316 17.5 16.2876 17.5H15.25C14.5591 17.5 14 18.0597 14 18.75C14 19.4403 14.5591 20 15.25 20L16.2253 20.0751V21.6248C16.2253 24.8584 16.7625 27.9993 17.8196 30.9473C18.3872 32.5848 19.73 33.7848 21.3193 34.0784C22.988 34.3915 24.6848 34.5502 26.3621 34.5502C28.0405 34.5502 29.7373 34.3915 31.4365 34.0723L31.5842 34.0405C33.043 33.7622 34.2942 32.735 34.9302 31.2927L35.6907 29.5758C36.0141 28.8576 36.2141 28.0799 36.3382 27.2996C36.4348 27.2231 36.5307 27.1459 36.6123 27.0752C38.1296 25.7794 39 23.8843 39 21.875C39 20.7983 38.7449 19.729 38.2603 18.7775C38.021 18.313 37.7427 17.8906 37.4729 17.5714ZM34.9839 25.1788C34.8521 25.2917 34.7153 25.4095 34.5029 25.5371C32.9905 26.5533 30.7419 26.4301 29.3503 25.238C29.3198 25.2124 29.2881 25.1874 29.2551 25.1648C29.2539 25.163 29.2527 25.1617 29.2502 25.1599C28.9109 24.8535 28.6545 24.5551 28.4397 24.2059C28.248 23.9191 28.1003 23.6188 27.9856 23.2666C27.8293 22.8448 27.75 22.3761 27.75 21.8103C27.7683 20.7599 28.1443 19.7742 28.8242 19.0118C29.6458 18.0511 30.8494 17.5 32.125 17.5C32.9709 17.5 33.7815 17.7368 34.4663 18.1842C34.4712 18.1873 34.4761 18.1903 34.481 18.194C34.4932 18.2019 34.5066 18.2104 34.5188 18.2184C34.7886 18.3893 35.0559 18.6157 35.2732 18.8495L35.3818 18.9709C35.416 19.007 35.4502 19.0424 35.5186 19.129C35.709 19.3561 35.8835 19.6234 36.0349 19.917C36.3389 20.5139 36.5 21.1908 36.5 21.875C36.5 23.1519 35.9495 24.3542 34.9839 25.1788Z" fill="#34A853"/>
<path d="M21.625 40C22.6605 40 23.5 39.1605 23.5 38.125C23.5 37.0895 22.6605 36.25 21.625 36.25C20.5895 36.25 19.75 37.0895 19.75 38.125C19.75 39.1605 20.5895 40 21.625 40Z" fill="#34A853"/>
<path d="M31.625 40C32.6605 40 33.5 39.1605 33.5 38.125C33.5 37.0895 32.6605 36.25 31.625 36.25C30.5895 36.25 29.75 37.0895 29.75 38.125C29.75 39.1605 30.5895 40 31.625 40Z" fill="#34A853"/>
</svg>
