<svg width="35" height="35" viewBox="0 0 35 35" fill="none" xmlns="http://www.w3.org/2000/svg">
<path d="M30.6954 23.5712C30.4574 23.5712 30.2162 23.5712 29.9782 23.5712C29.3304 23.5712 28.686 23.5712 28.0382 23.5712C27.083 23.5712 26.1312 23.5712 25.1761 23.5712C24.0127 23.5712 22.8494 23.5712 21.686 23.5712C20.4136 23.5712 19.1412 23.5712 17.8687 23.5712C16.5798 23.5712 15.2942 23.5712 14.0052 23.5712C12.8121 23.5712 11.619 23.5712 10.4259 23.5712C9.42119 23.5712 8.41978 23.5712 7.41506 23.5712C6.69788 23.5712 5.984 23.5712 5.26682 23.5712C4.93963 23.5712 4.60913 23.5712 4.28194 23.5712C4.19601 23.5712 4.11008 23.5646 4.02415 23.5547C4.11338 23.5679 4.19931 23.5778 4.28855 23.591C4.15635 23.5712 4.03076 23.5348 3.90847 23.4853C3.98779 23.5183 4.06711 23.5514 4.14643 23.5844C4.0605 23.5447 3.98118 23.4985 3.90186 23.4522C3.72339 23.3497 4.07042 23.6075 3.94813 23.4919C3.91839 23.4621 3.88534 23.4357 3.85559 23.4059C3.82585 23.3762 3.79941 23.3431 3.76966 23.3134C3.65399 23.1878 3.90517 23.515 3.82254 23.3795C3.76966 23.2936 3.72009 23.2076 3.68043 23.1151C3.71348 23.1944 3.74653 23.2737 3.77958 23.3531C3.73 23.2308 3.69365 23.1052 3.67382 22.973C3.68704 23.0622 3.69695 23.1481 3.71017 23.2374C3.68373 23.0226 3.69365 22.8044 3.69365 22.5896C3.69365 22.1699 3.69365 21.7501 3.69365 21.3304C3.69365 19.9357 3.69365 18.541 3.69365 17.1463C3.69365 15.4409 3.69365 13.7355 3.69365 12.0269C3.69365 10.5661 3.69365 9.10856 3.69365 7.64776C3.69365 6.95701 3.68704 6.26627 3.69365 5.57553C3.69365 5.4929 3.70026 5.41358 3.71017 5.33426C3.69695 5.4235 3.68704 5.50943 3.67382 5.59866C3.69365 5.46646 3.73 5.34087 3.77958 5.21859C3.74653 5.29791 3.71348 5.37723 3.68043 5.45655C3.72009 5.37062 3.76636 5.2913 3.81263 5.21198C3.91508 5.03351 3.65729 5.38053 3.77297 5.25825C3.80271 5.2285 3.82915 5.19546 3.8589 5.16571C3.88864 5.13597 3.92169 5.10953 3.95144 5.07978C4.07703 4.96411 3.74983 5.21529 3.88534 5.13266C3.97127 5.07978 4.0572 5.03021 4.14974 4.99055C4.07042 5.0236 3.9911 5.05665 3.91178 5.0897C4.03406 5.04012 4.15965 5.00377 4.29185 4.98394C4.20262 4.99716 4.11669 5.00707 4.02745 5.02029C4.31829 4.98394 4.62235 5.00377 4.91319 5.00377C5.55105 5.00377 6.18891 5.00377 6.82678 5.00377C7.77531 5.00377 8.72714 5.00377 9.67567 5.00377C10.839 5.00377 12.0024 5.00377 13.1657 5.00377C14.4415 5.00377 15.7172 5.00377 16.9929 5.00377C18.2885 5.00377 19.5807 5.00377 20.8763 5.00377C22.076 5.00377 23.2757 5.00377 24.4754 5.00377C25.4867 5.00377 26.4981 5.00377 27.5061 5.00377C28.2266 5.00377 28.9471 5.00377 29.6675 5.00377C29.998 5.00377 30.3285 5.00377 30.659 5.00377C30.745 5.00377 30.8309 5.01038 30.9168 5.02029C30.8276 5.00707 30.7417 4.99716 30.6524 4.98394C30.7846 5.00377 30.9102 5.04012 31.0325 5.0897C30.9532 5.05665 30.8739 5.0236 30.7945 4.99055C30.8805 5.03021 30.9598 5.07648 31.0391 5.12275C31.2176 5.2252 30.8706 4.96741 30.9928 5.08309C31.0226 5.11283 31.0556 5.13927 31.0854 5.16902C31.1151 5.19876 31.1416 5.23181 31.1713 5.26155C31.287 5.38714 31.0358 5.05995 31.1184 5.19546C31.1713 5.28138 31.2209 5.36731 31.2605 5.45985C31.2275 5.38053 31.1944 5.30121 31.1614 5.2219C31.211 5.34418 31.2473 5.46977 31.2672 5.60197C31.2539 5.51273 31.244 5.4268 31.2308 5.33757C31.2572 5.55239 31.2473 5.77052 31.2473 5.98535C31.2473 6.40508 31.2473 6.82481 31.2473 7.24455C31.2473 8.63925 31.2473 10.034 31.2473 11.4287C31.2473 13.134 31.2473 14.8394 31.2473 16.5481C31.2473 18.0089 31.2473 19.4664 31.2473 20.9272C31.2473 21.6179 31.2539 22.3087 31.2473 22.9994C31.2473 23.082 31.2407 23.1614 31.2308 23.2407C31.244 23.1514 31.2539 23.0655 31.2672 22.9763C31.2473 23.1085 31.211 23.2341 31.1614 23.3564C31.1944 23.277 31.2275 23.1977 31.2605 23.1184C31.2209 23.2043 31.1746 23.2836 31.1283 23.363C31.0259 23.5414 31.2837 23.1944 31.168 23.3167C31.1383 23.3464 31.1118 23.3795 31.0821 23.4092C31.0523 23.439 31.0193 23.4654 30.9895 23.4952C30.8639 23.6108 31.1911 23.3597 31.0556 23.4423C30.9697 23.4952 30.8838 23.5447 30.7912 23.5844C30.8706 23.5514 30.9499 23.5183 31.0292 23.4853C30.9069 23.5348 30.7813 23.5712 30.6491 23.591C30.7384 23.5778 30.8243 23.5679 30.9135 23.5547C30.8441 23.5646 30.7714 23.5712 30.6954 23.5712C30.1765 23.5778 29.6808 24.0207 29.7039 24.5627C29.727 25.0948 30.1402 25.5608 30.6954 25.5542C31.8257 25.5376 32.8403 24.7874 33.1477 23.6935C33.2237 23.4258 33.2402 23.1481 33.2402 22.8705C33.2402 22.4078 33.2402 21.9418 33.2402 21.4791C33.2402 20.6364 33.2402 19.7903 33.2402 18.9475C33.2402 17.8866 33.2402 16.8257 33.2402 15.7648C33.2402 14.6312 33.2402 13.4976 33.2402 12.364C33.2402 11.3196 33.2402 10.2719 33.2402 9.22754C33.2402 8.42773 33.2402 7.63123 33.2402 6.83142C33.2402 6.42822 33.2402 6.0217 33.2402 5.61849C33.2402 5.10622 33.1146 4.57742 32.8139 4.15438C32.3181 3.45042 31.5547 3.02408 30.6855 3.01416C30.4541 3.01086 30.2228 3.01416 29.9914 3.01416C29.4428 3.01416 28.8942 3.01416 28.3455 3.01416C27.5523 3.01416 26.7591 3.01416 25.966 3.01416C24.9877 3.01416 24.0127 3.01416 23.0344 3.01416C21.9438 3.01416 20.8531 3.01416 19.7625 3.01416C18.6322 3.01416 17.5019 3.01416 16.3683 3.01416C15.2545 3.01416 14.1407 3.01416 13.0236 3.01416C12.0024 3.01416 10.9844 3.01416 9.96321 3.01416C9.094 3.01416 8.22809 3.01416 7.35888 3.01416C6.71771 3.01416 6.07324 3.01416 5.43207 3.01416C5.08505 3.01416 4.73472 3.01416 4.3877 3.01416C4.31168 3.01416 4.23897 3.01086 4.16296 3.01747C3.05248 3.08026 2.02793 3.84702 1.78006 4.9608C1.68752 5.38714 1.70735 5.8201 1.70735 6.25305C1.70735 6.93057 1.70735 7.6081 1.70735 8.28562C1.70735 9.26389 1.70735 10.2422 1.70735 11.2204C1.70735 12.3342 1.70735 13.4513 1.70735 14.5651C1.70735 15.6723 1.70735 16.7794 1.70735 17.8866C1.70735 18.8252 1.70735 19.7638 1.70735 20.7025C1.70735 21.3139 1.70735 21.9286 1.70735 22.54C1.70735 22.6788 1.70735 22.8176 1.70735 22.9565C1.70735 23.5943 1.91887 24.1529 2.31216 24.6486C2.77486 25.2336 3.5284 25.5476 4.26541 25.5542C4.34143 25.5542 4.41414 25.5542 4.49015 25.5542C4.89336 25.5542 5.29657 25.5542 5.70308 25.5542C6.38721 25.5542 7.07465 25.5542 7.75878 25.5542C8.65443 25.5542 9.54678 25.5542 10.4424 25.5542C11.4868 25.5542 12.5312 25.5542 13.5756 25.5542C14.6993 25.5542 15.8196 25.5542 16.9433 25.5542C18.0703 25.5542 19.2006 25.5542 20.3276 25.5542C21.4051 25.5542 22.4792 25.5542 23.5566 25.5542C24.5051 25.5542 25.4504 25.5542 26.3989 25.5542C27.1591 25.5542 27.9192 25.5542 28.6793 25.5542C29.1784 25.5542 29.6775 25.5542 30.1765 25.5542C30.3484 25.5542 30.5202 25.5542 30.6921 25.5542C31.211 25.5542 31.7067 25.0981 31.6836 24.5627C31.6638 24.024 31.2506 23.5712 30.6954 23.5712Z" fill="#34A853"/>
<path d="M18.4674 30.3807C18.4674 29.7263 18.4674 29.0719 18.4674 28.4142C18.4674 27.3699 18.4674 26.3255 18.4674 25.2811C18.4674 25.0399 18.4674 24.8019 18.4674 24.5606C18.4674 24.0418 18.0113 23.546 17.4759 23.5691C16.9372 23.5923 16.4844 24.0054 16.4844 24.5606C16.4844 25.215 16.4844 25.8694 16.4844 26.5271C16.4844 27.5715 16.4844 28.6159 16.4844 29.6602C16.4844 29.9015 16.4844 30.1395 16.4844 30.3807C16.4844 30.8996 16.9405 31.3953 17.4759 31.3722C18.0146 31.3491 18.4674 30.936 18.4674 30.3807Z" fill="#34A853"/>
<path d="M9.70918 31.3733C10.2281 31.3733 10.7436 31.3733 11.2625 31.3733C12.4953 31.3733 13.7247 31.3733 14.9575 31.3733C16.458 31.3733 17.9584 31.3733 19.4589 31.3733C20.7511 31.3733 22.0434 31.3733 23.3356 31.3733C23.9636 31.3733 24.5915 31.3865 25.2195 31.3733C25.2294 31.3733 25.236 31.3733 25.2459 31.3733C25.7648 31.3733 26.2605 30.9172 26.2374 30.3818C26.2143 29.8431 25.8012 29.3903 25.2459 29.3903C24.727 29.3903 24.2115 29.3903 23.6926 29.3903C22.4598 29.3903 21.2304 29.3903 19.9976 29.3903C18.4971 29.3903 16.9967 29.3903 15.4962 29.3903C14.204 29.3903 12.9117 29.3903 11.6195 29.3903C10.9915 29.3903 10.3636 29.3771 9.73562 29.3903C9.7257 29.3903 9.71909 29.3903 9.70918 29.3903C9.1903 29.3903 8.69455 29.8464 8.71768 30.3818C8.74082 30.9205 9.15394 31.3733 9.70918 31.3733ZM12.7927 13.1562C12.2937 13.6024 11.7946 14.0518 11.2956 14.498C10.5057 15.2086 9.71248 15.9158 8.92259 16.6264C8.74082 16.7917 8.55574 16.9536 8.37396 17.1189C7.98728 17.4659 7.99389 18.1732 8.37396 18.5202C8.78709 18.9002 9.36216 18.8903 9.77528 18.5202C10.2743 18.074 10.7734 17.6245 11.2724 17.1784C12.0623 16.4678 12.8555 15.7605 13.6454 15.0499C13.8272 14.8847 14.0123 14.7227 14.194 14.5575C14.5807 14.2105 14.5741 13.5032 14.194 13.1562C13.7842 12.7761 13.2059 12.786 12.7927 13.1562ZM25.2724 10.142C24.7535 10.7237 24.2346 11.3054 23.719 11.8838C22.8928 12.8092 22.0665 13.7346 21.2403 14.66C21.0519 14.8715 20.8602 15.0863 20.6718 15.2978C20.3281 15.6845 20.262 16.3224 20.6718 16.6991C21.0486 17.0462 21.7063 17.1123 22.0731 16.6991C22.592 16.1175 23.1109 15.5358 23.6265 14.9574C24.4527 14.032 25.279 13.1066 26.1052 12.1812C26.2936 11.9697 26.4853 11.7549 26.6737 11.5434C27.0174 11.1567 27.0835 10.5188 26.6737 10.142C26.2969 9.79501 25.6425 9.72891 25.2724 10.142Z" fill="#34A853"/>
<path d="M20.0535 15.4089C18.8438 14.6587 17.6342 13.9118 16.4246 13.1615C16.2527 13.0558 16.0809 12.9467 15.909 12.841C15.4661 12.5666 14.7985 12.7319 14.554 13.1979C14.2962 13.6837 14.4383 14.2621 14.9109 14.5529C16.1205 15.3032 17.3302 16.0501 18.5398 16.8003C18.7116 16.9061 18.8835 17.0152 19.0554 17.1209C19.4982 17.3952 20.1658 17.23 20.4104 16.764C20.6649 16.2815 20.5228 15.6998 20.0535 15.4089ZM8.38687 18.6148C8.38687 18.6743 8.38026 18.7338 8.37365 18.7932C8.38687 18.704 8.39678 18.6181 8.41 18.5288C8.39348 18.6313 8.36373 18.7271 8.32738 18.823C8.36043 18.7437 8.39348 18.6643 8.42653 18.585C8.40009 18.6445 8.36704 18.6974 8.33399 18.7536C8.24475 18.9122 8.39017 18.6643 8.40009 18.6743C8.40339 18.6776 8.33399 18.747 8.32738 18.7536C8.30755 18.7734 8.28441 18.7899 8.26458 18.8131C8.18857 18.8924 8.4761 18.671 8.34721 18.747C8.28441 18.7833 8.22492 18.8197 8.15882 18.8494C8.23814 18.8164 8.31746 18.7833 8.39678 18.7503C8.30094 18.7899 8.20509 18.8164 8.10264 18.8329C8.19187 18.8197 8.2778 18.8098 8.36704 18.7965C8.24475 18.8131 8.12908 18.8131 8.00679 18.7965C8.09603 18.8098 8.18196 18.8197 8.27119 18.8329C8.16874 18.8164 8.07289 18.7866 7.97705 18.7503C8.05637 18.7833 8.13569 18.8164 8.21501 18.8494C8.15552 18.823 8.10264 18.7899 8.04645 18.7569C7.88781 18.6677 8.13569 18.8131 8.12577 18.823C8.12247 18.8263 8.05306 18.7569 8.04645 18.7503C8.02662 18.7304 8.0101 18.7073 7.98696 18.6875C7.90764 18.6115 8.12908 18.899 8.05306 18.7701C8.01671 18.7073 7.98035 18.6478 7.95061 18.5817C7.98366 18.661 8.01671 18.7404 8.04976 18.8197C8.0101 18.7238 7.98366 18.628 7.96713 18.5255C7.98035 18.6148 7.99027 18.7007 8.00349 18.7899C7.99027 18.6776 7.98696 18.5685 8.00018 18.4561C7.98696 18.5454 7.97705 18.6313 7.96383 18.7205C7.98035 18.6115 8.00679 18.509 8.04976 18.4066C8.01671 18.4859 7.98366 18.5652 7.95061 18.6445C7.97705 18.585 8.00679 18.5255 8.04315 18.4694C8.1423 18.314 7.97705 18.5421 7.98035 18.5454C7.97705 18.5355 8.04976 18.4727 8.05637 18.466C8.0762 18.4462 8.09933 18.4264 8.12247 18.4066C8.20509 18.3305 7.91425 18.5487 8.04645 18.4694C8.10925 18.433 8.17535 18.3966 8.24475 18.3669C8.16543 18.4 8.08611 18.433 8.00679 18.466C8.10594 18.4264 8.2084 18.4033 8.31416 18.3867C8.22492 18.3999 8.13899 18.4099 8.04976 18.4231C8.14891 18.4132 8.24475 18.4132 8.34721 18.4264C8.25797 18.4132 8.17204 18.4033 8.08281 18.39C8.18526 18.4066 8.2778 18.4297 8.37365 18.466C8.29433 18.433 8.21501 18.4 8.13569 18.3669C8.19518 18.3933 8.25467 18.4231 8.31085 18.4561C8.32407 18.4627 8.38026 18.5123 8.39348 18.5123C8.36373 18.5189 8.19187 18.3405 8.32407 18.4694C8.34721 18.4925 8.36704 18.5189 8.39017 18.5421C8.46619 18.6181 8.2778 18.3669 8.32407 18.4594C8.35712 18.5255 8.40009 18.5883 8.42983 18.6577C8.39678 18.5784 8.36373 18.4991 8.33068 18.4198C8.36704 18.5156 8.39348 18.6148 8.41 18.7172C8.39678 18.628 8.38687 18.5421 8.37365 18.4528C8.38356 18.509 8.38687 18.5619 8.38687 18.6148C8.39678 19.1337 8.83635 19.6294 9.37836 19.6063C9.90716 19.5831 10.3831 19.17 10.3699 18.6148C10.3467 17.6431 9.68573 16.7111 8.70745 16.4963C7.77544 16.2914 6.84674 16.6681 6.33117 17.4712C5.88169 18.1686 5.90152 19.1733 6.39066 19.8442C6.93267 20.5879 7.83163 20.9514 8.7372 20.7234C9.69895 20.4854 10.35 19.5831 10.3666 18.6115C10.3765 18.0926 9.90386 17.5968 9.37506 17.62C8.83304 17.6464 8.39678 18.0595 8.38687 18.6148Z" fill="#34A853"/>
<path d="M14.5907 13.0723C14.5907 13.1285 14.5841 13.1847 14.5775 13.2409C14.5907 13.1517 14.6006 13.0657 14.6138 12.9765C14.5973 13.0856 14.5676 13.188 14.5246 13.2905C14.5577 13.2112 14.5907 13.1318 14.6238 13.0525C14.594 13.1153 14.5577 13.1748 14.5246 13.2343C14.4651 13.3169 14.4883 13.2872 14.594 13.1484C14.5742 13.1715 14.551 13.1946 14.5279 13.2178C14.5048 13.2409 14.4816 13.2607 14.4585 13.2806C14.5973 13.1781 14.6271 13.155 14.5444 13.2112C14.4883 13.2442 14.4354 13.2739 14.3759 13.3037C14.4552 13.2706 14.5345 13.2376 14.6138 13.2045C14.5048 13.2508 14.399 13.2806 14.2833 13.2971C14.3726 13.2839 14.4585 13.274 14.5477 13.2607C14.442 13.2706 14.3428 13.2706 14.2371 13.2607C14.3263 13.274 14.4122 13.2839 14.5015 13.2971C14.399 13.2806 14.3032 13.2541 14.204 13.2178C14.2833 13.2508 14.3627 13.2839 14.442 13.3169C14.3792 13.2905 14.323 13.2574 14.2635 13.2244C14.1809 13.1682 14.2073 13.1913 14.3428 13.2938C14.3164 13.274 14.2933 13.2508 14.2701 13.2277C14.247 13.2045 14.2239 13.1814 14.2007 13.155C14.2999 13.2905 14.3197 13.3136 14.2602 13.231C14.2239 13.1682 14.1908 13.112 14.1611 13.0459C14.1941 13.1252 14.2272 13.2045 14.2602 13.2839C14.2206 13.1847 14.1908 13.0823 14.1743 12.9765C14.1875 13.0657 14.1974 13.1517 14.2106 13.2409C14.1974 13.1252 14.1974 13.0129 14.2139 12.8939C14.2007 12.9831 14.1908 13.069 14.1776 13.1583C14.1941 13.0558 14.2239 12.96 14.2602 12.8641C14.2272 12.9435 14.1941 13.0228 14.1611 13.1021C14.1875 13.0426 14.2206 12.9897 14.2536 12.9335C14.3428 12.7749 14.1974 13.0228 14.1875 13.0129C14.1842 13.0096 14.2536 12.9401 14.2602 12.9335C14.28 12.9137 14.3032 12.8972 14.323 12.874C14.399 12.7947 14.1115 13.0162 14.2404 12.9401C14.3032 12.9038 14.3627 12.8674 14.4288 12.8377C14.3494 12.8707 14.2701 12.9038 14.1908 12.9368C14.2867 12.8972 14.3825 12.8707 14.4849 12.8542C14.3957 12.8674 14.3098 12.8774 14.2206 12.8906C14.3428 12.874 14.4585 12.874 14.5808 12.8906C14.4916 12.8774 14.4056 12.8674 14.3164 12.8542C14.4188 12.8707 14.5147 12.9005 14.6105 12.9368C14.5312 12.9038 14.4519 12.8707 14.3726 12.8377C14.4321 12.8641 14.4849 12.8972 14.5411 12.9302C14.6998 13.0195 14.4519 12.874 14.4618 12.8641C14.4651 12.8608 14.5345 12.9302 14.5411 12.9368C14.561 12.9567 14.5775 12.9798 14.6006 12.9996C14.6799 13.0757 14.4585 12.7881 14.5345 12.917C14.5709 12.9798 14.6072 13.0393 14.637 13.1054C14.6039 13.0261 14.5709 12.9468 14.5378 12.8674C14.5775 12.9633 14.6039 13.0591 14.6205 13.1616C14.6072 13.0723 14.5973 12.9864 14.5841 12.8972C14.5841 12.9534 14.5874 13.0129 14.5907 13.0723C14.6006 13.5912 15.0402 14.087 15.5822 14.0638C16.111 14.0407 16.5836 13.6276 16.5737 13.0723C16.5572 12.2725 16.111 11.4661 15.3674 11.1257C14.5345 10.7456 13.6058 10.858 12.9151 11.4727C12.3004 12.0214 12.0426 12.9831 12.3268 13.7631C12.6573 14.662 13.5331 15.3363 14.5213 15.247C15.06 15.2008 15.5657 14.9958 15.9491 14.6026C16.3523 14.1894 16.5638 13.6441 16.577 13.0723C16.5902 12.5535 16.111 12.0577 15.5855 12.0808C15.0336 12.1073 14.6039 12.5171 14.5907 13.0723ZM20.771 16.8797C20.771 16.9392 20.7644 16.9987 20.7578 17.0582C20.771 16.9689 20.7809 16.883 20.7942 16.7938C20.7776 16.8962 20.7479 16.9921 20.7115 17.0879C20.7446 17.0086 20.7776 16.9293 20.8107 16.8499C20.7843 16.9094 20.7512 16.9623 20.7182 17.0185C20.6289 17.1771 20.7743 16.9293 20.7843 16.9392C20.7876 16.9425 20.7182 17.0119 20.7115 17.0185C20.6917 17.0383 20.6686 17.0549 20.6487 17.078C20.5727 17.1573 20.8603 16.9359 20.7314 17.0119C20.6686 17.0482 20.6091 17.0846 20.543 17.1143C20.6223 17.0813 20.7016 17.0482 20.7809 17.0152C20.6851 17.0549 20.5893 17.0813 20.4868 17.0978C20.576 17.0846 20.662 17.0747 20.7512 17.0615C20.6289 17.078 20.5132 17.078 20.391 17.0615C20.4802 17.0747 20.5661 17.0846 20.6554 17.0978C20.5529 17.0813 20.4571 17.0515 20.3612 17.0152C20.4405 17.0482 20.5199 17.0813 20.5992 17.1143C20.5397 17.0879 20.4868 17.0549 20.4306 17.0218C20.272 16.9326 20.5199 17.078 20.5099 17.0879C20.5066 17.0912 20.4372 17.0218 20.4306 17.0152C20.4108 16.9954 20.3943 16.9722 20.3711 16.9524C20.2918 16.8764 20.5132 17.1639 20.4372 17.035C20.4009 16.9722 20.3645 16.9127 20.3348 16.8466C20.3678 16.926 20.4009 17.0053 20.4339 17.0846C20.3943 16.9888 20.3678 16.8929 20.3513 16.7905C20.3645 16.8797 20.3744 16.9656 20.3877 17.0549C20.3711 16.9392 20.3711 16.8268 20.3844 16.7078C20.3711 16.7971 20.3612 16.883 20.348 16.9722C20.3645 16.8665 20.3943 16.764 20.4339 16.6649C20.4009 16.7442 20.3678 16.8235 20.3348 16.9028C20.3645 16.84 20.3976 16.7838 20.4306 16.7244C20.5 16.6021 20.3579 16.8136 20.3579 16.8136C20.3579 16.7938 20.424 16.7409 20.4372 16.7277C20.4604 16.7045 20.4835 16.688 20.5066 16.6649C20.5827 16.5922 20.3249 16.7838 20.4174 16.7376C20.4802 16.7045 20.5364 16.6682 20.6025 16.6384C20.5232 16.6715 20.4438 16.7045 20.3645 16.7376C20.4703 16.6946 20.5727 16.6682 20.6851 16.6516C20.5959 16.6649 20.5099 16.6748 20.4207 16.688C20.5232 16.6781 20.6256 16.6781 20.7281 16.6913C20.6388 16.6781 20.5529 16.6682 20.4637 16.655C20.5661 16.6715 20.6653 16.6979 20.7644 16.7376C20.6851 16.7045 20.6058 16.6715 20.5265 16.6384C20.5893 16.6649 20.6454 16.6979 20.7049 16.7343C20.8239 16.8004 20.6388 16.6715 20.6256 16.6682C20.6554 16.6748 20.695 16.731 20.7148 16.7508C20.7413 16.7772 20.8173 16.8731 20.7182 16.7409C20.619 16.6087 20.6917 16.7078 20.7115 16.7376C20.7512 16.8004 20.7843 16.8665 20.814 16.9326C20.7809 16.8533 20.7479 16.7739 20.7148 16.6946C20.7512 16.7905 20.7743 16.883 20.7909 16.9855C20.7776 16.8962 20.7677 16.8103 20.7545 16.7211C20.7644 16.7772 20.7677 16.8268 20.771 16.8797C20.7809 17.3986 21.2205 17.8943 21.7625 17.8712C22.2913 17.8481 22.7672 17.4349 22.754 16.8797C22.7342 15.9113 22.0996 15.0355 21.1511 14.7744C20.2158 14.5199 19.2474 14.9264 18.7219 15.7229C18.4807 16.0865 18.3584 16.5789 18.3981 17.0119C18.4443 17.5076 18.6162 17.9208 18.9302 18.3074C19.4457 18.9453 20.3645 19.1899 21.1445 18.9817C22.093 18.7272 22.7342 17.8447 22.754 16.8764C22.7639 16.3575 22.2913 15.8618 21.7625 15.8849C21.2172 15.9113 20.7809 16.3245 20.771 16.8797ZM26.9712 9.96235C26.9712 10.0218 26.9646 10.0813 26.958 10.1408C26.9712 10.0516 26.9811 9.96566 26.9943 9.87642C26.9778 9.97888 26.9481 10.0747 26.9117 10.1706C26.9447 10.0912 26.9778 10.0119 27.0108 9.93261C26.9844 9.9921 26.9514 10.045 26.9183 10.1012C26.8291 10.2598 26.9745 10.0119 26.9844 10.0218C26.9877 10.0251 26.9183 10.0946 26.9117 10.1012C26.8919 10.121 26.8687 10.1375 26.8489 10.1607C26.7729 10.24 27.0604 10.0185 26.9315 10.0946C26.8687 10.1309 26.8092 10.1673 26.7431 10.197C26.8225 10.164 26.9018 10.1309 26.9811 10.0979C26.8853 10.1375 26.7894 10.164 26.687 10.1805C26.7762 10.1673 26.8621 10.1573 26.9514 10.1441C26.8357 10.1607 26.7266 10.1607 26.6109 10.1474C26.7002 10.1607 26.7861 10.1706 26.8753 10.1838C26.7729 10.1673 26.6737 10.1408 26.5746 10.1012C26.6539 10.1342 26.7332 10.1673 26.8125 10.2003C26.7498 10.1739 26.6936 10.1408 26.6341 10.1045C26.5151 10.0351 26.7002 10.1673 26.7134 10.1706C26.6837 10.164 26.644 10.1078 26.6242 10.0879C26.5977 10.0615 26.5217 9.96566 26.6209 10.0979C26.72 10.2301 26.6473 10.1309 26.6275 10.1012C26.5878 10.0384 26.5548 9.97227 26.525 9.90617C26.5581 9.98549 26.5911 10.0648 26.6242 10.1441C26.5878 10.0483 26.5647 9.95574 26.5482 9.85329C26.5614 9.94252 26.5713 10.0285 26.5845 10.1177C26.5713 10.0053 26.5746 9.89625 26.5878 9.78388C26.5746 9.87312 26.5647 9.95905 26.5515 10.0483C26.568 9.94583 26.5977 9.84998 26.6341 9.75414C26.601 9.83346 26.568 9.91278 26.5349 9.9921C26.5614 9.93261 26.5944 9.87973 26.6275 9.82354C26.7167 9.6649 26.5713 9.91278 26.5614 9.90286C26.5581 9.89956 26.6275 9.83015 26.6341 9.82354C26.6539 9.80371 26.677 9.78719 26.6969 9.76405C26.7729 9.68473 26.4854 9.90617 26.6143 9.83015C26.677 9.7938 26.7365 9.75744 26.8026 9.7277C26.7233 9.76075 26.644 9.7938 26.5647 9.82685C26.6605 9.78719 26.7564 9.76075 26.8588 9.74422C26.7696 9.75744 26.6837 9.76736 26.5944 9.78058C26.7101 9.76405 26.8225 9.76405 26.9414 9.77727C26.8522 9.76405 26.7663 9.75414 26.677 9.74092C26.7828 9.75744 26.882 9.78388 26.9811 9.82685C26.9018 9.7938 26.8225 9.76075 26.7431 9.7277C26.8059 9.75744 26.8654 9.78719 26.9249 9.82354C26.958 9.84337 27.0505 9.91608 26.915 9.81363C26.7729 9.70456 26.8919 9.80041 26.9183 9.82685C26.9315 9.84007 26.9613 9.88964 26.9811 9.89295C26.9613 9.88634 26.8423 9.68804 26.9084 9.80041C26.9481 9.86651 26.9844 9.9293 27.0175 10.002C26.9844 9.92269 26.9514 9.84337 26.9183 9.76405C26.958 9.86651 26.9877 9.96896 27.0009 10.0813C26.9877 9.9921 26.9778 9.90617 26.9646 9.81693C26.9679 9.86651 26.9712 9.91278 26.9712 9.96235C26.9811 10.4812 27.4207 10.977 27.9627 10.9538C28.4915 10.9307 28.9641 10.5176 28.9542 9.96235C28.9344 8.9973 28.3361 8.2074 27.4372 7.88682C26.6539 7.6059 25.6789 7.88352 25.1468 8.51477C24.542 9.22865 24.4032 10.2631 24.9023 11.0827C25.4046 11.909 26.4093 12.3188 27.348 12.0676C28.2965 11.8131 28.9377 10.9307 28.9575 9.96235C28.9674 9.44347 28.4948 8.94772 27.966 8.97086C27.4174 8.99399 26.9811 9.40381 26.9712 9.96235Z" fill="#34A853"/>
</svg>
