<svg width="37" height="33" viewBox="0 0 37 33" fill="none" xmlns="http://www.w3.org/2000/svg">
<path fill-rule="evenodd" clip-rule="evenodd" d="M26.3227 7.80814C26.3227 11.9107 22.8799 15.2364 18.633 15.2364C14.386 15.2364 10.9432 11.9107 10.9432 7.80814C10.9432 3.70563 14.386 0.379883 18.633 0.379883C22.8799 0.379883 26.3227 3.70563 26.3227 7.80814ZM23.7594 7.80814C23.7594 10.5432 21.4642 12.7603 18.633 12.7603C15.8017 12.7603 13.5065 10.5432 13.5065 7.80814C13.5065 5.07313 15.8017 2.85597 18.633 2.85597C21.4642 2.85597 23.7594 5.07313 23.7594 7.80814Z" fill="#34C759"/>
<path d="M18.633 18.9505C10.3352 18.9505 3.26536 23.6903 0.572266 30.3307C1.22832 30.96 1.91943 31.5553 2.64251 32.1135C4.64792 26.0169 10.939 21.4266 18.633 21.4266C26.3269 21.4266 32.618 26.0169 34.6234 32.1135C35.3465 31.5553 36.0376 30.96 36.6937 30.3307C34.0006 23.6903 26.9307 18.9505 18.633 18.9505Z" fill="#34C759"/>
</svg>
