<svg width="52" height="50" viewBox="0 0 52 50" fill="none" xmlns="http://www.w3.org/2000/svg">
<rect width="51.2649" height="49.5217" rx="24.7609" fill="white"/>
<path fill-rule="evenodd" clip-rule="evenodd" d="M33.3227 19.8081C33.3227 23.9107 29.8799 27.2364 25.633 27.2364C21.386 27.2364 17.9432 23.9107 17.9432 19.8081C17.9432 15.7056 21.386 12.3799 25.633 12.3799C29.8799 12.3799 33.3227 15.7056 33.3227 19.8081ZM30.7594 19.8081C30.7594 22.5432 28.4642 24.7603 25.633 24.7603C22.8017 24.7603 20.5065 22.5432 20.5065 19.8081C20.5065 17.0731 22.8017 14.856 25.633 14.856C28.4642 14.856 30.7594 17.0731 30.7594 19.8081Z" fill="#34C759"/>
<path d="M25.633 30.9505C17.3352 30.9505 10.2654 35.6903 7.57227 42.3307C8.22832 42.96 8.91943 43.5553 9.64251 44.1135C11.6479 38.0169 17.939 33.4266 25.633 33.4266C33.3269 33.4266 39.618 38.0169 41.6234 44.1135C42.3465 43.5553 43.0376 42.96 43.6937 42.3307C41.0006 35.6903 33.9307 30.9505 25.633 30.9505Z" fill="#34C759"/>
</svg>
