<svg width="34" height="34" viewBox="0 0 34 34" fill="none" xmlns="http://www.w3.org/2000/svg">
<g clip-path="url(#clip0_62_945)">
<path d="M31.6334 23.2381C31.6203 23.0859 31.5641 22.9405 31.4714 22.8191C31.3787 22.6977 31.2533 22.6052 31.1099 22.5524C30.9665 22.4997 30.8111 22.489 30.6618 22.5214C30.5125 22.5539 30.3755 22.6282 30.267 22.7357C29.8578 23.1313 29.3441 23.4018 28.7863 23.5152C29.4687 22.5448 29.9228 21.4327 30.1147 20.262C30.3066 19.0914 30.2314 17.8925 29.8947 16.755C29.6204 15.988 29.2043 15.2794 28.6679 14.6663C28.5697 14.5547 28.4408 14.4745 28.2973 14.4356C28.1538 14.3966 28.0021 14.4007 27.8609 14.4474C27.7157 14.4959 27.5881 14.5862 27.494 14.707C27.3999 14.8278 27.3436 14.9737 27.3321 15.1263C27.314 15.4416 27.228 15.7492 27.0799 16.0281C26.9319 16.307 26.7253 16.5506 26.4744 16.7424C26.2112 16.9345 25.9053 17.0597 25.5829 17.1072C26.0842 15.047 26.9197 9.65223 23.5586 4.93641C21.9691 2.73014 19.7672 1.03865 17.2258 0.0714736C17.1179 0.0287898 17.0005 0.0160841 16.886 0.0347029C16.7715 0.0533218 16.6641 0.102572 16.5753 0.177233C16.4906 0.24671 16.4258 0.337499 16.3877 0.440279C16.3496 0.54306 16.3395 0.654129 16.3585 0.762084C16.5716 2.13587 16.6072 3.53135 16.4643 4.9142C16.3253 6.15825 16.0362 7.38091 15.6034 8.55551C15.1337 7.88652 14.5337 7.31923 13.8396 6.88762C13.1454 6.45602 12.3712 6.16899 11.5634 6.04372C11.4255 6.02067 11.284 6.03165 11.1513 6.07571C11.0186 6.11976 10.8987 6.19554 10.8019 6.29648C10.7011 6.40096 10.6274 6.5286 10.5874 6.66818C10.5474 6.80777 10.5423 6.95504 10.5724 7.09708C10.9637 8.70605 10.9159 10.3906 10.4339 11.9747L10.3588 12.1957C10.3328 12.2557 10.3189 12.3201 10.3179 12.3854C10.3168 12.4507 10.3286 12.5156 10.3526 12.5764C10.3766 12.6371 10.4124 12.6925 10.4578 12.7395C10.5032 12.7864 10.5575 12.8239 10.6174 12.8499C10.6773 12.8758 10.7418 12.8898 10.8071 12.8908C10.8724 12.8919 10.9373 12.8801 10.998 12.8561C11.0587 12.832 11.1142 12.7963 11.1611 12.7509C11.208 12.7054 11.2455 12.6512 11.2715 12.5913C11.2958 12.5352 11.3159 12.4739 11.3371 12.4115L10.8633 12.2603L11.373 12.3047C11.9014 10.6051 11.9743 8.79665 11.5846 7.06007C12.375 7.2111 13.1185 7.54663 13.7548 8.03933C14.391 8.53204 14.9019 9.16801 15.2459 9.89548C15.2834 9.98416 15.3477 10.0588 15.4299 10.1089C15.5121 10.159 15.6079 10.182 15.7039 10.1747C15.7988 10.1727 15.8912 10.1436 15.9701 10.0907C16.0491 10.0379 16.1112 9.9635 16.1491 9.87644C16.8261 8.33023 17.2647 6.69029 17.45 5.01256C17.5818 3.75347 17.5736 2.48366 17.4257 1.22637C19.5551 2.14779 21.3947 3.62957 22.7485 5.51386C26.3084 10.5099 24.7939 16.3553 24.4534 17.4763C24.4319 17.547 24.4264 17.6215 24.4373 17.6946C24.4482 17.7676 24.4752 17.8373 24.5165 17.8986C24.5577 17.9599 24.612 18.0112 24.6756 18.0488C24.7391 18.0865 24.8103 18.1095 24.8838 18.1162C25.6557 18.2001 26.4315 17.9972 27.0635 17.5461C27.6583 17.1006 28.0746 16.4574 28.2375 15.7324C28.5385 16.1485 28.7789 16.6054 28.9513 17.0892C30.0904 20.2758 27.6822 23.3925 27.4041 23.7383C27.3478 23.8082 27.3115 23.8919 27.2988 23.9807C27.2862 24.0694 27.2978 24.16 27.3323 24.2427C27.3669 24.3255 27.4231 24.3974 27.4951 24.4508C27.5671 24.5042 27.6522 24.5372 27.7414 24.5464C28.79 24.6623 29.8421 24.3606 30.6699 23.7066C30.8633 25.8061 30.2945 27.905 29.0677 29.6196C28.3733 30.4796 27.5138 31.192 26.5399 31.7147C25.566 32.2375 24.4973 32.56 23.3968 32.6634C23.2726 32.6816 23.1598 32.7462 23.081 32.844C23.0023 32.9419 22.9635 33.0659 22.9723 33.1912C22.9811 33.3165 23.037 33.4339 23.1286 33.5198C23.2203 33.6056 23.341 33.6537 23.4666 33.6544C23.4906 33.6559 23.5146 33.6559 23.5386 33.6544C24.7678 33.5345 25.9605 33.1694 27.0463 32.5807C28.132 31.9919 29.0887 31.1915 29.8598 30.2267C31.3069 28.2022 31.94 25.7077 31.6334 23.2381ZM27.4696 20.5465C27.5222 20.5056 27.566 20.4546 27.5984 20.3964C27.6309 20.3383 27.6513 20.2742 27.6585 20.208C27.6657 20.1418 27.6596 20.0748 27.6404 20.0111C27.6212 19.9473 27.5894 19.888 27.5469 19.8368C27.5044 19.7856 27.452 19.7434 27.3928 19.7128C27.3337 19.6822 27.269 19.6638 27.2026 19.6586C27.1362 19.6535 27.0695 19.6618 27.0063 19.683C26.9432 19.7041 26.885 19.7378 26.8351 19.7819C25.3153 21.051 24.5718 22.3148 24.6268 23.549C24.6729 24.1208 24.8479 24.6748 25.1387 25.1693C25.4232 25.6602 25.6033 26.2046 25.6675 26.7684C25.7256 27.582 25.556 28.3957 25.1778 29.1183C25.1489 29.1769 25.1318 29.2407 25.1275 29.3059C25.1232 29.3711 25.1318 29.4365 25.1528 29.4984C25.1738 29.5603 25.2068 29.6174 25.25 29.6666C25.2931 29.7157 25.3455 29.7558 25.4042 29.7846C25.4724 29.8188 25.5478 29.8365 25.6241 29.8364C25.7171 29.8363 25.8081 29.8102 25.887 29.7611C25.9659 29.7119 26.0294 29.6417 26.0704 29.5583C26.531 28.6715 26.735 27.6738 26.6595 26.6774C26.5859 25.9897 26.3725 25.3242 26.0324 24.7219C25.807 24.3518 25.6675 23.9358 25.6241 23.5046C25.5797 22.5983 26.2016 21.6031 27.4696 20.5465ZM11.0547 15.3537H10.1811C9.6932 15.3543 9.21055 15.4547 8.7628 15.6485C8.31504 15.8424 7.91163 16.1257 7.57732 16.4811V15.7577L8.37052 14.9624C9.04354 14.2855 9.42131 13.3698 9.42131 12.4152C9.42131 11.4607 9.04354 10.5449 8.37052 9.86798L7.74971 9.24717C7.56916 9.07414 7.32875 8.97753 7.07866 8.97753C6.82858 8.97753 6.58817 9.07414 6.40762 9.24717L5.78681 9.86904C5.11379 10.546 4.73602 11.4617 4.73602 12.4163C4.73602 13.3708 5.11379 14.2866 5.78681 14.9635L6.58107 15.7588V16.479C6.24669 16.1233 5.84314 15.8398 5.39519 15.6457C4.94725 15.4517 4.46438 15.3512 3.97621 15.3506H3.10369C2.85125 15.3506 2.60915 15.4508 2.43064 15.6293C2.25214 15.8078 2.15186 16.05 2.15186 16.3024V17.1855C2.15381 18.1386 2.53328 19.052 3.20721 19.726C3.88113 20.3999 4.79461 20.7794 5.74768 20.7813H6.57472V22.3783C6.24056 22.0249 5.83792 21.7432 5.39135 21.5505C4.94479 21.3577 4.46365 21.258 3.97727 21.2572H3.10369C2.85125 21.2572 2.60915 21.3575 2.43064 21.536C2.25214 21.7145 2.15186 21.9566 2.15186 22.2091V23.0922C2.15381 24.0452 2.53328 24.9587 3.20721 25.6326C3.88113 26.3066 4.79461 26.686 5.74768 26.688H6.57472V28.1094C6.24138 27.7542 5.83911 27.4708 5.3925 27.2764C4.9459 27.082 4.46434 26.9808 3.97727 26.9788H3.10369C2.85125 26.9788 2.60915 27.0791 2.43064 27.2576C2.25214 27.4361 2.15186 27.6782 2.15186 27.9307V28.8137C2.15381 29.7668 2.53328 30.6803 3.20721 31.3542C3.88113 32.0281 4.79461 32.4076 5.74768 32.4096H6.57472V33.3233C6.58062 33.4513 6.63563 33.5721 6.7283 33.6606C6.82097 33.7491 6.94418 33.7985 7.07232 33.7985C7.20046 33.7985 7.32367 33.7491 7.41634 33.6606C7.50901 33.5721 7.56402 33.4513 7.56992 33.3233V32.4096H8.3959C9.34897 32.4076 10.2624 32.0281 10.9364 31.3542C11.6103 30.6803 11.9898 29.7668 11.9917 28.8137V27.9307C11.9917 27.6782 11.8914 27.4361 11.7129 27.2576C11.5344 27.0791 11.2923 26.9788 11.0399 26.9788H10.1811C9.6932 26.9794 9.21055 27.0798 8.7628 27.2736C8.31504 27.4675 7.91163 27.7508 7.57732 28.1062V26.6859H8.4033C9.35637 26.6839 10.2698 26.3044 10.9438 25.6305C11.6177 24.9566 11.9972 24.0431 11.9991 23.09V22.2069C11.9991 21.9545 11.8988 21.7124 11.7203 21.5339C11.5418 21.3554 11.2997 21.2551 11.0473 21.2551H10.1811C9.6932 21.2557 9.21055 21.3561 8.7628 21.5499C8.31504 21.7438 7.91163 22.0271 7.57732 22.3825V20.7855H8.4033C9.35637 20.7836 10.2698 20.4041 10.9438 19.7302C11.6177 19.0563 11.9972 18.1428 11.9991 17.1897V16.3066C11.9994 16.0553 11.9003 15.814 11.7233 15.6355C11.5464 15.457 11.306 15.3557 11.0547 15.3537ZM6.58212 31.4101H5.75403C5.06371 31.4093 4.40191 31.1347 3.91379 30.6466C3.42566 30.1585 3.15107 29.4967 3.15023 28.8063L3.10263 27.9698H3.97621C4.6667 27.9703 5.32877 28.2448 5.81713 28.733C6.30548 29.2211 6.58023 29.8831 6.58107 30.5736L6.58212 31.4101ZM6.58212 25.6854H5.75403C5.06463 25.6845 4.40363 25.4107 3.91565 24.9237C3.42768 24.4367 3.15246 23.7763 3.15023 23.0869L3.10263 22.2503H3.97621C4.6667 22.2506 5.32889 22.5248 5.81744 23.0128C6.30599 23.5007 6.581 24.1626 6.58212 24.8531V25.6854ZM6.58212 19.7851H5.75403C5.06444 19.7842 4.40328 19.5102 3.91528 19.023C3.42727 18.5358 3.15218 17.8751 3.15023 17.1855L3.10263 16.3489H3.97621C4.6667 16.3495 5.32877 16.624 5.81713 17.1121C6.30548 17.6003 6.58023 18.2622 6.58107 18.9527L6.58212 19.7851ZM10.1779 27.9698L11.0039 27.9233V28.8063C11.0031 29.4961 10.7289 30.1574 10.2415 30.6455C9.75405 31.1335 9.09307 31.4085 8.4033 31.4101H7.57732V30.5736C7.57928 29.884 7.85437 29.2233 8.34237 28.7361C8.83038 28.2489 9.49154 27.9749 10.1811 27.974L10.1779 27.9698ZM10.1779 22.245L11.0039 22.1985V23.0816C11.0031 23.7719 10.7285 24.4337 10.2404 24.9218C9.75224 25.4099 9.09044 25.6845 8.40013 25.6854H7.57732V24.8531C7.57844 24.1629 7.85316 23.5014 8.34126 23.0135C8.82935 22.5256 9.49099 22.2511 10.1811 22.2503L10.1779 22.245ZM7.07602 14.8419L6.488 14.2538C6.00085 13.7638 5.72741 13.1009 5.72741 12.4099C5.72741 11.7189 6.00085 11.056 6.488 10.566L7.04112 9.94413L7.66616 10.5755C8.15337 11.0657 8.42684 11.7288 8.42684 12.42C8.42684 13.1111 8.15337 13.7742 7.66616 14.2644L7.07602 14.8419ZM11.0039 17.176C11.0031 17.8663 10.7285 18.5281 10.2404 19.0162C9.75224 19.5043 9.09044 19.7789 8.40013 19.7798H7.57732V18.9432C7.57816 18.2529 7.85276 17.5911 8.34088 17.103C8.82901 16.6148 9.49081 16.3403 10.1811 16.3394L11.0071 16.2929L11.0039 17.176ZM21.4551 8.14304C21.5776 8.559 21.627 8.99306 21.601 9.42591C21.5969 9.49135 21.6057 9.55697 21.627 9.619C21.6482 9.68103 21.6815 9.73825 21.725 9.78738C21.7684 9.83651 21.8211 9.87658 21.88 9.90529C21.939 9.93401 22.003 9.9508 22.0685 9.95471H22.097C22.2242 9.95464 22.3465 9.90598 22.4389 9.81868C22.5313 9.73138 22.5868 9.61205 22.5941 9.48513C22.6272 8.93735 22.5645 8.38801 22.409 7.86172C21.9649 6.52857 21.0156 5.42281 19.7651 4.782C19.6487 4.72495 19.5147 4.71549 19.3914 4.75564C19.2682 4.79578 19.1655 4.88237 19.1051 4.99702C19.0447 5.11167 19.0313 5.24536 19.0678 5.3697C19.1044 5.49404 19.1879 5.59924 19.3008 5.66298C20.3149 6.17694 21.0881 7.06695 21.4551 8.14304ZM13.9599 13.3559H13.9768C14.1062 13.3557 14.2304 13.3053 14.3233 13.2154C14.4162 13.1254 14.4706 13.0029 14.475 12.8737C14.5097 11.7852 14.1861 10.7155 13.5538 9.82885C13.5158 9.77566 13.4677 9.73047 13.4123 9.69586C13.3568 9.66125 13.2951 9.63791 13.2306 9.62715C13.1662 9.6164 13.1002 9.61845 13.0365 9.63319C12.9728 9.64792 12.9127 9.67506 12.8595 9.71304C12.8063 9.75103 12.7611 9.79912 12.7265 9.85457C12.6919 9.91002 12.6685 9.97174 12.6578 10.0362C12.647 10.1007 12.6491 10.1666 12.6638 10.2303C12.6786 10.294 12.7057 10.3542 12.7437 10.4074C12.984 10.7449 13.1702 11.1177 13.2957 11.5125C13.4322 11.942 13.4941 12.3916 13.4787 12.8419C13.4744 12.9739 13.5227 13.1021 13.6129 13.1985C13.7032 13.2949 13.828 13.3515 13.9599 13.3559ZM23.4571 27.9275C23.4571 27.675 23.3568 27.4329 23.1783 27.2544C22.9998 27.0759 22.7577 26.9756 22.5053 26.9756H21.6381C21.1502 26.9772 20.6678 27.0783 20.2204 27.2729C19.773 27.4675 19.3701 27.7514 19.0364 28.1073V26.6859H19.8624C20.8153 26.6836 21.7287 26.3041 22.4025 25.6302C23.0764 24.9563 23.4559 24.043 23.4582 23.09V22.2069C23.4582 21.9545 23.3579 21.7124 23.1794 21.5339C23.0009 21.3554 22.7588 21.2551 22.5063 21.2551H21.6381C21.1505 21.2561 20.6683 21.3566 20.2209 21.5504C19.7736 21.7443 19.3705 22.0274 19.0364 22.3825V20.7855H19.8624C20.8153 20.7833 21.7287 20.4037 22.4025 19.7299C23.0764 19.056 23.4559 18.1427 23.4582 17.1897V16.3066C23.4582 16.0542 23.3579 15.8121 23.1794 15.6336C23.0009 15.4551 22.7588 15.3548 22.5063 15.3548H21.6381C21.1505 15.3558 20.6683 15.4562 20.2209 15.6501C19.7736 15.844 19.3705 16.1271 19.0364 16.4822V15.7577L19.8296 14.9624C20.5031 14.2858 20.8812 13.3699 20.8812 12.4152C20.8812 11.4605 20.5031 10.5446 19.8296 9.86798L19.2088 9.24717C19.0284 9.0742 18.7881 8.97763 18.5382 8.97763C18.2883 8.97763 18.0481 9.0742 17.8677 9.24717L17.2469 9.86904C16.5734 10.5457 16.1953 11.4615 16.1953 12.4163C16.1953 13.371 16.5734 14.2868 17.2469 14.9635L18.0401 15.7588V16.478C17.7058 16.1226 17.3024 15.8392 16.8546 15.6454C16.4069 15.4515 15.9242 15.3512 15.4363 15.3506H14.5627C14.3103 15.3506 14.0682 15.4508 13.8897 15.6293C13.7112 15.8078 13.6109 16.05 13.6109 16.3024V17.1855C13.6131 18.1385 13.9927 19.0518 14.6666 19.7256C15.3404 20.3995 16.2537 20.7791 17.2067 20.7813H18.0327V22.3783C17.6985 22.0247 17.2957 21.7429 16.8489 21.5502C16.4021 21.3574 15.9208 21.2578 15.4342 21.2572H14.5606C14.3082 21.2572 14.0661 21.3575 13.8876 21.536C13.7091 21.7145 13.6088 21.9566 13.6088 22.2091V23.0922C13.611 24.0451 13.9906 24.9585 14.6644 25.6323C15.3383 26.3062 16.2516 26.6857 17.2046 26.688H18.0306V28.1083C17.6963 27.7529 17.2929 27.4696 16.8451 27.2757C16.3974 27.0819 15.9147 26.9816 15.4268 26.9809H14.5532C14.3008 26.9809 14.0587 27.0812 13.8802 27.2597C13.7017 27.4382 13.6014 27.6803 13.6014 27.9328V28.8159C13.6036 29.7688 13.9832 30.6822 14.657 31.356C15.3309 32.0299 16.2442 32.4095 17.1972 32.4117H18.0232V33.3255C18.0291 33.4535 18.0841 33.5743 18.1768 33.6628C18.2694 33.7513 18.3927 33.8006 18.5208 33.8006C18.6489 33.8006 18.7721 33.7513 18.8648 33.6628C18.9575 33.5743 19.0125 33.4535 19.0184 33.3255V32.4117H19.8444C20.7974 32.4095 21.7107 32.0299 22.3845 31.356C23.0584 30.6822 23.438 29.7688 23.4402 28.8159L23.4571 27.9275ZM18.0348 31.4176H17.2088C16.5183 31.417 15.8563 31.1425 15.3679 30.6544C14.8796 30.1662 14.6048 29.5042 14.604 28.8137L14.5575 27.9772H15.431C16.1213 27.978 16.7831 28.2526 17.2713 28.7408C17.7594 29.2289 18.034 29.8907 18.0348 30.581V31.4176ZM18.0348 25.6928H17.2088C16.5183 25.6922 15.8563 25.4177 15.3679 24.9296C14.8796 24.4414 14.6048 23.7795 14.604 23.089L14.5575 22.2524H15.431C16.1213 22.2524 16.7835 22.5262 17.2722 23.0137C17.7609 23.5013 18.0363 24.1627 18.038 24.8531L18.0348 25.6928ZM18.0348 19.7925H17.2088C16.5183 19.7919 15.8563 19.5174 15.3679 19.0293C14.8796 18.5411 14.6048 17.8792 14.604 17.1887L14.5575 16.3521H15.431C16.1213 16.3529 16.7831 16.6275 17.2713 17.1157C17.7594 17.6038 18.034 18.2656 18.0348 18.9559V19.7925ZM21.6307 22.2524L22.4566 22.2059V23.089C22.4558 23.7795 22.181 24.4414 21.6927 24.9296C21.2043 25.4177 20.5423 25.6922 19.8518 25.6928H19.0364V24.8531C19.0375 24.1633 19.3119 23.5021 19.7996 23.0142C20.2872 22.5264 20.9483 22.2517 21.6381 22.2503L21.6307 22.2524ZM21.6307 16.3521L22.4566 16.3056V17.1887C22.4558 17.8792 22.181 18.5411 21.6927 19.0293C21.2043 19.5174 20.5423 19.7919 19.8518 19.7925H19.0364V18.9559C19.0364 18.2654 19.3103 17.6031 19.7981 17.1144C20.2858 16.6256 20.9476 16.3503 21.6381 16.3489L21.6307 16.3521ZM18.5277 14.8545L17.9407 14.2665C17.453 13.7768 17.1792 13.1138 17.1792 12.4226C17.1792 11.7315 17.453 11.0685 17.9407 10.5787L18.4928 9.95682L19.1136 10.5787C19.6012 11.0685 19.875 11.7315 19.875 12.4226C19.875 13.1138 19.6012 13.7768 19.1136 14.2665L18.5277 14.8545ZM22.4566 28.8148C22.4536 29.5026 22.1789 30.1612 21.6923 30.6474C21.2058 31.1335 20.5469 31.4076 19.8592 31.4101H19.0364V30.5736C19.0372 29.8831 19.312 29.2211 19.8003 28.733C20.2887 28.2448 20.9507 27.9703 21.6412 27.9698L22.4672 27.9233L22.4566 28.8148Z" fill="#34A853"/>
</g>
<defs>
<clipPath id="clip0_62_945">
<rect width="33.8431" height="33.8431" fill="white"/>
</clipPath>
</defs>
</svg>
