<svg width="35" height="35" viewBox="0 0 35 35" fill="none" xmlns="http://www.w3.org/2000/svg">
<g clip-path="url(#clip0_62_642)">
<path d="M32.0138 23.7752C32.0007 23.623 31.9445 23.4776 31.8518 23.3562C31.7591 23.2348 31.6337 23.1423 31.4903 23.0896C31.3469 23.0368 31.1914 23.0261 31.0421 23.0585C30.8929 23.091 30.7559 23.1653 30.6473 23.2729C30.2382 23.6684 29.7244 23.9389 29.1667 24.0523C29.849 23.0819 30.3031 21.9698 30.4951 20.7992C30.687 19.6285 30.6118 18.4296 30.2751 17.2922C30.0008 16.5251 29.5846 15.8165 29.0483 15.2034C28.95 15.0918 28.8212 15.0116 28.6777 14.9727C28.5342 14.9338 28.3825 14.9379 28.2413 14.9845C28.0961 15.033 27.9685 15.1233 27.8744 15.2441C27.7803 15.3649 27.724 15.5108 27.7125 15.6635C27.6944 15.9787 27.6083 16.2863 27.4603 16.5652C27.3123 16.8441 27.1057 17.0878 26.8548 17.2795C26.5916 17.4716 26.2856 17.5968 25.9633 17.6443C26.4646 15.5841 27.3001 10.1893 23.939 5.47352C22.3495 3.26725 20.1476 1.57576 17.6061 0.608583C17.4983 0.565899 17.3809 0.553193 17.2663 0.571812C17.1518 0.590431 17.0445 0.639681 16.9557 0.714343C16.8709 0.783819 16.8062 0.874608 16.7681 0.977389C16.73 1.08017 16.7199 1.19124 16.7389 1.29919C16.952 2.67298 16.9875 4.06846 16.8447 5.45131C16.7056 6.69536 16.4166 7.91802 15.9838 9.09262C15.5141 8.42363 14.9141 7.85634 14.2199 7.42473C13.5257 6.99313 12.7515 6.7061 11.9438 6.58083C11.8059 6.55778 11.6644 6.56876 11.5317 6.61281C11.399 6.65686 11.2791 6.73265 11.1823 6.83359C11.0815 6.93807 11.0078 7.06571 10.9678 7.20529C10.9278 7.34488 10.9226 7.49215 10.9528 7.63419C11.3441 9.24315 11.2962 10.9277 10.8143 12.5118L10.7392 12.7329C10.7132 12.7928 10.6993 12.8572 10.6982 12.9226C10.6972 12.9879 10.709 13.0527 10.733 13.1135C10.757 13.1742 10.7927 13.2296 10.8382 13.2766C10.8836 13.3235 10.9378 13.361 10.9978 13.387C11.0577 13.413 11.1221 13.4269 11.1874 13.4279C11.2528 13.429 11.3176 13.4172 11.3784 13.3932C11.4391 13.3692 11.4945 13.3334 11.5415 13.288C11.5884 13.2426 11.6259 13.1883 11.6519 13.1284C11.6762 13.0723 11.6963 13.011 11.7174 12.9486L11.2436 12.7974L11.7534 12.8418C12.2818 11.1422 12.3547 9.33376 11.9649 7.59717C12.7553 7.74821 13.4989 8.08374 14.1351 8.57644C14.7714 9.06915 15.2823 9.70512 15.6263 10.4326C15.6637 10.5213 15.7281 10.5959 15.8103 10.646C15.8924 10.6961 15.9883 10.7191 16.0843 10.7118C16.1792 10.7098 16.2716 10.6807 16.3505 10.6278C16.4294 10.575 16.4915 10.5006 16.5295 10.4136C17.2065 8.86734 17.6451 7.2274 17.8303 5.54967C17.9621 4.29058 17.954 3.02077 17.806 1.76348C19.9354 2.6849 21.7751 4.16668 23.1289 6.05097C26.6888 11.0471 25.1743 16.8924 24.8337 18.0134C24.8122 18.0841 24.8067 18.1586 24.8176 18.2317C24.8285 18.3047 24.8556 18.3744 24.8968 18.4357C24.938 18.497 24.9924 18.5483 25.056 18.5859C25.1195 18.6236 25.1906 18.6466 25.2642 18.6533C26.0361 18.7372 26.8119 18.5343 27.4439 18.0832C28.0387 17.6377 28.4549 16.9945 28.6178 16.2695C28.9189 16.6856 29.1592 17.1425 29.3317 17.6264C30.4707 20.8129 28.0626 23.9296 27.7844 24.2755C27.7282 24.3453 27.6918 24.429 27.6792 24.5178C27.6666 24.6066 27.6782 24.6971 27.7127 24.7798C27.7473 24.8626 27.8035 24.9345 27.8755 24.9879C27.9475 25.0413 28.0326 25.0744 28.1218 25.0835C29.1704 25.1994 30.2225 24.8977 31.0503 24.2437C31.2436 26.3432 30.6749 28.4421 29.448 30.1567C28.7537 31.0168 27.8942 31.7291 26.9203 32.2519C25.9464 32.7746 24.8777 33.0971 23.7772 33.2005C23.6529 33.2188 23.5401 33.2833 23.4614 33.3812C23.3827 33.479 23.3438 33.6031 23.3527 33.7284C23.3615 33.8537 23.4173 33.971 23.509 34.0569C23.6007 34.1428 23.7214 34.1908 23.847 34.1915C23.871 34.193 23.895 34.193 23.9189 34.1915C25.1482 34.0716 26.3409 33.7065 27.4267 33.1178C28.5124 32.529 29.4691 31.7286 30.2402 30.7638C31.6873 28.7393 32.3203 26.2448 32.0138 23.7752ZM27.85 21.0836C27.9026 21.0427 27.9464 20.9917 27.9788 20.9336C28.0113 20.8754 28.0317 20.8113 28.0389 20.7451C28.0461 20.6789 28.0399 20.612 28.0207 20.5482C28.0016 20.4844 27.9698 20.4252 27.9272 20.3739C27.8847 20.3227 27.8323 20.2805 27.7732 20.2499C27.7141 20.2193 27.6494 20.2009 27.583 20.1957C27.5166 20.1906 27.4498 20.1989 27.3867 20.2201C27.3236 20.2412 27.2653 20.2749 27.2155 20.319C25.6957 21.5881 24.9522 22.8519 25.0072 24.0861C25.0533 24.658 25.2283 25.2119 25.5191 25.7064C25.8036 26.1973 25.9836 26.7417 26.0479 27.3055C26.106 28.1191 25.9364 28.9328 25.5582 29.6554C25.5292 29.714 25.5121 29.7778 25.5078 29.843C25.5035 29.9082 25.5121 29.9736 25.5332 30.0355C25.5542 30.0974 25.5872 30.1546 25.6303 30.2037C25.6735 30.2528 25.7259 30.2929 25.7845 30.3217C25.8528 30.3559 25.9281 30.3736 26.0045 30.3736C26.0974 30.3734 26.1885 30.3473 26.2674 30.2982C26.3462 30.249 26.4098 30.1788 26.4508 30.0954C26.9114 29.2086 27.1154 28.2109 27.0399 27.2145C26.9662 26.5268 26.7528 25.8613 26.4127 25.259C26.1873 24.8889 26.0478 24.4729 26.0045 24.0417C25.9601 23.1354 26.582 22.1402 27.85 21.0836ZM11.4351 15.8908H10.5615C10.0736 15.8915 9.59092 15.9918 9.14317 16.1856C8.69542 16.3795 8.292 16.6628 7.95769 17.0182V16.2948L8.75089 15.4995C9.42391 14.8226 9.80168 13.9069 9.80168 12.9523C9.80168 11.9978 9.42391 11.082 8.75089 10.4051L8.13008 9.78428C7.94953 9.61125 7.70912 9.51464 7.45904 9.51464C7.20895 9.51464 6.96854 9.61125 6.78799 9.78428L6.16718 10.4061C5.49416 11.0831 5.11639 11.9988 5.11639 12.9534C5.11639 13.9079 5.49416 14.8237 6.16718 15.5006L6.96144 16.2959V17.0161C6.62706 16.6605 6.22351 16.3769 5.77557 16.1828C5.32762 15.9888 4.84475 15.8883 4.35658 15.8877H3.48406C3.23162 15.8877 2.98952 15.9879 2.81101 16.1665C2.63251 16.345 2.53223 16.5871 2.53223 16.8395V17.7226C2.53418 18.6757 2.91366 19.5891 3.58758 20.2631C4.2615 20.937 5.17498 21.3165 6.12805 21.3184H6.95509V22.9154C6.62093 22.562 6.21829 22.2803 5.77172 22.0876C5.32516 21.8948 4.84402 21.7951 4.35764 21.7943H3.48406C3.23162 21.7943 2.98952 21.8946 2.81101 22.0731C2.63251 22.2516 2.53223 22.4937 2.53223 22.7462V23.6293C2.53418 24.5823 2.91366 25.4958 3.58758 26.1697C4.2615 26.8437 5.17498 27.2231 6.12805 27.2251H6.95509V28.6465C6.62175 28.2914 6.21948 28.0079 5.77287 27.8135C5.32627 27.6191 4.84471 27.5179 4.35764 27.5159H3.48406C3.23162 27.5159 2.98952 27.6162 2.81101 27.7947C2.63251 27.9732 2.53223 28.2153 2.53223 28.4678V29.3509C2.53418 30.3039 2.91366 31.2174 3.58758 31.8913C4.2615 32.5653 5.17498 32.9447 6.12805 32.9467H6.95509V33.8604C6.96099 33.9884 7.016 34.1093 7.10867 34.1978C7.20134 34.2862 7.32455 34.3356 7.45269 34.3356C7.58083 34.3356 7.70404 34.2862 7.79671 34.1978C7.88938 34.1093 7.94439 33.9884 7.95029 33.8604V32.9467H8.77627C9.72934 32.9447 10.6428 32.5653 11.3167 31.8913C11.9907 31.2174 12.3701 30.3039 12.3721 29.3509V28.4678C12.3721 28.2153 12.2718 27.9732 12.0933 27.7947C11.9148 27.6162 11.6727 27.5159 11.4203 27.5159H10.5615C10.0736 27.5165 9.59092 27.6169 9.14317 27.8107C8.69542 28.0046 8.292 28.2879 7.95769 28.6433V27.223H8.78367C9.73675 27.221 10.6502 26.8415 11.3241 26.1676C11.9981 25.4937 12.3775 24.5802 12.3795 23.6272V22.7441C12.3795 22.4916 12.2792 22.2495 12.1007 22.071C11.9222 21.8925 11.6801 21.7922 11.4277 21.7922H10.5615C10.0736 21.7928 9.59092 21.8932 9.14317 22.087C8.69542 22.2809 8.292 22.5642 7.95769 22.9196V21.3226H8.78367C9.73675 21.3207 10.6502 20.9412 11.3241 20.2673C11.9981 19.5934 12.3775 18.6799 12.3795 17.7268V16.8437C12.3798 16.5924 12.2806 16.3511 12.1037 16.1726C11.9268 15.9941 11.6864 15.8928 11.4351 15.8908ZM6.96249 31.9473H6.1344C5.44408 31.9464 4.78228 31.6718 4.29416 31.1837C3.80603 30.6956 3.53144 30.0338 3.5306 29.3435L3.483 28.5069H4.35658C5.04708 28.5075 5.70915 28.7819 6.1975 29.2701C6.68585 29.7582 6.9606 30.4202 6.96144 31.1107L6.96249 31.9473ZM6.96249 26.2225H6.1344C5.445 26.2217 4.784 25.9478 4.29602 25.4608C3.80805 24.9738 3.53283 24.3134 3.5306 23.624L3.483 22.7874H4.35658C5.04708 22.7877 5.70926 23.0619 6.19781 23.5499C6.68636 24.0378 6.96137 24.6997 6.96249 25.3902V26.2225ZM6.96249 20.3222H6.1344C5.44482 20.3213 4.78365 20.0473 4.29565 19.5601C3.80765 19.0729 3.53255 18.4122 3.5306 17.7226L3.483 16.886H4.35658C5.04708 16.8866 5.70915 17.1611 6.1975 17.6492C6.68585 18.1374 6.9606 18.7993 6.96144 19.4898L6.96249 20.3222ZM10.5583 28.5069L11.3843 28.4604V29.3435C11.3835 30.0332 11.1093 30.6945 10.6219 31.1826C10.1344 31.6706 9.47344 31.9456 8.78367 31.9473H7.95769V31.1107C7.95965 30.4211 8.23474 29.7604 8.72275 29.2732C9.21075 28.786 9.87191 28.512 10.5615 28.5111L10.5583 28.5069ZM10.5583 22.7821L11.3843 22.7356V23.6187C11.3835 24.309 11.1089 24.9708 10.6207 25.4589C10.1326 25.9471 9.47081 26.2217 8.7805 26.2225H7.95769V25.3902C7.95881 24.7 8.23353 24.0385 8.72163 23.5506C9.20972 23.0627 9.87136 22.7883 10.5615 22.7874L10.5583 22.7821ZM7.45639 15.379L6.86837 14.7909C6.38122 14.3009 6.10778 13.638 6.10778 12.947C6.10778 12.256 6.38122 11.5931 6.86837 11.1031L7.42149 10.4812L8.04653 11.1126C8.53374 11.6028 8.80721 12.2659 8.80721 12.9571C8.80721 13.6482 8.53374 14.3113 8.04653 14.8015L7.45639 15.379ZM11.3843 17.7131C11.3835 18.4034 11.1089 19.0652 10.6207 19.5533C10.1326 20.0414 9.47081 20.316 8.7805 20.3169H7.95769V19.4803C7.95853 18.79 8.23313 18.1282 8.72126 17.6401C9.20938 17.152 9.87118 16.8774 10.5615 16.8765L11.3875 16.83L11.3843 17.7131ZM21.8355 8.68015C21.958 9.09611 22.0073 9.53017 21.9814 9.96302C21.9773 10.0285 21.9861 10.0941 22.0073 10.1561C22.0286 10.2181 22.0619 10.2754 22.1053 10.3245C22.1488 10.3736 22.2015 10.4137 22.2604 10.4424C22.3194 10.4711 22.3834 10.4879 22.4489 10.4918H22.4774C22.6045 10.4918 22.7268 10.4431 22.8193 10.3558C22.9117 10.2685 22.9672 10.1492 22.9745 10.0222C23.0075 9.47446 22.9449 8.92512 22.7894 8.39883C22.3453 7.06568 21.396 5.95992 20.1454 5.31911C20.0291 5.26206 19.895 5.2526 19.7718 5.29275C19.6486 5.33289 19.5459 5.41948 19.4855 5.53413C19.425 5.64878 19.4117 5.78247 19.4482 5.90681C19.4847 6.03115 19.5683 6.13635 19.6811 6.20009C20.6953 6.71405 21.4684 7.60406 21.8355 8.68015ZM14.3403 13.893H14.3572C14.4865 13.8928 14.6107 13.8425 14.7037 13.7525C14.7966 13.6625 14.8509 13.54 14.8553 13.4108C14.8901 12.3223 14.5665 11.2526 13.9342 10.366C13.8962 10.3128 13.8481 10.2676 13.7926 10.233C13.7372 10.1984 13.6755 10.175 13.611 10.1643C13.5465 10.1535 13.4806 10.1556 13.4169 10.1703C13.3532 10.185 13.293 10.2122 13.2399 10.2502C13.1867 10.2881 13.1415 10.3362 13.1069 10.3917C13.0723 10.4471 13.0489 10.5089 13.0382 10.5733C13.0274 10.6378 13.0295 10.7038 13.0442 10.7674C13.0589 10.8311 13.0861 10.8913 13.124 10.9445C13.3643 11.282 13.5506 11.6548 13.6761 12.0497C13.8126 12.4791 13.8745 12.9287 13.8591 13.3791C13.8548 13.511 13.9031 13.6393 13.9933 13.7356C14.0835 13.832 14.2083 13.8886 14.3403 13.893ZM23.8375 28.4646C23.8375 28.2122 23.7372 27.97 23.5587 27.7915C23.3802 27.613 23.1381 27.5128 22.8857 27.5128H22.0184C21.5306 27.5143 21.0482 27.6154 20.6008 27.81C20.1534 28.0046 19.7505 28.2885 19.4167 28.6444V27.223H20.2427C21.1957 27.2207 22.109 26.8412 22.7829 26.1673C23.4568 25.4935 23.8363 24.5801 23.8385 23.6272V22.7441C23.8385 22.4916 23.7383 22.2495 23.5598 22.071C23.3813 21.8925 23.1392 21.7922 22.8867 21.7922H22.0184C21.5309 21.7932 21.0486 21.8937 20.6013 22.0875C20.1539 22.2814 19.7508 22.5645 19.4167 22.9196V21.3226H20.2427C21.1957 21.3204 22.109 20.9409 22.7829 20.267C23.4568 19.5931 23.8363 18.6798 23.8385 17.7268V16.8437C23.8385 16.5913 23.7383 16.3492 23.5598 16.1707C23.3813 15.9922 23.1392 15.8919 22.8867 15.8919H22.0184C21.5309 15.8929 21.0486 15.9934 20.6013 16.1872C20.1539 16.3811 19.7508 16.6642 19.4167 17.0193V16.2948L20.2099 15.4995C20.8835 14.8229 21.2616 13.907 21.2616 12.9523C21.2616 11.9976 20.8835 11.0817 20.2099 10.4051L19.5891 9.78428C19.4088 9.61131 19.1685 9.51474 18.9186 9.51474C18.6687 9.51474 18.4285 9.61131 18.2481 9.78428L17.6273 10.4061C16.9538 11.0828 16.5756 11.9986 16.5756 12.9534C16.5756 13.9081 16.9538 14.8239 17.6273 15.5006L18.4205 16.2959V17.0151C18.0862 16.6597 17.6828 16.3763 17.235 16.1825C16.7873 15.9886 16.3046 15.8883 15.8167 15.8877H14.9431C14.6907 15.8877 14.4486 15.9879 14.2701 16.1665C14.0916 16.345 13.9913 16.5871 13.9913 16.8395V17.7226C13.9935 18.6756 14.3731 19.5889 15.0469 20.2628C15.7208 20.9366 16.6341 21.3162 17.5871 21.3184H18.4131V22.9154C18.0788 22.5618 17.676 22.28 17.2293 22.0873C16.7825 21.8945 16.3011 21.7949 15.8146 21.7943H14.941C14.6886 21.7943 14.4465 21.8946 14.2679 22.0731C14.0894 22.2516 13.9892 22.4937 13.9892 22.7462V23.6293C13.9914 24.5823 14.371 25.4956 15.0448 26.1694C15.7187 26.8433 16.632 27.2229 17.585 27.2251H18.411V28.6454C18.0767 28.29 17.6732 28.0067 17.2255 27.8129C16.7777 27.619 16.2951 27.5187 15.8072 27.518H14.9336C14.6811 27.518 14.439 27.6183 14.2605 27.7968C14.082 27.9753 13.9818 28.2174 13.9818 28.4699V29.353C13.984 30.306 14.3636 31.2193 15.0374 31.8931C15.7113 32.567 16.6246 32.9466 17.5776 32.9488H18.4036V33.8626C18.4095 33.9906 18.4645 34.1114 18.5571 34.1999C18.6498 34.2884 18.773 34.3377 18.9012 34.3377C19.0293 34.3377 19.1525 34.2884 19.2452 34.1999C19.3379 34.1114 19.3929 33.9906 19.3988 33.8626V32.9488H20.2247C21.1777 32.9466 22.091 32.567 22.7649 31.8931C23.4388 31.2193 23.8183 30.306 23.8206 29.353L23.8375 28.4646ZM18.4152 31.9547H17.5892C16.8987 31.9541 16.2366 31.6796 15.7483 31.1915C15.2599 30.7033 14.9852 30.0414 14.9844 29.3509L14.9378 28.5143H15.8114C16.5017 28.5151 17.1635 28.7897 17.6516 29.2779C18.1398 29.766 18.4144 30.4278 18.4152 31.1181V31.9547ZM18.4152 26.2299H17.5892C16.8987 26.2293 16.2366 25.9549 15.7483 25.4667C15.2599 24.9785 14.9852 24.3166 14.9844 23.6261L14.9378 22.7895H15.8114C16.5017 22.7895 17.1638 23.0633 17.6526 23.5509C18.1413 24.0384 18.4167 24.6999 18.4184 25.3902L18.4152 26.2299ZM18.4152 20.3296H17.5892C16.8987 20.329 16.2366 20.0545 15.7483 19.5664C15.2599 19.0782 14.9852 18.4163 14.9844 17.7258L14.9378 16.8892H15.8114C16.5017 16.89 17.1635 17.1646 17.6516 17.6528C18.1398 18.1409 18.4144 18.8027 18.4152 19.493V20.3296ZM22.011 22.7895L22.837 22.743V23.6261C22.8362 24.3166 22.5614 24.9785 22.0731 25.4667C21.5847 25.9549 20.9226 26.2293 20.2321 26.2299H19.4167V25.3902C19.4179 24.7004 19.6923 24.0392 20.1799 23.5514C20.6676 23.0635 21.3287 22.7888 22.0184 22.7874L22.011 22.7895ZM22.011 16.8892L22.837 16.8427V17.7258C22.8362 18.4163 22.5614 19.0782 22.0731 19.5664C21.5847 20.0545 20.9226 20.329 20.2321 20.3296H19.4167V19.493C19.4167 18.8025 19.6907 18.1402 20.1784 17.6515C20.6662 17.1627 21.3279 16.8874 22.0184 16.886L22.011 16.8892ZM18.908 15.3917L18.3211 14.8036C17.8334 14.3139 17.5596 13.6509 17.5596 12.9597C17.5596 12.2686 17.8334 11.6056 18.3211 11.1158L18.8731 10.4939L19.4939 11.1158C19.9816 11.6056 20.2554 12.2686 20.2554 12.9597C20.2554 13.6509 19.9816 14.3139 19.4939 14.8036L18.908 15.3917ZM22.837 29.3519C22.8339 30.0397 22.5592 30.6983 22.0727 31.1845C21.5862 31.6706 20.9273 31.9448 20.2395 31.9473H19.4167V31.1107C19.4176 30.4202 19.6923 29.7582 20.1807 29.2701C20.669 28.7819 21.3311 28.5075 22.0216 28.5069L22.8476 28.4604L22.837 29.3519Z" fill="#34A853"/>
</g>
<defs>
<clipPath id="clip0_62_642">
<rect width="33.8431" height="33.8431" fill="white" transform="translate(0.380371 0.537109)"/>
</clipPath>
</defs>
</svg>
