<svg width="30" height="30" viewBox="0 0 30 30" fill="none" xmlns="http://www.w3.org/2000/svg">
<path d="M29.0531 19.1484C29.0531 19.1484 29.0484 19.1156 29.0437 19.0969C29.0391 19.0641 29.025 19.0359 29.0109 19.0078C29.0109 18.9984 29.0063 18.9937 29.0016 18.9844L28.9828 18.9562L25.2516 12.4219C25.1672 12.2766 25.0125 12.1875 24.8438 12.1875H19.6875V8.4375C19.6875 7.66406 19.0547 7.03125 18.2812 7.03125H16.875C16.6172 7.03125 16.4062 7.24219 16.4062 7.5C16.4062 7.75781 16.6172 7.96875 16.875 7.96875H18.2812C18.5391 7.96875 18.75 8.17969 18.75 8.4375V22.0312H8.38594C7.79531 21.45 6.98438 21.0938 6.09375 21.0938C5.20312 21.0938 4.39219 21.45 3.80156 22.0312H1.875V8.4375C1.875 8.17969 2.08594 7.96875 2.34375 7.96875H3.75C4.00781 7.96875 4.21875 7.75781 4.21875 7.5C4.21875 7.24219 4.00781 7.03125 3.75 7.03125H2.34375C1.57031 7.03125 0.9375 7.66406 0.9375 8.4375V23.4375C0.9375 24.2109 1.57031 24.8438 2.34375 24.8438H2.85C3.075 26.4328 4.44375 27.6562 6.09375 27.6562C7.74375 27.6562 9.1125 26.4328 9.3375 24.8438H20.6625C20.8875 26.4328 22.2563 27.6562 23.9062 27.6562C25.5562 27.6562 26.925 26.4328 27.15 24.8438H27.6562C28.4297 24.8438 29.0625 24.2109 29.0625 23.4375V19.2188C29.0625 19.2188 29.0625 19.1719 29.0531 19.1484ZM6.09375 25.7812C5.32031 25.7812 4.6875 25.1484 4.6875 24.375C4.6875 23.6016 5.32031 22.9688 6.09375 22.9688C6.86719 22.9688 7.5 23.6016 7.5 24.375C7.5 25.1484 6.86719 25.7812 6.09375 25.7812ZM23.9062 25.7812C23.1328 25.7812 22.5 25.1484 22.5 24.375C22.5 23.6016 23.1328 22.9688 23.9062 22.9688C24.6797 22.9688 25.3125 23.6016 25.3125 24.375C25.3125 25.1484 24.6797 25.7812 23.9062 25.7812ZM28.125 23.4375C28.125 23.6953 27.9141 23.9062 27.6562 23.9062H27.15C26.925 22.3172 25.5562 21.0938 23.9062 21.0938C22.2563 21.0938 20.8875 22.3172 20.6625 23.9062H19.6875V13.125H24.5719L25.3734 14.5312H22.0312C21.7734 14.5312 21.5625 14.7422 21.5625 15V19.2188C21.5625 19.4766 21.7734 19.6875 22.0312 19.6875H28.125V23.4375Z" fill="white"/>
<path d="M12.1875 18.75H13.125C13.3828 18.75 13.5938 18.5391 13.5938 18.2812C13.5938 18.0234 13.3828 17.8125 13.125 17.8125H12.1875C11.9297 17.8125 11.7188 18.0234 11.7188 18.2812C11.7188 18.5391 11.9297 18.75 12.1875 18.75ZM16.875 17.8125H15C14.7422 17.8125 14.5312 18.0234 14.5312 18.2812C14.5312 18.5391 14.7422 18.75 15 18.75H16.875C17.1328 18.75 17.3438 18.5391 17.3438 18.2812C17.3438 18.0234 17.1328 17.8125 16.875 17.8125ZM12.1875 20.625H16.875C17.1328 20.625 17.3438 20.4141 17.3438 20.1562C17.3438 19.8984 17.1328 19.6875 16.875 19.6875H12.1875C11.9297 19.6875 11.7188 19.8984 11.7188 20.1562C11.7188 20.4141 11.9297 20.625 12.1875 20.625ZM10.3125 12.6562C13.1578 12.6562 15.4688 10.3453 15.4688 7.5C15.4688 4.65469 13.1578 2.34375 10.3125 2.34375C7.46719 2.34375 5.15625 4.65469 5.15625 7.5C5.15625 10.3453 7.46719 12.6562 10.3125 12.6562ZM9.84375 4.6875C9.84375 4.42969 10.0547 4.21875 10.3125 4.21875C10.5703 4.21875 10.7812 4.42969 10.7812 4.6875V7.20937L12.3984 8.02031C12.6281 8.13281 12.7219 8.41406 12.6047 8.64844C12.525 8.8125 12.3609 8.90625 12.1875 8.90625C12.1172 8.90625 12.0469 8.89219 11.9766 8.85469L10.1016 7.91719C9.94219 7.84219 9.84375 7.67812 9.84375 7.5V4.6875Z" fill="white"/>
</svg>
