<svg width="22" height="21" viewBox="0 0 22 21" fill="none" xmlns="http://www.w3.org/2000/svg">
<path d="M8.24361 13.151H8.803L12.6402 9.31377L12.0808 8.75438L8.24361 12.5916V13.151ZM7.4585 13.9361V12.2678L12.6402 7.09584C12.7187 7.02387 12.8054 6.96826 12.9003 6.929C12.9952 6.88974 13.0949 6.87012 13.1996 6.87012C13.3043 6.87012 13.4057 6.88974 13.5038 6.929C13.602 6.96826 13.687 7.02714 13.759 7.10565L14.2988 7.65523C14.3773 7.7272 14.4345 7.81225 14.4705 7.91039C14.5065 8.00853 14.5245 8.10667 14.5245 8.20481C14.5245 8.30949 14.5065 8.40926 14.4705 8.50413C14.4345 8.599 14.3773 8.68569 14.2988 8.7642L9.12686 13.9361H7.4585ZM12.3556 9.03899L12.0808 8.75438L12.6402 9.31377L12.3556 9.03899Z" fill="#4CA14D"/>
</svg>
