<svg width="30" height="30" viewBox="0 0 30 30" fill="none" xmlns="http://www.w3.org/2000/svg">
<path d="M23.8147 6.82324H23.0859V6.19824C23.0859 5.50793 22.5269 4.94824 21.8359 4.94824C21.145 4.94824 20.5859 5.50793 20.5859 6.19824V6.82324H19.9353C19.2444 6.82324 18.6853 7.38293 18.6853 8.07324C18.6853 8.76355 19.2444 9.32324 19.9353 9.32324H20.5859V10.052C20.5859 10.7423 21.145 11.302 21.8359 11.302C22.5269 11.302 23.0859 10.7423 23.0859 10.052V9.32324H23.8147C24.5056 9.32324 25.0647 8.76355 25.0647 8.07324C25.0647 7.38293 24.5056 6.82324 23.8147 6.82324Z" fill="#34A853"/>
<path d="M27.2229 3.82141C27.1497 3.72437 27.0618 3.6261 26.9727 3.52905L26.8811 3.42834C26.5027 3.01697 26.0669 2.64954 25.6189 2.3645C25.6128 2.35962 25.6055 2.35535 25.5994 2.35107C25.5933 2.34741 25.5884 2.34436 25.5835 2.3407C24.491 1.6272 23.208 1.25 21.875 1.25C19.8669 1.25 17.9712 2.12036 16.6931 3.61694C15.8858 4.51927 15.3485 5.6398 15.1224 6.8972C14.134 7.0002 13.1226 7.14638 12.0825 7.37854L11.3953 7.52869C10.7214 7.67639 10.2942 8.34229 10.4419 9.01672C10.5688 9.60144 11.0864 10 11.6614 10C11.7493 10 11.8396 9.99084 11.9299 9.97131L12.6221 9.81995C13.4827 9.62784 14.3143 9.50233 15.1283 9.40788C15.1901 9.7319 15.2663 10.0478 15.3735 10.3363C15.5432 10.8594 15.791 11.3666 16.084 11.8036C16.4001 12.3187 16.8066 12.7972 17.2717 13.2141C17.3193 13.2623 17.4121 13.3569 17.5488 13.4503C18.7524 14.4507 20.2856 15 21.875 15C22.3021 15 22.719 14.9483 23.1287 14.8733L22.3938 16.5326C22.0886 17.2235 21.5173 17.7106 20.8386 17.84L20.6946 17.8711C17.6599 18.4412 14.5691 18.4418 11.5271 17.8705C10.8167 17.7393 10.2051 17.1674 9.92676 16.366C8.96362 13.6774 8.47534 10.8203 8.47534 7.87476V6.32507C8.47534 4.9054 7.38159 3.75 6.0376 3.75H5C4.30908 3.75 3.75 4.30969 3.75 5C3.75 5.69031 4.30908 6.25 5 6.25L5.97534 6.32507V7.87476C5.97534 11.1084 6.51245 14.2493 7.56958 17.1973C8.13721 18.8348 9.47998 20.0348 11.0693 20.3284C12.738 20.6415 14.4348 20.8002 16.1121 20.8002C17.7905 20.8002 19.4873 20.6415 21.1865 20.3223L21.3342 20.2905C22.793 20.0122 24.0442 18.985 24.6802 17.5427L25.4407 15.8258C25.7641 15.1076 25.9641 14.3299 26.0882 13.5496C26.1848 13.4731 26.2807 13.3959 26.3623 13.3252C27.8796 12.0294 28.75 10.1343 28.75 8.125C28.75 7.04834 28.4949 5.979 28.0103 5.02747C27.771 4.56299 27.4927 4.14062 27.2229 3.82141ZM24.7339 11.4288C24.6021 11.5417 24.4653 11.6595 24.2529 11.7871C22.7405 12.8033 20.4919 12.6801 19.1003 11.488C19.0698 11.4624 19.0381 11.4374 19.0051 11.4148C19.0039 11.413 19.0027 11.4117 19.0002 11.4099C18.6609 11.1035 18.4045 10.8051 18.1897 10.4559C17.998 10.1691 17.8503 9.86877 17.7356 9.5166C17.5793 9.09485 17.5 8.6261 17.5 8.0603C17.5183 7.00989 17.8943 6.02417 18.5742 5.26184C19.3958 4.30115 20.5994 3.75 21.875 3.75C22.7209 3.75 23.5315 3.98682 24.2163 4.4342C24.2212 4.43726 24.2261 4.44031 24.231 4.44397C24.2432 4.4519 24.2566 4.46045 24.2688 4.46838C24.5386 4.63928 24.8059 4.86572 25.0232 5.09949L25.1318 5.22095C25.166 5.25696 25.2002 5.29236 25.2686 5.37903C25.459 5.60608 25.6335 5.87341 25.7849 6.16699C26.0889 6.76392 26.25 7.4408 26.25 8.125C26.25 9.40186 25.6995 10.6042 24.7339 11.4288Z" fill="#34A853"/>
<path d="M10.625 25C11.6605 25 12.5 24.1605 12.5 23.125C12.5 22.0895 11.6605 21.25 10.625 21.25C9.58947 21.25 8.75 22.0895 8.75 23.125C8.75 24.1605 9.58947 25 10.625 25Z" fill="#34A853"/>
<path d="M20.625 25C21.6605 25 22.5 24.1605 22.5 23.125C22.5 22.0895 21.6605 21.25 20.625 21.25C19.5895 21.25 18.75 22.0895 18.75 23.125C18.75 24.1605 19.5895 25 20.625 25Z" fill="#34A853"/>
</svg>
