<svg width="30" height="30" viewBox="0 0 30 30" fill="none" xmlns="http://www.w3.org/2000/svg">
<g clip-path="url(#clip0_105_789)">
<path d="M15 0C6.72231 0 0 6.72231 0 15C0 23.2777 6.72231 30 15 30C23.2777 30 30 23.2777 30 15C30 6.72231 23.2777 0 15 0ZM15 1.15615C22.6535 1.15615 28.8462 7.34654 28.8462 15C28.8462 22.6535 22.6535 28.8462 15 28.8462C7.34654 28.8462 1.15385 22.6535 1.15385 15C1.15385 7.34654 7.34654 1.15615 15 1.15615ZM18.4615 9.82385C17.1808 9.82385 16.1538 10.8508 16.1538 12.1315C16.1538 13.4123 17.1808 14.4392 18.4615 14.4392C19.7423 14.4392 20.7692 13.4123 20.7692 12.1315C20.7692 10.8508 19.7423 9.82385 18.4615 9.82385ZM11.5385 11.5546C10.2577 11.5546 9.23077 12.5815 9.23077 13.8623C9.23077 15.1431 10.2577 16.17 11.5385 16.17C12.8192 16.17 13.8462 15.1431 13.8462 13.8623C13.8462 12.5815 12.8192 11.5546 11.5385 11.5546ZM17.8846 15.6173C16.3938 15.7673 14.9596 16.5092 13.8462 17.7877V17.8038C13.2954 17.5658 12.7119 17.4122 12.1154 17.3481V19.6315H10.9615V17.3481C9.47077 17.4981 8.03654 18.24 6.92308 19.5185V20.7692H16.1538V19.4769C16.0292 19.3362 15.9035 19.1931 15.7685 19.0627C15.7581 19.0535 15.7465 19.0477 15.7373 19.0385H23.0769V17.7462C22.9523 17.6054 22.8265 17.4623 22.6915 17.3319C21.6265 16.3096 20.3435 15.7465 19.0385 15.6173V17.9008H17.8846V15.6173Z" fill="#34A853"/>
</g>
<defs>
<clipPath id="clip0_105_789">
<rect width="30" height="30" fill="white"/>
</clipPath>
</defs>
</svg>
