<svg width="35" height="38" viewBox="0 0 35 38" fill="none" xmlns="http://www.w3.org/2000/svg">
<path d="M17.5 0C12.8587 0 8.40752 1.57633 5.12563 4.38221C1.84374 7.18808 0 10.9937 0 14.9618C0 25.061 15.4219 36.4693 16.0781 36.9556C16.4744 37.2454 16.9786 37.4046 17.5 37.4046C18.0214 37.4046 18.5256 37.2454 18.9219 36.9556C19.6875 36.4693 35 25.061 35 14.9618C35 10.9937 33.1563 7.18808 29.8744 4.38221C26.5925 1.57633 22.1413 0 17.5 0ZM17.5 33.0094C12.8406 29.269 4.375 21.2083 4.375 14.9618C4.375 11.9857 5.75781 9.13151 8.21922 7.0271C10.6806 4.92269 14.019 3.74045 17.5 3.74045C20.981 3.74045 24.3194 4.92269 26.7808 7.0271C29.2422 9.13151 30.625 11.9857 30.625 14.9618C30.625 21.2083 22.1594 29.2877 17.5 33.0094ZM17.5 7.48089C15.7694 7.48089 14.0777 7.91964 12.6388 8.74165C11.1998 9.56366 10.0783 10.732 9.41605 12.099C8.75379 13.4659 8.58051 14.9701 8.91813 16.4212C9.25575 17.8724 10.0891 19.2054 11.3128 20.2516C12.5365 21.2978 14.0956 22.0103 15.793 22.2989C17.4903 22.5876 19.2496 22.4394 20.8485 21.8732C22.4473 21.307 23.8139 20.3482 24.7754 19.1179C25.7368 17.8877 26.25 16.4414 26.25 14.9618C26.25 12.9777 25.3281 11.0749 23.6872 9.67199C22.0462 8.26905 19.8206 7.48089 17.5 7.48089ZM17.5 18.7022C16.6347 18.7022 15.7888 18.4829 15.0694 18.0718C14.3499 17.6608 13.7892 17.0767 13.458 16.3932C13.1269 15.7097 13.0403 14.9576 13.2091 14.2321C13.3779 13.5065 13.7946 12.84 14.4064 12.3169C15.0183 11.7938 15.7978 11.4375 16.6465 11.2932C17.4951 11.1489 18.3748 11.223 19.1742 11.5061C19.9737 11.7892 20.6569 12.2686 21.1377 12.8837C21.6184 13.4988 21.875 14.222 21.875 14.9618C21.875 15.9538 21.4141 16.9052 20.5936 17.6067C19.7731 18.3081 18.6603 18.7022 17.5 18.7022Z" fill="#34A853"/>
</svg>
