<svg width="37" height="43" viewBox="0 0 37 43" fill="none" xmlns="http://www.w3.org/2000/svg">
<path d="M36.1259 28.4334C36.1259 28.4334 36.1199 28.378 36.1138 28.3463C36.1078 28.2909 36.0897 28.2434 36.0717 28.1959C36.0717 28.1801 36.0657 28.1722 36.0596 28.1563L36.0355 28.1088L31.2412 17.0735C31.1328 16.8281 30.9341 16.6777 30.7172 16.6777H24.092V10.3446C24.092 9.03843 23.2789 7.96973 22.2851 7.96973H20.4782C20.1469 7.96973 19.8759 8.32596 19.8759 8.76136C19.8759 9.19676 20.1469 9.55299 20.4782 9.55299H22.2851C22.6163 9.55299 22.8874 9.90922 22.8874 10.3446V33.3019H9.57053C8.81163 32.3203 7.76966 31.7187 6.62529 31.7187C5.48092 31.7187 4.43894 32.3203 3.68005 33.3019H1.2046V10.3446C1.2046 9.90922 1.47563 9.55299 1.8069 9.55299H3.61379C3.94506 9.55299 4.21609 9.19676 4.21609 8.76136C4.21609 8.32596 3.94506 7.96973 3.61379 7.96973H1.8069C0.813103 7.96973 0 9.03843 0 10.3446V35.6768C0 36.983 0.813103 38.0517 1.8069 38.0517H2.45738C2.74648 40.7353 4.5052 42.8015 6.62529 42.8015C8.74538 42.8015 10.5041 40.7353 10.7932 38.0517H25.3447C25.6338 40.7353 27.3926 42.8015 29.5126 42.8015C31.6327 42.8015 33.3914 40.7353 33.6805 38.0517H34.331C35.3248 38.0517 36.1379 36.983 36.1379 35.6768V28.5521C36.1379 28.5521 36.1379 28.473 36.1259 28.4334ZM6.62529 39.635C5.63149 39.635 4.81839 38.5663 4.81839 37.2601C4.81839 35.9539 5.63149 34.8852 6.62529 34.8852C7.61908 34.8852 8.43218 35.9539 8.43218 37.2601C8.43218 38.5663 7.61908 39.635 6.62529 39.635ZM29.5126 39.635C28.5189 39.635 27.7057 38.5663 27.7057 37.2601C27.7057 35.9539 28.5189 34.8852 29.5126 34.8852C30.5064 34.8852 31.3195 35.9539 31.3195 37.2601C31.3195 38.5663 30.5064 39.635 29.5126 39.635ZM34.9333 35.6768C34.9333 36.1122 34.6623 36.4685 34.331 36.4685H33.6805C33.3914 33.7848 31.6327 31.7187 29.5126 31.7187C27.3926 31.7187 25.6338 33.7848 25.3447 36.4685H24.092V18.2609H30.3679L31.3978 20.6358H27.1034C26.7722 20.6358 26.5012 20.9921 26.5012 21.4275V28.5521C26.5012 28.9875 26.7722 29.3438 27.1034 29.3438H34.9333V35.6768Z" fill="#4CA14D"/>
<path d="M14.4552 27.7608H15.6598C15.9911 27.7608 16.2621 27.4046 16.2621 26.9692C16.2621 26.5338 15.9911 26.1775 15.6598 26.1775H14.4552C14.1239 26.1775 13.8529 26.5338 13.8529 26.9692C13.8529 27.4046 14.1239 27.7608 14.4552 27.7608ZM20.4782 26.1775H18.069C17.7377 26.1775 17.4667 26.5338 17.4667 26.9692C17.4667 27.4046 17.7377 27.7608 18.069 27.7608H20.4782C20.8095 27.7608 21.0805 27.4046 21.0805 26.9692C21.0805 26.5338 20.8095 26.1775 20.4782 26.1775ZM14.4552 30.9273H20.4782C20.8095 30.9273 21.0805 30.5711 21.0805 30.1357C21.0805 29.7003 20.8095 29.3441 20.4782 29.3441H14.4552C14.1239 29.3441 13.8529 29.7003 13.8529 30.1357C13.8529 30.5711 14.1239 30.9273 14.4552 30.9273ZM12.046 17.4696C15.702 17.4696 18.6713 13.5669 18.6713 8.76166C18.6713 3.95645 15.702 0.0537109 12.046 0.0537109C8.39005 0.0537109 5.42072 3.95645 5.42072 8.76166C5.42072 13.5669 8.39005 17.4696 12.046 17.4696ZM11.4437 4.01187C11.4437 3.57647 11.7147 3.22024 12.046 3.22024C12.3773 3.22024 12.6483 3.57647 12.6483 4.01187V8.27084L14.7262 9.64037C15.0214 9.83036 15.1418 10.3053 14.9912 10.7012C14.8889 10.9782 14.678 11.1365 14.4552 11.1365C14.3649 11.1365 14.2745 11.1128 14.1842 11.0495L11.775 9.46621C11.5702 9.33955 11.4437 9.06248 11.4437 8.76166V4.01187Z" fill="#4CA14D"/>
</svg>
