<svg width="20" height="20" viewBox="0 0 20 20" fill="none" xmlns="http://www.w3.org/2000/svg">
<path d="M0 10C0 10.2652 0.131696 10.5196 0.366117 10.7071C0.600537 10.8946 0.918479 11 1.25 11H10.7375L7.8625 13.29C7.74534 13.383 7.65235 13.4936 7.58889 13.6154C7.52542 13.7373 7.49275 13.868 7.49275 14C7.49275 14.132 7.52542 14.2627 7.58889 14.3846C7.65235 14.5064 7.74534 14.617 7.8625 14.71C7.9787 14.8037 8.11695 14.8781 8.26928 14.9289C8.4216 14.9797 8.58498 15.0058 8.75 15.0058C8.91502 15.0058 9.0784 14.9797 9.23072 14.9289C9.38305 14.8781 9.5213 14.8037 9.6375 14.71L14.6375 10.71C14.7513 10.6149 14.8405 10.5028 14.9 10.38C15.025 10.1365 15.025 9.86346 14.9 9.62C14.8405 9.49725 14.7513 9.3851 14.6375 9.29L9.6375 5.29C9.52095 5.19676 9.38259 5.1228 9.23031 5.07234C9.07803 5.02188 8.91482 4.99591 8.75 4.99591C8.58518 4.99591 8.42197 5.02188 8.26969 5.07234C8.11741 5.1228 7.97905 5.19676 7.8625 5.29C7.74595 5.38324 7.6535 5.49393 7.59043 5.61575C7.52735 5.73757 7.49489 5.86814 7.49489 6C7.49489 6.13186 7.52735 6.26243 7.59043 6.38425C7.6535 6.50607 7.74595 6.61676 7.8625 6.71L10.7375 9H1.25C0.918479 9 0.600537 9.10536 0.366117 9.29289C0.131696 9.48043 0 9.73478 0 10ZM16.25 0H3.75C2.75544 0 1.80161 0.316071 1.09835 0.87868C0.395088 1.44129 0 2.20435 0 3V6C0 6.26522 0.131696 6.51957 0.366117 6.70711C0.600537 6.89464 0.918479 7 1.25 7C1.58152 7 1.89946 6.89464 2.13388 6.70711C2.3683 6.51957 2.5 6.26522 2.5 6V3C2.5 2.73478 2.6317 2.48043 2.86612 2.29289C3.10054 2.10536 3.41848 2 3.75 2H16.25C16.5815 2 16.8995 2.10536 17.1339 2.29289C17.3683 2.48043 17.5 2.73478 17.5 3V17C17.5 17.2652 17.3683 17.5196 17.1339 17.7071C16.8995 17.8946 16.5815 18 16.25 18H3.75C3.41848 18 3.10054 17.8946 2.86612 17.7071C2.6317 17.5196 2.5 17.2652 2.5 17V14C2.5 13.7348 2.3683 13.4804 2.13388 13.2929C1.89946 13.1054 1.58152 13 1.25 13C0.918479 13 0.600537 13.1054 0.366117 13.2929C0.131696 13.4804 0 13.7348 0 14V17C0 17.7956 0.395088 18.5587 1.09835 19.1213C1.80161 19.6839 2.75544 20 3.75 20H16.25C17.2446 20 18.1984 19.6839 18.9017 19.1213C19.6049 18.5587 20 17.7956 20 17V3C20 2.20435 19.6049 1.44129 18.9017 0.87868C18.1984 0.316071 17.2446 0 16.25 0Z" fill="#34A853"/>
</svg>
