<svg width="30" height="30" viewBox="0 0 30 30" fill="none" xmlns="http://www.w3.org/2000/svg">
<path d="M15 0C6.72083 0 0 6.72083 0 15C0 23.2792 6.72083 30 15 30C23.2792 30 30 23.2792 30 15C30 6.72083 23.2792 0 15 0ZM15 0.8075C22.8417 0.8075 29.1925 7.15833 29.1925 15C29.1925 22.8417 22.8417 29.1925 15 29.1925C7.15833 29.1925 0.8075 22.8417 0.8075 15C0.8075 7.15833 7.15833 0.8075 15 0.8075ZM14.9742 6.64083V6.66667C14.8897 6.66835 14.8077 6.69567 14.7392 6.745L12.6558 8.3075H8.75V11.2242L7.34333 12.2917C7.24547 12.3325 7.16685 12.4091 7.1235 12.5059C7.08014 12.6026 7.07532 12.7123 7.11 12.8125C7.09665 12.8459 7.08769 12.8809 7.08333 12.9167V22.0833C7.08307 22.0919 7.08307 22.1006 7.08333 22.1092C7.08223 22.1266 7.08223 22.1442 7.08333 22.1617C7.09156 22.1707 7.10018 22.1793 7.10917 22.1875C7.1089 22.1961 7.1089 22.2047 7.10917 22.2133C7.11654 22.2314 7.12517 22.249 7.135 22.2658C7.1435 22.2748 7.1524 22.2835 7.16167 22.2917C7.1699 22.3007 7.17851 22.3093 7.1875 22.3175C7.19571 22.3268 7.20433 22.3357 7.21333 22.3442C7.28822 22.4233 7.39112 22.47 7.5 22.4742C7.50861 22.4744 7.51722 22.4744 7.52583 22.4742H22.4217C22.4872 22.4875 22.555 22.4848 22.6193 22.4663C22.6836 22.4479 22.7425 22.4142 22.7911 22.3682C22.8396 22.3222 22.8764 22.2652 22.8983 22.202C22.9201 22.1387 22.9264 22.0712 22.9167 22.005V12.8917C22.9182 12.8383 22.9094 12.7851 22.8908 12.735C22.9072 12.6487 22.8958 12.5594 22.8584 12.48C22.821 12.4005 22.7594 12.3349 22.6825 12.2925L21.25 11.2242V8.28167H20.8592C20.8506 8.2814 20.8419 8.2814 20.8333 8.28167H17.3433L15.235 6.71833C15.1592 6.66404 15.0673 6.63675 14.9742 6.64083ZM15 7.60417L15.9375 8.3075H14.0367L15 7.60417ZM9.58333 9.14083H20.4167V13.4633L20.3908 13.49H20.3642L15 16.8483L9.58333 13.49V11.4583C9.5836 11.4497 9.5836 11.4411 9.58333 11.4325V9.14083ZM16.5883 10.625C16.4981 10.6414 16.4158 10.6871 16.3542 10.755L13.9325 13.3333L12.7867 12.1875C12.7118 12.1084 12.6089 12.0617 12.5 12.0575C12.4199 12.0605 12.3423 12.0865 12.2766 12.1325C12.2109 12.1784 12.1599 12.2424 12.1296 12.3166C12.0993 12.3909 12.0911 12.4723 12.106 12.5511C12.1208 12.6299 12.1581 12.7027 12.2133 12.7608L13.5933 14.1667C13.6445 14.2395 13.7177 14.294 13.8022 14.3222C13.8866 14.3503 13.9778 14.3508 14.0625 14.3233C14.0711 14.3236 14.0797 14.3236 14.0883 14.3233C14.0976 14.3149 14.1065 14.306 14.115 14.2967C14.1233 14.2969 14.1317 14.2969 14.14 14.2967C14.1928 14.2637 14.2375 14.2192 14.2708 14.1667L16.9533 11.3283C17.0076 11.2718 17.0448 11.2012 17.0607 11.1246C17.0766 11.0479 17.0707 10.9683 17.0434 10.8949C17.0162 10.8215 16.9688 10.7572 16.9068 10.7095C16.8447 10.6617 16.7704 10.6325 16.6925 10.625C16.6753 10.6239 16.658 10.6239 16.6408 10.625C16.6234 10.6239 16.6058 10.6239 16.5883 10.625ZM8.75 12.2658V12.9692L8.22917 12.6558L8.75 12.2658ZM21.25 12.2917L21.745 12.6567L21.6667 12.6817L21.25 12.9425V12.2917ZM22.0833 13.4117V21.3017L17.7342 18.385C17.6629 18.3452 17.5814 18.3272 17.5 18.3333C17.4126 18.3352 17.328 18.3645 17.2582 18.4171C17.1883 18.4697 17.1368 18.543 17.1109 18.6265C17.085 18.71 17.0861 18.7995 17.1139 18.8824C17.1417 18.9653 17.1948 19.0373 17.2658 19.0883L21.12 21.6667H8.88L12.7342 19.0883C12.8052 19.0373 12.8583 18.9653 12.8861 18.8824C12.9139 18.7995 12.915 18.71 12.8891 18.6265C12.8632 18.543 12.8117 18.4697 12.7418 18.4171C12.672 18.3645 12.5874 18.3352 12.5 18.3333C12.4185 18.3275 12.3371 18.3457 12.2658 18.3858L7.91667 21.3025V13.4375L8.75 13.9583L8.95833 14.0625L14.6875 17.6567L14.7658 17.7083H14.7917C14.8085 17.7182 14.8261 17.7268 14.8442 17.7342C14.8691 17.7456 14.895 17.7545 14.9217 17.7608C14.9477 17.7633 14.9739 17.7633 15 17.7608C15.0086 17.7611 15.0172 17.7611 15.0258 17.7608C15.0347 17.7611 15.0436 17.7611 15.0525 17.7608C15.0608 17.7611 15.0692 17.7611 15.0775 17.7608C15.095 17.7619 15.1125 17.7619 15.13 17.7608C15.1393 17.7524 15.1482 17.7435 15.1567 17.7342C15.165 17.7344 15.1733 17.7344 15.1817 17.7342L21.25 13.9333L22.0833 13.4117Z" fill="#34A853"/>
</svg>
