<svg width="50" height="50" viewBox="0 0 50 50" fill="none" xmlns="http://www.w3.org/2000/svg">
<path d="M24.9047 19.5484C24.8044 19.5484 24.7058 19.5234 24.6176 19.4757C24.5293 19.428 24.4544 19.3591 24.3995 19.2752L20.5593 13.4179C20.4995 13.3268 20.4656 13.2212 20.461 13.1123C20.4564 13.0034 20.4813 12.8953 20.5332 12.7994C20.585 12.7035 20.6618 12.6234 20.7554 12.5676C20.849 12.5118 20.956 12.4824 21.065 12.4824H28.7445C28.8534 12.4825 28.9603 12.512 29.0539 12.5678C29.1474 12.6236 29.2241 12.7037 29.2759 12.7996C29.3277 12.8955 29.3526 13.0035 29.348 13.1124C29.3433 13.2212 29.3094 13.3268 29.2497 13.4179L25.4085 19.2752C25.3537 19.3589 25.279 19.4277 25.1911 19.4754C25.1031 19.523 25.0047 19.5481 24.9047 19.5484ZM22.1837 13.6911L24.9047 17.8417L27.6257 13.6911H22.1837Z" fill="#4CA14D"/>
<path d="M26.9867 13.6906H22.8221C22.7334 13.6906 22.6459 13.6711 22.5657 13.6335C22.4855 13.5958 22.4145 13.5411 22.3578 13.473C22.3011 13.4049 22.2601 13.3252 22.2376 13.2394C22.2152 13.1537 22.2118 13.0641 22.2279 12.977C22.3075 12.548 22.3524 12.1132 22.3623 11.6769C22.3623 11.6707 22.3623 11.6649 22.3623 11.6586C22.3623 11.6378 22.3623 11.6102 22.3623 11.5788C22.3623 11.5595 22.3623 11.5401 22.3623 11.5208C22.3623 11.5014 22.3623 11.4749 22.3623 11.4516C22.3623 11.4284 22.3623 11.397 22.3623 11.3699C22.3623 11.3429 22.3589 11.3023 22.3574 11.2665C22.354 11.1915 22.3511 11.1214 22.3444 11.0591C22.3444 11.0523 22.3444 11.046 22.3444 11.0392C22.3279 10.8312 22.2994 10.6242 22.2593 10.4194C22.1781 10.005 22.0483 9.60153 21.8725 9.21752C21.7819 9.01787 21.6789 8.8241 21.5641 8.63735C21.4472 8.44429 21.319 8.25831 21.1802 8.08039C20.6276 7.36679 19.8535 6.70008 18.9393 6.1465C18.4822 5.87219 18.0066 5.62987 17.5159 5.4213C17.2563 5.31203 17.0006 5.21534 16.7574 5.13025C16.4567 5.02678 16.2111 4.95281 15.9838 4.8977C15.8434 4.86343 15.7198 4.77995 15.6357 4.66241C15.5515 4.54486 15.5123 4.40103 15.5251 4.25703C15.5379 4.11302 15.6019 3.97838 15.7055 3.87753C15.8091 3.77669 15.9454 3.71632 16.0897 3.70739C16.3614 3.69047 16.6563 3.68805 17.0184 3.69917C17.3114 3.70835 17.6209 3.72914 17.937 3.76105C18.5591 3.82432 19.1761 3.93062 19.7834 4.07918C20.4115 4.23295 21.0259 4.43782 21.6206 4.69174C22.2432 4.95778 22.8377 5.28509 23.3954 5.66883C23.6851 5.86838 23.9631 6.08437 24.228 6.31572C24.5009 6.55156 24.7592 6.80375 25.0015 7.0709C25.4953 7.61427 25.9238 8.21349 26.2784 8.85637C26.4579 9.17879 26.6193 9.51097 26.7619 9.85135C26.8233 9.99301 26.875 10.1318 26.9253 10.2662L26.9606 10.3595C26.9857 10.4277 27.0065 10.4891 27.0258 10.549L27.0515 10.6239V10.6307L27.0723 10.6936C27.093 10.755 27.1163 10.8246 27.137 10.8971C27.3439 11.5874 27.4933 12.2935 27.5838 13.0084C27.5949 13.0936 27.5877 13.1802 27.5627 13.2625C27.5377 13.3447 27.4955 13.4206 27.4388 13.4852C27.3821 13.5498 27.3122 13.6015 27.2339 13.6369C27.1556 13.6723 27.0707 13.6906 26.9847 13.6906H26.9867ZM23.5226 12.4819H26.2784C26.2012 12.0636 26.1009 11.6499 25.9777 11.2428C25.9777 11.2384 25.9777 11.2346 25.9743 11.2302C25.9612 11.1843 25.9438 11.1335 25.9259 11.0779C25.9187 11.0552 25.911 11.033 25.9037 11.0107C25.8965 10.9885 25.8853 10.9566 25.8766 10.9295C25.8602 10.8811 25.8442 10.8328 25.8283 10.7845L25.793 10.6878C25.7446 10.5611 25.7006 10.4417 25.6508 10.3276C25.6508 10.3237 25.6475 10.3194 25.6455 10.3155C25.5208 10.0152 25.3793 9.72227 25.2215 9.43798C24.9127 8.87754 24.5395 8.35507 24.1095 7.8812C23.8995 7.64931 23.6755 7.43038 23.439 7.22561C23.2083 7.02553 22.9665 6.83861 22.7147 6.66575C22.2222 6.32714 21.6973 6.03822 21.1478 5.80324C20.7723 5.64262 20.3878 5.50411 19.9962 5.38842C20.8567 5.96182 21.5737 6.61596 22.1321 7.33681C22.2997 7.55154 22.4545 7.77593 22.5958 8.00884C22.7362 8.23778 22.8622 8.47531 22.9729 8.72003C23.1875 9.19142 23.3456 9.68655 23.4438 10.1951C23.492 10.4426 23.5262 10.6926 23.5463 10.944C23.556 11.0407 23.5603 11.133 23.5642 11.2152C23.5642 11.2471 23.5666 11.279 23.5685 11.3119C23.5709 11.3603 23.5709 11.4086 23.5714 11.4521C23.5714 11.4705 23.5714 11.4894 23.5714 11.5077V11.5184C23.5714 11.5338 23.5714 11.5493 23.5714 11.5667C23.5714 11.6102 23.5714 11.6591 23.5714 11.7147C23.5661 11.9622 23.5492 12.2204 23.5226 12.4819ZM32.9987 32.5451C32.8581 32.5451 32.722 32.4963 32.6136 32.4068C32.5052 32.3173 32.4314 32.1929 32.4048 32.0549C32.3783 31.9169 32.4006 31.774 32.4681 31.6507C32.5355 31.5274 32.6438 31.4315 32.7743 31.3794L36.456 29.9068V26.7458C36.456 26.5855 36.5196 26.4318 36.633 26.3185C36.7463 26.2051 36.9 26.1415 37.0603 26.1415C37.2206 26.1415 37.3743 26.2051 37.4876 26.3185C37.601 26.4318 37.6646 26.5855 37.6646 26.7458V30.3158C37.6647 30.4365 37.6285 30.5546 37.5608 30.6545C37.493 30.7545 37.3968 30.8319 37.2846 30.8766L33.2235 32.5015C33.152 32.5303 33.0757 32.5451 32.9987 32.5451ZM24.8763 45.9962C24.7995 45.9963 24.7233 45.9817 24.652 45.9532L13.5587 41.5159C13.4466 41.4709 13.3505 41.3934 13.2828 41.2934C13.2151 41.1934 13.1788 41.0754 13.1787 40.9546V30.7533C13.1787 30.593 13.2424 30.4393 13.3557 30.326C13.4691 30.2126 13.6228 30.149 13.7831 30.149C13.9433 30.149 14.097 30.2126 14.2104 30.326C14.3237 30.4393 14.3874 30.593 14.3874 30.7533V40.5456L24.272 44.4994V31.6361C24.272 31.4758 24.3357 31.3221 24.449 31.2088C24.5623 31.0955 24.716 31.0318 24.8763 31.0318C25.0366 31.0318 25.1903 31.0955 25.3037 31.2088C25.417 31.3221 25.4807 31.4758 25.4807 31.6361V45.3919C25.4807 45.5522 25.417 45.7059 25.3037 45.8192C25.1903 45.9326 25.0366 45.9962 24.8763 45.9962Z" fill="#4CA14D"/>
<path d="M24.8766 45.9942C24.7163 45.9942 24.5626 45.9305 24.4492 45.8172C24.3359 45.7039 24.2722 45.5502 24.2722 45.3899V31.6341C24.2722 31.4738 24.3359 31.3201 24.4492 31.2068C24.5626 31.0935 24.7163 31.0298 24.8766 31.0298C25.0368 31.0298 25.1906 31.0935 25.3039 31.2068C25.4172 31.3201 25.4809 31.4738 25.4809 31.6341V44.4974L35.3679 40.5435V30.7498C35.3679 30.5896 35.4316 30.4358 35.5449 30.3225C35.6583 30.2092 35.812 30.1455 35.9722 30.1455C36.1325 30.1455 36.2862 30.2092 36.3996 30.3225C36.5129 30.4358 36.5766 30.5896 36.5766 30.7498V40.9511C36.5765 41.0719 36.5402 41.1899 36.4725 41.29C36.4048 41.39 36.3087 41.4675 36.1966 41.5124L25.1009 45.9512C25.0295 45.9797 24.9534 45.9943 24.8766 45.9942Z" fill="#4CA14D"/>
<path d="M24.8765 32.2232C24.7997 32.2231 24.7236 32.2085 24.6522 32.1801L14.4867 28.1141C14.3378 28.0546 14.2187 27.9383 14.1556 27.7909C14.0924 27.6435 14.0904 27.4771 14.1499 27.3282C14.2095 27.1794 14.3258 27.0603 14.4731 26.9971C14.6205 26.934 14.787 26.9319 14.9358 26.9915L24.8765 30.9681L28.7133 29.4335C28.7873 29.4025 28.8667 29.3865 28.9469 29.3865C29.0272 29.3864 29.1066 29.4024 29.1806 29.4334C29.2546 29.4644 29.3217 29.5098 29.3779 29.567C29.4342 29.6241 29.4785 29.692 29.5083 29.7664C29.5381 29.8409 29.5527 29.9206 29.5514 30.0008C29.5501 30.081 29.5328 30.1602 29.5005 30.2336C29.4683 30.3071 29.4218 30.3734 29.3637 30.4287C29.3055 30.484 29.237 30.5271 29.162 30.5557L25.1008 32.1801C25.0294 32.2085 24.9533 32.2231 24.8765 32.2232Z" fill="#4CA14D"/>
<path d="M24.8765 32.2232C24.7997 32.2231 24.7235 32.2085 24.6521 32.1801L12.4686 27.3063C12.3565 27.2614 12.2604 27.184 12.1927 27.0839C12.125 26.9839 12.0889 26.866 12.0889 26.7452C12.0889 26.6244 12.125 26.5064 12.1927 26.4064C12.2604 26.3064 12.3565 26.229 12.4686 26.1841L16.5298 24.5597L24.6521 21.3107C24.7962 21.2532 24.9568 21.2532 25.1008 21.3107L37.2843 26.1841C37.3964 26.229 37.4925 26.3064 37.5602 26.4064C37.6279 26.5064 37.6641 26.6244 37.6641 26.7452C37.6641 26.866 37.6279 26.9839 37.5602 27.0839C37.4925 27.184 37.3964 27.2614 37.2843 27.3063L33.2406 28.9235C33.1642 28.9563 33.0819 28.9727 32.9988 28.9718C32.8583 28.9719 32.7221 28.923 32.6137 28.8336C32.5054 28.7441 32.4315 28.6197 32.405 28.4817C32.3784 28.3437 32.4008 28.2008 32.4682 28.0775C32.5357 27.9542 32.644 27.8582 32.7745 27.8062L35.4336 26.7425L24.8765 22.5233L14.3199 26.7454L24.8765 30.9681L28.7133 29.4335C28.7873 29.4025 28.8667 29.3865 28.9469 29.3865C29.0271 29.3865 29.1066 29.4024 29.1806 29.4334C29.2546 29.4644 29.3216 29.5098 29.3779 29.567C29.4342 29.6242 29.4785 29.692 29.5083 29.7665C29.538 29.841 29.5527 29.9206 29.5514 30.0008C29.55 30.081 29.5327 30.1602 29.5005 30.2336C29.4683 30.3071 29.4218 30.3734 29.3636 30.4287C29.3055 30.484 29.237 30.5272 29.162 30.5557L25.1008 32.1801C25.0294 32.2085 24.9533 32.2231 24.8765 32.2232Z" fill="#4CA14D"/>
<path d="M24.8762 35.7927C24.7994 35.7926 24.7233 35.778 24.6519 35.7496L12.4684 30.8758C12.3562 30.831 12.26 30.7537 12.1922 30.6537C12.1245 30.5537 12.0883 30.4357 12.0884 30.3149V26.745C12.0884 26.5847 12.1521 26.431 12.2654 26.3176C12.3787 26.2043 12.5324 26.1406 12.6927 26.1406C12.853 26.1406 13.0067 26.2043 13.1201 26.3176C13.2334 26.431 13.2971 26.5847 13.2971 26.745V29.9059L24.8762 34.5376L28.7131 33.003C28.7868 32.9736 28.8656 32.9589 28.945 32.9599C29.0244 32.9609 29.1029 32.9776 29.1758 33.0089C29.2488 33.0402 29.3149 33.0856 29.3703 33.1424C29.4258 33.1993 29.4695 33.2665 29.4989 33.3403C29.5284 33.414 29.5431 33.4928 29.542 33.5722C29.541 33.6516 29.5244 33.7301 29.4931 33.803C29.4618 33.876 29.4164 33.9421 29.3595 33.9975C29.3027 34.053 29.2355 34.0967 29.1617 34.1261L25.1006 35.7506C25.0291 35.7786 24.953 35.7929 24.8762 35.7927Z" fill="#4CA14D"/>
<path d="M28.9378 36.2012C28.8584 36.2014 28.7797 36.1858 28.7063 36.1555C28.633 36.1252 28.5663 36.0806 28.5101 36.0245C28.454 35.9684 28.4095 35.9017 28.3792 35.8283C28.3488 35.7549 28.3333 35.6763 28.3334 35.5969V30.4034L16.5299 25.6814C16.4178 25.6365 16.3217 25.559 16.254 25.459C16.1863 25.359 16.1501 25.241 16.1501 25.1203C16.1501 24.9995 16.1863 24.8815 16.254 24.7815C16.3217 24.6815 16.4178 24.6041 16.5299 24.5592L20.5911 22.9347C20.7351 22.8772 20.8957 22.8772 21.0398 22.9347L33.2233 27.8081C33.3355 27.8529 33.4317 27.9304 33.4995 28.0304C33.5672 28.1305 33.6034 28.2486 33.6033 28.3695V33.9724C33.6033 34.0932 33.5671 34.2112 33.4993 34.3111C33.4316 34.4111 33.3354 34.4885 33.2233 34.5332L29.1621 36.1582C29.0908 36.1868 29.0146 36.2014 28.9378 36.2012ZM18.3816 25.1205L29.1631 29.4331C29.2752 29.4779 29.3714 29.5552 29.4391 29.6552C29.5069 29.7552 29.5431 29.8732 29.5431 29.9939V34.7063L32.3956 33.5653V28.779L20.8154 24.1468L18.3816 25.1205ZM27.7228 42.336C27.5625 42.336 27.4088 42.2723 27.2955 42.159C27.1821 42.0457 27.1185 41.8919 27.1185 41.7317V39.4371C27.1186 39.3163 27.1548 39.1983 27.2225 39.0983C27.2902 38.9982 27.3863 38.9208 27.4985 38.8758L31.5645 37.2513C31.6562 37.2147 31.7555 37.201 31.8537 37.2116C31.9518 37.2222 32.0459 37.2567 32.1277 37.3121C32.2095 37.3675 32.2764 37.4421 32.3227 37.5294C32.369 37.6166 32.3932 37.7139 32.3931 37.8126V40.1062C32.3932 40.2271 32.3571 40.3452 32.2893 40.4452C32.2216 40.5453 32.1254 40.6227 32.0131 40.6675L27.9471 42.293C27.8757 42.3213 27.7996 42.3359 27.7228 42.336ZM28.3271 39.8466V40.8392L31.1845 39.6972V38.7051L28.3271 39.8466ZM21.6373 41.8327C21.5605 41.8326 21.4843 41.8178 21.413 41.7892L16.9999 40.0245C16.8511 39.965 16.732 39.8487 16.6689 39.7014C16.6058 39.5541 16.6038 39.3877 16.6634 39.2389C16.7229 39.0901 16.8392 38.971 16.9865 38.9079C17.1338 38.8448 17.3002 38.8428 17.449 38.9024L21.8612 40.6671C21.9917 40.7191 22.0999 40.815 22.1674 40.9383C22.2348 41.0615 22.2572 41.2044 22.2307 41.3423C22.2042 41.4803 22.1305 41.6047 22.0222 41.6942C21.9139 41.7837 21.7778 41.8327 21.6373 41.8327ZM21.6373 39.0576C21.5605 39.0576 21.4844 39.043 21.413 39.0145L17.0008 37.2494C16.852 37.1898 16.733 37.0736 16.6699 36.9263C16.6068 36.7789 16.6048 36.6126 16.6643 36.4637C16.7239 36.3149 16.8401 36.1959 16.9875 36.1328C17.1348 36.0697 17.3012 36.0677 17.45 36.1273L21.8621 37.8919C21.9927 37.944 22.101 38.04 22.1685 38.1633C22.2359 38.2867 22.2582 38.4297 22.2316 38.5677C22.205 38.7057 22.1311 38.8301 22.0226 38.9196C21.9141 39.009 21.7779 39.0578 21.6373 39.0576Z" fill="#4CA14D"/>
</svg>
