<svg width="50" height="50" viewBox="0 0 50 50" fill="none" xmlns="http://www.w3.org/2000/svg">
<path d="M24.9047 19.5484C24.8044 19.5484 24.7058 19.5234 24.6176 19.4757C24.5293 19.428 24.4544 19.3591 24.3995 19.2752L20.5593 13.4179C20.4995 13.3268 20.4656 13.2212 20.461 13.1123C20.4564 13.0034 20.4813 12.8953 20.5332 12.7994C20.585 12.7035 20.6618 12.6234 20.7554 12.5676C20.849 12.5118 20.956 12.4824 21.065 12.4824H28.7445C28.8534 12.4825 28.9603 12.512 29.0539 12.5678C29.1474 12.6236 29.2241 12.7037 29.2759 12.7996C29.3277 12.8955 29.3526 13.0035 29.348 13.1124C29.3433 13.2212 29.3094 13.3268 29.2497 13.4179L25.4085 19.2752C25.3537 19.3589 25.279 19.4277 25.1911 19.4754C25.1031 19.523 25.0047 19.5481 24.9047 19.5484ZM22.1837 13.6911L24.9047 17.8417L27.6257 13.6911H22.1837Z" fill="#4CA14D"/>
<path d="M26.9872 13.6906H22.8225C22.7339 13.6906 22.6464 13.6711 22.5662 13.6335C22.486 13.5958 22.415 13.5411 22.3583 13.473C22.3016 13.4049 22.2606 13.3252 22.2381 13.2394C22.2157 13.1537 22.2123 13.0641 22.2284 12.977C22.308 12.548 22.3529 12.1132 22.3628 11.6769C22.3628 11.6707 22.3628 11.6649 22.3628 11.6586C22.3628 11.6378 22.3628 11.6102 22.3628 11.5788C22.3628 11.5595 22.3628 11.5401 22.3628 11.5208C22.3628 11.5014 22.3628 11.4749 22.3628 11.4516C22.3628 11.4284 22.3628 11.397 22.3628 11.3699C22.3628 11.3429 22.3594 11.3023 22.3579 11.2665C22.3545 11.1915 22.3516 11.1214 22.3449 11.0591C22.3449 11.0523 22.3449 11.046 22.3449 11.0392C22.3283 10.8312 22.2999 10.6242 22.2598 10.4194C22.1786 10.005 22.0488 9.60153 21.873 9.21752C21.7824 9.01787 21.6794 8.8241 21.5645 8.63735C21.4477 8.44429 21.3195 8.25831 21.1807 8.08039C20.6281 7.36679 19.854 6.70008 18.9398 6.1465C18.4826 5.87219 18.0071 5.62987 17.5164 5.4213C17.2568 5.31203 17.001 5.21534 16.7579 5.13025C16.4571 5.02678 16.2115 4.95281 15.9843 4.8977C15.8439 4.86343 15.7203 4.77995 15.6362 4.66241C15.552 4.54486 15.5128 4.40103 15.5256 4.25703C15.5384 4.11302 15.6024 3.97838 15.706 3.87753C15.8096 3.77669 15.9459 3.71632 16.0902 3.70739C16.3619 3.69047 16.6568 3.68805 17.0189 3.69917C17.3119 3.70835 17.6213 3.72914 17.9375 3.76105C18.5596 3.82432 19.1765 3.93062 19.7839 4.07918C20.412 4.23295 21.0264 4.43782 21.6211 4.69174C22.2437 4.95778 22.8382 5.28509 23.3959 5.66883C23.6856 5.86838 23.9635 6.08437 24.2285 6.31572C24.5014 6.55156 24.7597 6.80375 25.002 7.0709C25.4958 7.61427 25.9243 8.21349 26.2789 8.85637C26.4584 9.17879 26.6198 9.51097 26.7624 9.85135C26.8238 9.99301 26.8755 10.1318 26.9258 10.2662L26.9611 10.3595C26.9862 10.4277 27.007 10.4891 27.0263 10.549L27.052 10.6239V10.6307L27.0727 10.6936C27.0935 10.755 27.1167 10.8246 27.1375 10.8971C27.3443 11.5874 27.4938 12.2935 27.5843 13.0084C27.5954 13.0936 27.5882 13.1802 27.5632 13.2625C27.5382 13.3447 27.496 13.4206 27.4392 13.4852C27.3825 13.5498 27.3127 13.6015 27.2344 13.6369C27.1561 13.6723 27.0712 13.6906 26.9852 13.6906H26.9872ZM23.5231 12.4819H26.2789C26.2017 12.0636 26.1013 11.6499 25.9782 11.2428C25.9782 11.2384 25.9782 11.2346 25.9748 11.2302C25.9617 11.1843 25.9443 11.1335 25.9264 11.0779C25.9192 11.0552 25.9114 11.033 25.9042 11.0107C25.8969 10.9885 25.8858 10.9566 25.8771 10.9295C25.8607 10.8811 25.8447 10.8328 25.8288 10.7845L25.7935 10.6878C25.7451 10.5611 25.7011 10.4417 25.6513 10.3276C25.6513 10.3237 25.6479 10.3194 25.646 10.3155C25.5213 10.0152 25.3797 9.72227 25.222 9.43798C24.9132 8.87754 24.54 8.35507 24.11 7.8812C23.9 7.64931 23.676 7.43038 23.4394 7.22561C23.2088 7.02553 22.967 6.83861 22.7152 6.66575C22.2227 6.32714 21.6978 6.03822 21.1483 5.80324C20.7728 5.64262 20.3883 5.50411 19.9966 5.38842C20.8572 5.96182 21.5742 6.61596 22.1326 7.33681C22.3002 7.55154 22.455 7.77593 22.5963 8.00884C22.7367 8.23778 22.8627 8.47531 22.9734 8.72003C23.188 9.19142 23.3461 9.68655 23.4443 10.1951C23.4925 10.4426 23.5267 10.6926 23.5468 10.944C23.5564 11.0407 23.5608 11.133 23.5647 11.2152C23.5647 11.2471 23.5671 11.279 23.569 11.3119C23.5714 11.3603 23.5714 11.4086 23.5719 11.4521C23.5719 11.4705 23.5719 11.4894 23.5719 11.5077V11.5184C23.5719 11.5338 23.5719 11.5493 23.5719 11.5667C23.5719 11.6102 23.5719 11.6591 23.5719 11.7147C23.5666 11.9622 23.5497 12.2204 23.5231 12.4819ZM32.9991 32.5451C32.8586 32.5451 32.7225 32.4963 32.6141 32.4068C32.5057 32.3173 32.4319 32.1929 32.4053 32.0549C32.3788 31.9169 32.4011 31.774 32.4686 31.6507C32.536 31.5274 32.6443 31.4315 32.7748 31.3794L36.4565 29.9068V26.7458C36.4565 26.5855 36.5201 26.4318 36.6335 26.3185C36.7468 26.2051 36.9005 26.1415 37.0608 26.1415C37.2211 26.1415 37.3748 26.2051 37.4881 26.3185C37.6015 26.4318 37.6651 26.5855 37.6651 26.7458V30.3158C37.6652 30.4365 37.629 30.5546 37.5613 30.6545C37.4935 30.7545 37.3973 30.8319 37.2851 30.8766L33.224 32.5015C33.1525 32.5303 33.0762 32.5451 32.9991 32.5451ZM24.8768 45.9962C24.8 45.9963 24.7238 45.9817 24.6525 45.9532L13.5592 41.5159C13.4471 41.4709 13.351 41.3934 13.2833 41.2934C13.2155 41.1934 13.1793 41.0754 13.1792 40.9546V30.7533C13.1792 30.593 13.2429 30.4393 13.3562 30.326C13.4695 30.2126 13.6233 30.149 13.7835 30.149C13.9438 30.149 14.0975 30.2126 14.2109 30.326C14.3242 30.4393 14.3879 30.593 14.3879 30.7533V40.5456L24.2725 44.4994V31.6361C24.2725 31.4758 24.3361 31.3221 24.4495 31.2088C24.5628 31.0955 24.7165 31.0318 24.8768 31.0318C25.0371 31.0318 25.1908 31.0955 25.3041 31.2088C25.4175 31.3221 25.4812 31.4758 25.4812 31.6361V45.3919C25.4812 45.5522 25.4175 45.7059 25.3041 45.8192C25.1908 45.9326 25.0371 45.9962 24.8768 45.9962Z" fill="#4CA14D"/>
<path d="M24.8768 45.9942C24.7165 45.9942 24.5628 45.9305 24.4495 45.8172C24.3361 45.7039 24.2725 45.5502 24.2725 45.3899V31.6341C24.2725 31.4738 24.3361 31.3201 24.4495 31.2068C24.5628 31.0935 24.7165 31.0298 24.8768 31.0298C25.0371 31.0298 25.1908 31.0935 25.3041 31.2068C25.4175 31.3201 25.4811 31.4738 25.4811 31.6341V44.4974L35.3682 40.5435V30.7498C35.3682 30.5896 35.4318 30.4358 35.5452 30.3225C35.6585 30.2092 35.8122 30.1455 35.9725 30.1455C36.1328 30.1455 36.2865 30.2092 36.3998 30.3225C36.5132 30.4358 36.5768 30.5896 36.5768 30.7498V40.9511C36.5767 41.0719 36.5405 41.1899 36.4728 41.29C36.405 41.39 36.3089 41.4675 36.1968 41.5124L25.1011 45.9512C25.0298 45.9797 24.9536 45.9943 24.8768 45.9942Z" fill="#4CA14D"/>
<path d="M24.8767 32.2232C24.7999 32.2231 24.7238 32.2085 24.6524 32.1801L14.4869 28.1141C14.3381 28.0546 14.2189 27.9383 14.1558 27.7909C14.0926 27.6435 14.0906 27.4771 14.1502 27.3282C14.2098 27.1794 14.326 27.0603 14.4734 26.9971C14.6208 26.934 14.7872 26.9319 14.9361 26.9915L24.8767 30.9681L28.7136 29.4335C28.7876 29.4025 28.867 29.3865 28.9472 29.3865C29.0274 29.3864 29.1068 29.4024 29.1808 29.4334C29.2548 29.4644 29.3219 29.5098 29.3782 29.567C29.4344 29.6241 29.4787 29.692 29.5085 29.7664C29.5383 29.8409 29.553 29.9206 29.5516 30.0008C29.5503 30.081 29.533 30.1602 29.5008 30.2336C29.4686 30.3071 29.422 30.3734 29.3639 30.4287C29.3058 30.484 29.2372 30.5271 29.1622 30.5557L25.1011 32.1801C25.0297 32.2085 24.9536 32.2231 24.8767 32.2232Z" fill="#4CA14D"/>
<path d="M24.8765 32.2232C24.7997 32.2231 24.7235 32.2085 24.6521 32.1801L12.4686 27.3063C12.3565 27.2614 12.2604 27.184 12.1927 27.0839C12.125 26.9839 12.0889 26.866 12.0889 26.7452C12.0889 26.6244 12.125 26.5064 12.1927 26.4064C12.2604 26.3064 12.3565 26.229 12.4686 26.1841L16.5298 24.5597L24.6521 21.3107C24.7962 21.2532 24.9568 21.2532 25.1008 21.3107L37.2843 26.1841C37.3964 26.229 37.4925 26.3064 37.5602 26.4064C37.6279 26.5064 37.6641 26.6244 37.6641 26.7452C37.6641 26.866 37.6279 26.9839 37.5602 27.0839C37.4925 27.184 37.3964 27.2614 37.2843 27.3063L33.2406 28.9235C33.1642 28.9563 33.0819 28.9727 32.9988 28.9718C32.8583 28.9719 32.7221 28.923 32.6137 28.8336C32.5054 28.7441 32.4315 28.6197 32.405 28.4817C32.3784 28.3437 32.4008 28.2008 32.4682 28.0775C32.5357 27.9542 32.644 27.8582 32.7745 27.8062L35.4336 26.7425L24.8765 22.5233L14.3199 26.7454L24.8765 30.9681L28.7133 29.4335C28.7873 29.4025 28.8667 29.3865 28.9469 29.3865C29.0271 29.3865 29.1066 29.4024 29.1806 29.4334C29.2546 29.4644 29.3216 29.5098 29.3779 29.567C29.4342 29.6242 29.4785 29.692 29.5083 29.7665C29.538 29.841 29.5527 29.9206 29.5514 30.0008C29.55 30.081 29.5327 30.1602 29.5005 30.2336C29.4683 30.3071 29.4218 30.3734 29.3636 30.4287C29.3055 30.484 29.237 30.5272 29.162 30.5557L25.1008 32.1801C25.0294 32.2085 24.9533 32.2231 24.8765 32.2232Z" fill="#4CA14D"/>
<path d="M24.8762 35.7927C24.7994 35.7926 24.7233 35.778 24.6519 35.7496L12.4684 30.8758C12.3562 30.831 12.26 30.7537 12.1922 30.6537C12.1245 30.5537 12.0883 30.4357 12.0884 30.3149V26.745C12.0884 26.5847 12.1521 26.431 12.2654 26.3176C12.3787 26.2043 12.5324 26.1406 12.6927 26.1406C12.853 26.1406 13.0067 26.2043 13.1201 26.3176C13.2334 26.431 13.2971 26.5847 13.2971 26.745V29.9059L24.8762 34.5376L28.7131 33.003C28.7868 32.9736 28.8656 32.9589 28.945 32.9599C29.0244 32.9609 29.1029 32.9776 29.1758 33.0089C29.2488 33.0402 29.3149 33.0856 29.3703 33.1424C29.4258 33.1993 29.4695 33.2665 29.4989 33.3403C29.5284 33.414 29.5431 33.4928 29.542 33.5722C29.541 33.6516 29.5244 33.7301 29.4931 33.803C29.4618 33.876 29.4164 33.9421 29.3595 33.9975C29.3027 34.053 29.2355 34.0967 29.1617 34.1261L25.1006 35.7506C25.0291 35.7786 24.953 35.7929 24.8762 35.7927Z" fill="#4CA14D"/>
<path d="M28.938 36.2012C28.8586 36.2014 28.78 36.1858 28.7066 36.1555C28.6332 36.1252 28.5665 36.0806 28.5104 36.0245C28.4542 35.9684 28.4097 35.9017 28.3794 35.8283C28.3491 35.7549 28.3335 35.6763 28.3337 35.5969V30.4034L16.5302 25.6814C16.4181 25.6365 16.322 25.559 16.2543 25.459C16.1866 25.359 16.1504 25.241 16.1504 25.1203C16.1504 24.9995 16.1866 24.8815 16.2543 24.7815C16.322 24.6815 16.4181 24.6041 16.5302 24.5592L20.5913 22.9347C20.7354 22.8772 20.896 22.8772 21.04 22.9347L33.2235 27.8081C33.3357 27.8529 33.4319 27.9304 33.4997 28.0304C33.5674 28.1305 33.6036 28.2486 33.6035 28.3695V33.9724C33.6035 34.0932 33.5673 34.2112 33.4996 34.3111C33.4318 34.4111 33.3357 34.4885 33.2235 34.5332L29.1623 36.1582C29.091 36.1868 29.0148 36.2014 28.938 36.2012ZM18.3819 25.1205L29.1633 29.4331C29.2755 29.4779 29.3716 29.5552 29.4394 29.6552C29.5071 29.7552 29.5433 29.8732 29.5433 29.9939V34.7063L32.3958 33.5653V28.779L20.8157 24.1468L18.3819 25.1205ZM27.723 42.336C27.5628 42.336 27.409 42.2723 27.2957 42.159C27.1824 42.0457 27.1187 41.8919 27.1187 41.7317V39.4371C27.1188 39.3163 27.155 39.1983 27.2228 39.0983C27.2905 38.9982 27.3866 38.9208 27.4987 38.8758L31.5647 37.2513C31.6564 37.2147 31.7557 37.201 31.8539 37.2116C31.9521 37.2222 32.0462 37.2567 32.128 37.3121C32.2097 37.3675 32.2767 37.4421 32.323 37.5294C32.3692 37.6166 32.3934 37.7139 32.3934 37.8126V40.1062C32.3935 40.2271 32.3573 40.3452 32.2896 40.4452C32.2218 40.5453 32.1256 40.6227 32.0134 40.6675L27.9474 42.293C27.8759 42.3213 27.7998 42.3359 27.723 42.336ZM28.3274 39.8466V40.8392L31.1847 39.6972V38.7051L28.3274 39.8466ZM21.6376 41.8327C21.5607 41.8326 21.4846 41.8178 21.4132 41.7892L17.0001 40.0245C16.8513 39.965 16.7322 39.8487 16.6691 39.7014C16.606 39.5541 16.604 39.3877 16.6636 39.2389C16.7232 39.0901 16.8394 38.971 16.9867 38.9079C17.1341 38.8448 17.3004 38.8428 17.4492 38.9024L21.8614 40.6671C21.9919 40.7191 22.1002 40.815 22.1676 40.9383C22.2351 41.0615 22.2575 41.2044 22.231 41.3423C22.2045 41.4803 22.1307 41.6047 22.0224 41.6942C21.9141 41.7837 21.7781 41.8327 21.6376 41.8327ZM21.6376 39.0576C21.5607 39.0576 21.4846 39.043 21.4132 39.0145L17.0011 37.2494C16.8523 37.1898 16.7332 37.0736 16.6701 36.9263C16.607 36.7789 16.605 36.6126 16.6646 36.4637C16.7241 36.3149 16.8404 36.1959 16.9877 36.1328C17.135 36.0697 17.3014 36.0677 17.4502 36.1273L21.8624 37.8919C21.9929 37.944 22.1013 38.04 22.1687 38.1633C22.2361 38.2867 22.2585 38.4297 22.2318 38.5677C22.2052 38.7057 22.1313 38.8301 22.0228 38.9196C21.9144 39.009 21.7781 39.0578 21.6376 39.0576Z" fill="#4CA14D"/>
</svg>
