<svg width="12" height="13" viewBox="0 0 12 13" fill="none" xmlns="http://www.w3.org/2000/svg">
<path d="M10.3339 9.12266V10.61C10.3344 10.7481 10.3093 10.8847 10.26 11.0113C10.2108 11.1378 10.1386 11.2513 10.048 11.3447C9.95741 11.438 9.85049 11.5091 9.73405 11.5533C9.61762 11.5976 9.49424 11.614 9.37183 11.6016C8.01377 11.4358 6.70926 10.9145 5.56312 10.0795C4.49678 9.31833 3.59271 8.30273 2.91512 7.10484C2.16925 5.81145 1.70509 4.33888 1.56022 2.80643C1.54919 2.66933 1.5637 2.53116 1.60281 2.4007C1.64193 2.27024 1.70479 2.15036 1.78741 2.04869C1.87002 1.94703 1.97058 1.8658 2.08267 1.81018C2.19476 1.75456 2.31594 1.72576 2.43848 1.72563H3.76248C3.97666 1.72327 4.1843 1.80847 4.3467 1.96536C4.5091 2.12225 4.61517 2.34013 4.64514 2.57837C4.70103 3.05436 4.80466 3.52171 4.95408 3.97151C5.01346 4.14896 5.02631 4.34182 4.99111 4.52722C4.95591 4.71263 4.87414 4.88281 4.75548 5.01761L4.19498 5.64725C4.82325 6.88845 5.73809 7.91615 6.84299 8.62192L7.40348 7.99228C7.52347 7.85899 7.67497 7.76712 7.84001 7.72758C8.00505 7.68804 8.17673 7.70248 8.33469 7.76918C8.7351 7.93703 9.15113 8.05345 9.57484 8.11623C9.78923 8.1502 9.98502 8.27151 10.125 8.45707C10.2649 8.64264 10.3393 8.87952 10.3339 9.12266Z" stroke="#4CA14D" stroke-width="1.89286" stroke-linecap="round" stroke-linejoin="round"/>
</svg>
