<svg width="28" height="29" viewBox="0 0 28 29" fill="none" xmlns="http://www.w3.org/2000/svg">
<path d="M22.6396 25.01L15.5455 17.6517C14.9825 18.1189 14.335 18.4888 13.6031 18.7613C12.8712 19.0338 12.0923 19.1701 11.2665 19.1701C9.2209 19.1701 7.48961 18.4352 6.07267 16.9655C4.65573 15.4958 3.94727 13.7 3.94727 11.5782C3.94727 9.45637 4.65573 7.6606 6.07267 6.19089C7.48961 4.72118 9.2209 3.98633 11.2665 3.98633C13.3122 3.98633 15.0435 4.72118 16.4604 6.19089C17.8774 7.6606 18.5858 9.45637 18.5858 11.5782C18.5858 12.4347 18.4545 13.2426 18.1917 14.0018C17.929 14.761 17.5724 15.4325 17.122 16.0165L24.216 23.3748L22.6396 25.01ZM11.2665 16.8341C12.6741 16.8341 13.8705 16.3231 14.8558 15.3011C15.8411 14.2792 16.3337 13.0382 16.3337 11.5782C16.3337 10.1182 15.8411 8.87725 14.8558 7.85526C13.8705 6.83328 12.6741 6.32229 11.2665 6.32229C9.85899 6.32229 8.66257 6.83328 7.67728 7.85526C6.692 8.87725 6.19935 10.1182 6.19935 11.5782C6.19935 13.0382 6.692 14.2792 7.67728 15.3011C8.66257 16.3231 9.85899 16.8341 11.2665 16.8341Z" fill="#1D1B20"/>
</svg>
