<svg width="20" height="20" viewBox="0 0 20 20" fill="none" xmlns="http://www.w3.org/2000/svg">
<path d="M14.9089 7.1224C15.0651 7.42622 15.0434 7.71267 14.8438 7.98177L10.6771 13.8151C10.5122 14.0495 10.2865 14.1667 10 14.1667C9.71354 14.1667 9.48785 14.0495 9.32292 13.8151L5.15625 7.98177C4.9566 7.71267 4.9349 7.42622 5.09115 7.1224C5.23872 6.81858 5.48611 6.66667 5.83333 6.66667H14.1667C14.5139 6.66667 14.7613 6.81858 14.9089 7.1224ZM16.6667 16.25V3.75C16.6667 3.63715 16.6254 3.5395 16.543 3.45703C16.4605 3.37457 16.3628 3.33333 16.25 3.33333H3.75C3.63715 3.33333 3.5395 3.37457 3.45703 3.45703C3.37457 3.5395 3.33333 3.63715 3.33333 3.75V16.25C3.33333 16.3628 3.37457 16.4605 3.45703 16.543C3.5395 16.6254 3.63715 16.6667 3.75 16.6667H16.25C16.3628 16.6667 16.4605 16.6254 16.543 16.543C16.6254 16.4605 16.6667 16.3628 16.6667 16.25ZM20 3.75V16.25C20 17.283 19.6332 18.1662 18.8997 18.8997C18.1662 19.6332 17.283 20 16.25 20H3.75C2.71701 20 1.83377 19.6332 1.10026 18.8997C0.366753 18.1662 0 17.283 0 16.25V3.75C0 2.71701 0.366753 1.83377 1.10026 1.10026C1.83377 0.366753 2.71701 0 3.75 0H16.25C17.283 0 18.1662 0.366753 18.8997 1.10026C19.6332 1.83377 20 2.71701 20 3.75Z" fill="#34A853"/>
</svg>
