<svg id="visual" viewBox="0 0 540 960" width="540" height="960" xmlns="http://www.w3.org/2000/svg" xmlns:xlink="http://www.w3.org/1999/xlink" version="1.1"><path d="M0 177L15 166C30 155 60 133 90 128.3C120 123.7 150 136.3 180 142.7C210 149 240 149 270 151.5C300 154 330 159 360 161.2C390 163.3 420 162.7 450 155C480 147.3 510 132.7 525 125.3L540 118L540 0L525 0C510 0 480 0 450 0C420 0 390 0 360 0C330 0 300 0 270 0C240 0 210 0 180 0C150 0 120 0 90 0C60 0 30 0 15 0L0 0Z" fill="#4CA14D" stroke-linecap="round" stroke-linejoin="miter"></path></svg>