<svg id="visual" viewBox="0 0 540 960" width="540" height="960" xmlns="http://www.w3.org/2000/svg" xmlns:xlink="http://www.w3.org/1999/xlink" version="1.1"><path d="M0 117L15 109.8C30 102.7 60 88.3 90 85.3C120 82.3 150 90.7 180 94.8C210 99 240 99 270 100.7C300 102.3 330 105.7 360 107.2C390 108.7 420 108.3 450 103.2C480 98 510 88 525 83L540 78L540 0L525 0C510 0 480 0 450 0C420 0 390 0 360 0C330 0 300 0 270 0C240 0 210 0 180 0C150 0 120 0 90 0C60 0 30 0 15 0L0 0Z" fill="#4CA14D" stroke-linecap="round" stroke-linejoin="miter"></path></svg>