<svg width="12" height="13" viewBox="0 0 12 13" fill="none" xmlns="http://www.w3.org/2000/svg">
<path d="M10.3339 9.07578V10.5631C10.3344 10.7012 10.3093 10.8379 10.26 10.9644C10.2108 11.0909 10.1386 11.2045 10.048 11.2978C9.95741 11.3911 9.85049 11.4622 9.73405 11.5064C9.61762 11.5507 9.49424 11.5671 9.37183 11.5547C8.01377 11.3889 6.70926 10.8676 5.56312 10.0326C4.49678 9.27145 3.59271 8.25585 2.91512 7.05796C2.16925 5.76458 1.70509 4.29201 1.56022 2.75956C1.54919 2.62246 1.5637 2.48428 1.60281 2.35382C1.64193 2.22337 1.70479 2.10349 1.78741 2.00182C1.87002 1.90015 1.97058 1.81892 2.08267 1.7633C2.19476 1.70768 2.31594 1.67889 2.43848 1.67876H3.76248C3.97666 1.67639 4.1843 1.76159 4.3467 1.91848C4.5091 2.07538 4.61517 2.29325 4.64514 2.5315C4.70103 3.00748 4.80466 3.47483 4.95408 3.92464C5.01346 4.10209 5.02631 4.29494 4.99111 4.48035C4.95591 4.66575 4.87414 4.83594 4.75548 4.97073L4.19498 5.60037C4.82325 6.84158 5.73809 7.86928 6.84299 8.57505L7.40348 7.94541C7.52347 7.81211 7.67497 7.72025 7.84001 7.68071C8.00505 7.64117 8.17673 7.6556 8.33469 7.72231C8.7351 7.89015 9.15113 8.00658 9.57484 8.06935C9.78923 8.10333 9.98502 8.22463 10.125 8.4102C10.2649 8.59576 10.3393 8.83264 10.3339 9.07578Z" stroke="#4CA14D" stroke-width="1.89286" stroke-linecap="round" stroke-linejoin="round"/>
</svg>
