<svg width="22" height="22" viewBox="0 0 22 22" fill="none" xmlns="http://www.w3.org/2000/svg">
<path d="M19.6396 22.01L12.5455 14.6517C11.9825 15.1189 11.335 15.4888 10.6031 15.7613C9.87116 16.0338 9.09231 16.1701 8.26655 16.1701C6.2209 16.1701 4.48961 15.4352 3.07267 13.9655C1.65573 12.4958 0.947266 10.7 0.947266 8.5782C0.947266 6.45637 1.65573 4.6606 3.07267 3.19089C4.48961 1.72118 6.2209 0.986328 8.26655 0.986328C10.3122 0.986328 12.0435 1.72118 13.4604 3.19089C14.8774 4.6606 15.5858 6.45637 15.5858 8.5782C15.5858 9.43472 15.4545 10.2426 15.1917 11.0018C14.929 11.7609 14.5724 12.4325 14.122 13.0165L21.216 20.3748L19.6396 22.01ZM8.26655 13.8341C9.6741 13.8341 10.8705 13.3231 11.8558 12.3011C12.8411 11.2792 13.3337 10.0382 13.3337 8.5782C13.3337 7.11823 12.8411 5.87725 11.8558 4.85526C10.8705 3.83328 9.6741 3.32229 8.26655 3.32229C6.85899 3.32229 5.66257 3.83328 4.67728 4.85526C3.692 5.87725 3.19935 7.11823 3.19935 8.5782C3.19935 10.0382 3.692 11.2792 4.67728 12.3011C5.66257 13.3231 6.85899 13.8341 8.26655 13.8341Z" fill="#1D1B20"/>
</svg>
