<svg width="35" height="35" viewBox="0 0 35 35" fill="none" xmlns="http://www.w3.org/2000/svg">
<path d="M30.6958 23.5712C30.4578 23.5712 30.2165 23.5712 29.9786 23.5712C29.3308 23.5712 28.6863 23.5712 28.0385 23.5712C27.0834 23.5712 26.1316 23.5712 25.1764 23.5712C24.0131 23.5712 22.8497 23.5712 21.6864 23.5712C20.4139 23.5712 19.1415 23.5712 17.8691 23.5712C16.5802 23.5712 15.2945 23.5712 14.0056 23.5712C12.8125 23.5712 11.6194 23.5712 10.4263 23.5712C9.42156 23.5712 8.42015 23.5712 7.41543 23.5712C6.69825 23.5712 5.98437 23.5712 5.26719 23.5712C4.93999 23.5712 4.6095 23.5712 4.2823 23.5712C4.19637 23.5712 4.11044 23.5646 4.02451 23.5547C4.11375 23.5679 4.19968 23.5778 4.28891 23.591C4.15671 23.5712 4.03112 23.5348 3.90884 23.4853C3.98816 23.5183 4.06748 23.5514 4.1468 23.5844C4.06087 23.5447 3.98155 23.4985 3.90223 23.4522C3.72376 23.3497 4.07078 23.6075 3.9485 23.4919C3.91875 23.4621 3.8857 23.4357 3.85596 23.4059C3.82621 23.3762 3.79977 23.3431 3.77003 23.3134C3.65435 23.1878 3.90553 23.515 3.82291 23.3795C3.77003 23.2936 3.72045 23.2076 3.68079 23.1151C3.71384 23.1944 3.74689 23.2737 3.77994 23.3531C3.73037 23.2308 3.69401 23.1052 3.67418 22.973C3.6874 23.0622 3.69732 23.1481 3.71054 23.2374C3.6841 23.0226 3.69401 22.8044 3.69401 22.5896C3.69401 22.1699 3.69401 21.7501 3.69401 21.3304C3.69401 19.9357 3.69401 18.541 3.69401 17.1463C3.69401 15.4409 3.69401 13.7355 3.69401 12.0269C3.69401 10.5661 3.69401 9.10856 3.69401 7.64776C3.69401 6.95701 3.6874 6.26627 3.69401 5.57553C3.69401 5.4929 3.70062 5.41358 3.71054 5.33426C3.69732 5.4235 3.6874 5.50943 3.67418 5.59866C3.69401 5.46646 3.73037 5.34087 3.77994 5.21859C3.74689 5.29791 3.71384 5.37723 3.68079 5.45655C3.72045 5.37062 3.76672 5.2913 3.81299 5.21198C3.91545 5.03351 3.65766 5.38053 3.77333 5.25825C3.80308 5.2285 3.82952 5.19546 3.85926 5.16571C3.88901 5.13597 3.92206 5.10953 3.9518 5.07978C4.07739 4.96411 3.7502 5.21529 3.8857 5.13266C3.97163 5.07978 4.05756 5.03021 4.1501 4.99055C4.07078 5.0236 3.99146 5.05665 3.91214 5.0897C4.03443 5.04012 4.16002 5.00377 4.29222 4.98394C4.20298 4.99716 4.11705 5.00707 4.02782 5.02029C4.31866 4.98394 4.62272 5.00377 4.91355 5.00377C5.55142 5.00377 6.18928 5.00377 6.82714 5.00377C7.77567 5.00377 8.72751 5.00377 9.67604 5.00377C10.8394 5.00377 12.0028 5.00377 13.1661 5.00377C14.4418 5.00377 15.7176 5.00377 16.9933 5.00377C18.2888 5.00377 19.5811 5.00377 20.8766 5.00377C22.0764 5.00377 23.2761 5.00377 24.4758 5.00377C25.4871 5.00377 26.4984 5.00377 27.5064 5.00377C28.2269 5.00377 28.9474 5.00377 29.6679 5.00377C29.9984 5.00377 30.3289 5.00377 30.6594 5.00377C30.7453 5.00377 30.8313 5.01038 30.9172 5.02029C30.828 5.00707 30.742 4.99716 30.6528 4.98394C30.785 5.00377 30.9106 5.04012 31.0329 5.0897C30.9535 5.05665 30.8742 5.0236 30.7949 4.99055C30.8808 5.03021 30.9602 5.07648 31.0395 5.12275C31.2179 5.2252 30.8709 4.96741 30.9932 5.08309C31.0229 5.11283 31.056 5.13927 31.0857 5.16902C31.1155 5.19876 31.1419 5.23181 31.1717 5.26155C31.2873 5.38714 31.0362 5.05995 31.1188 5.19546C31.1717 5.28138 31.2212 5.36731 31.2609 5.45985C31.2279 5.38053 31.1948 5.30121 31.1618 5.2219C31.2113 5.34418 31.2477 5.46977 31.2675 5.60197C31.2543 5.51273 31.2444 5.4268 31.2312 5.33757C31.2576 5.55239 31.2477 5.77052 31.2477 5.98535C31.2477 6.40508 31.2477 6.82481 31.2477 7.24455C31.2477 8.63925 31.2477 10.034 31.2477 11.4287C31.2477 13.134 31.2477 14.8394 31.2477 16.5481C31.2477 18.0089 31.2477 19.4664 31.2477 20.9272C31.2477 21.6179 31.2543 22.3087 31.2477 22.9994C31.2477 23.082 31.2411 23.1614 31.2312 23.2407C31.2444 23.1514 31.2543 23.0655 31.2675 22.9763C31.2477 23.1085 31.2113 23.2341 31.1618 23.3564C31.1948 23.277 31.2279 23.1977 31.2609 23.1184C31.2212 23.2043 31.175 23.2836 31.1287 23.363C31.0263 23.5414 31.284 23.1944 31.1684 23.3167C31.1386 23.3464 31.1122 23.3795 31.0824 23.4092C31.0527 23.439 31.0196 23.4654 30.9899 23.4952C30.8643 23.6108 31.1915 23.3597 31.056 23.4423C30.9701 23.4952 30.8841 23.5447 30.7916 23.5844C30.8709 23.5514 30.9502 23.5183 31.0296 23.4853C30.9073 23.5348 30.7817 23.5712 30.6495 23.591C30.7387 23.5778 30.8246 23.5679 30.9139 23.5547C30.8445 23.5646 30.7718 23.5712 30.6958 23.5712C30.1769 23.5778 29.6811 24.0207 29.7043 24.5627C29.7274 25.0948 30.1405 25.5608 30.6958 25.5542C31.8261 25.5376 32.8407 24.7874 33.1481 23.6935C33.2241 23.4258 33.2406 23.1481 33.2406 22.8705C33.2406 22.4078 33.2406 21.9418 33.2406 21.4791C33.2406 20.6364 33.2406 19.7903 33.2406 18.9475C33.2406 17.8866 33.2406 16.8257 33.2406 15.7648C33.2406 14.6312 33.2406 13.4976 33.2406 12.364C33.2406 11.3196 33.2406 10.2719 33.2406 9.22754C33.2406 8.42773 33.2406 7.63123 33.2406 6.83142C33.2406 6.42822 33.2406 6.0217 33.2406 5.61849C33.2406 5.10622 33.115 4.57742 32.8143 4.15438C32.3185 3.45042 31.5551 3.02408 30.6858 3.01416C30.4545 3.01086 30.2231 3.01416 29.9918 3.01416C29.4432 3.01416 28.8945 3.01416 28.3459 3.01416C27.5527 3.01416 26.7595 3.01416 25.9663 3.01416C24.988 3.01416 24.0131 3.01416 23.0348 3.01416C21.9442 3.01416 20.8535 3.01416 19.7629 3.01416C18.6326 3.01416 17.5022 3.01416 16.3686 3.01416C15.2549 3.01416 14.1411 3.01416 13.024 3.01416C12.0028 3.01416 10.9848 3.01416 9.96357 3.01416C9.09436 3.01416 8.22846 3.01416 7.35924 3.01416C6.71808 3.01416 6.07361 3.01416 5.43244 3.01416C5.08541 3.01416 4.73509 3.01416 4.38806 3.01416C4.31205 3.01416 4.23934 3.01086 4.16332 3.01747C3.05285 3.08026 2.0283 3.84702 1.78043 4.9608C1.68789 5.38714 1.70772 5.8201 1.70772 6.25305C1.70772 6.93057 1.70772 7.6081 1.70772 8.28562C1.70772 9.26389 1.70772 10.2422 1.70772 11.2204C1.70772 12.3342 1.70772 13.4513 1.70772 14.5651C1.70772 15.6723 1.70772 16.7794 1.70772 17.8866C1.70772 18.8252 1.70772 19.7638 1.70772 20.7025C1.70772 21.3139 1.70772 21.9286 1.70772 22.54C1.70772 22.6788 1.70772 22.8176 1.70772 22.9565C1.70772 23.5943 1.91924 24.1529 2.31253 24.6486C2.77523 25.2336 3.52877 25.5476 4.26578 25.5542C4.34179 25.5542 4.4145 25.5542 4.49052 25.5542C4.89372 25.5542 5.29693 25.5542 5.70345 25.5542C6.38758 25.5542 7.07502 25.5542 7.75915 25.5542C8.6548 25.5542 9.54715 25.5542 10.4428 25.5542C11.4872 25.5542 12.5315 25.5542 13.5759 25.5542C14.6996 25.5542 15.82 25.5542 16.9437 25.5542C18.0707 25.5542 19.201 25.5542 20.328 25.5542C21.4054 25.5542 22.4796 25.5542 23.557 25.5542C24.5055 25.5542 25.4507 25.5542 26.3993 25.5542C27.1594 25.5542 27.9196 25.5542 28.6797 25.5542C29.1788 25.5542 29.6778 25.5542 30.1769 25.5542C30.3487 25.5542 30.5206 25.5542 30.6925 25.5542C31.2113 25.5542 31.7071 25.0981 31.6839 24.5627C31.6641 24.024 31.251 23.5712 30.6958 23.5712Z" fill="#34A853"/>
<path d="M18.4676 30.3807C18.4676 29.7263 18.4676 29.0719 18.4676 28.4142C18.4676 27.3699 18.4676 26.3255 18.4676 25.2811C18.4676 25.0399 18.4676 24.8019 18.4676 24.5606C18.4676 24.0418 18.0115 23.546 17.4761 23.5691C16.9374 23.5923 16.4846 24.0054 16.4846 24.5606C16.4846 25.215 16.4846 25.8694 16.4846 26.5271C16.4846 27.5715 16.4846 28.6159 16.4846 29.6602C16.4846 29.9015 16.4846 30.1395 16.4846 30.3807C16.4846 30.8996 16.9407 31.3953 17.4761 31.3722C18.0148 31.3491 18.4676 30.936 18.4676 30.3807Z" fill="#34A853"/>
<path d="M9.7093 31.3733C10.2282 31.3733 10.7438 31.3733 11.2626 31.3733C12.4954 31.3733 13.7249 31.3733 14.9576 31.3733C16.4581 31.3733 17.9585 31.3733 19.459 31.3733C20.7513 31.3733 22.0435 31.3733 23.3358 31.3733C23.9637 31.3733 24.5917 31.3865 25.2196 31.3733C25.2295 31.3733 25.2361 31.3733 25.246 31.3733C25.7649 31.3733 26.2607 30.9172 26.2375 30.3818C26.2144 29.8431 25.8013 29.3903 25.246 29.3903C24.7272 29.3903 24.2116 29.3903 23.6927 29.3903C22.4599 29.3903 21.2305 29.3903 19.9977 29.3903C18.4973 29.3903 16.9968 29.3903 15.4963 29.3903C14.2041 29.3903 12.9118 29.3903 11.6196 29.3903C10.9916 29.3903 10.3637 29.3771 9.73574 29.3903C9.72583 29.3903 9.71922 29.3903 9.7093 29.3903C9.19042 29.3903 8.69467 29.8464 8.71781 30.3818C8.74094 30.9205 9.15406 31.3733 9.7093 31.3733ZM12.7929 13.1562C12.2938 13.6024 11.7947 14.0518 11.2957 14.498C10.5058 15.2086 9.71261 15.9158 8.92271 16.6264C8.74094 16.7917 8.55586 16.9536 8.37409 17.1189C7.9874 17.4659 7.99401 18.1732 8.37409 18.5202C8.78721 18.9002 9.36228 18.8903 9.7754 18.5202C10.2745 18.074 10.7735 17.6245 11.2726 17.1784C12.0625 16.4678 12.8556 15.7605 13.6455 15.0499C13.8273 14.8847 14.0124 14.7227 14.1942 14.5575C14.5809 14.2105 14.5742 13.5032 14.1942 13.1562C13.7843 12.7761 13.206 12.786 12.7929 13.1562ZM25.2725 10.142C24.7536 10.7237 24.2347 11.3054 23.7191 11.8838C22.8929 12.8092 22.0666 13.7346 21.2404 14.66C21.052 14.8715 20.8603 15.0863 20.6719 15.2978C20.3282 15.6845 20.2621 16.3224 20.6719 16.6991C21.0487 17.0462 21.7064 17.1123 22.0733 16.6991C22.5921 16.1175 23.111 15.5358 23.6266 14.9574C24.4528 14.032 25.2791 13.1066 26.1053 12.1812C26.2937 11.9697 26.4854 11.7549 26.6738 11.5434C27.0175 11.1567 27.0836 10.5188 26.6738 10.142C26.297 9.79501 25.6426 9.72891 25.2725 10.142Z" fill="#34A853"/>
<path d="M20.054 15.4089C18.8443 14.6587 17.6347 13.9118 16.4251 13.1615C16.2532 13.0558 16.0814 12.9467 15.9095 12.841C15.4666 12.5666 14.799 12.7319 14.5545 13.1979C14.2967 13.6837 14.4388 14.2621 14.9114 14.5529C16.121 15.3032 17.3307 16.0501 18.5403 16.8003C18.7121 16.9061 18.884 17.0152 19.0559 17.1209C19.4987 17.3952 20.1663 17.23 20.4109 16.764C20.6654 16.2815 20.5233 15.6998 20.054 15.4089ZM8.38736 18.6148C8.38736 18.6743 8.38075 18.7338 8.37414 18.7932C8.38736 18.704 8.39727 18.6181 8.41049 18.5288C8.39397 18.6313 8.36422 18.7271 8.32787 18.823C8.36092 18.7437 8.39397 18.6643 8.42702 18.585C8.40058 18.6445 8.36753 18.6974 8.33448 18.7536C8.24524 18.9122 8.39066 18.6643 8.40057 18.6743C8.40388 18.6776 8.33448 18.747 8.32787 18.7536C8.30804 18.7734 8.2849 18.7899 8.26507 18.8131C8.18906 18.8924 8.47659 18.671 8.3477 18.747C8.2849 18.7833 8.22541 18.8197 8.15931 18.8494C8.23863 18.8164 8.31795 18.7833 8.39727 18.7503C8.30143 18.7899 8.20558 18.8164 8.10313 18.8329C8.19236 18.8197 8.27829 18.8098 8.36753 18.7965C8.24524 18.8131 8.12957 18.8131 8.00728 18.7965C8.09652 18.8098 8.18245 18.8197 8.27168 18.8329C8.16923 18.8164 8.07338 18.7866 7.97754 18.7503C8.05686 18.7833 8.13618 18.8164 8.2155 18.8494C8.15601 18.823 8.10313 18.7899 8.04694 18.7569C7.8883 18.6677 8.13618 18.8131 8.12626 18.823C8.12296 18.8263 8.05355 18.7569 8.04694 18.7503C8.02711 18.7304 8.01059 18.7073 7.98745 18.6875C7.90813 18.6115 8.12957 18.899 8.05355 18.7701C8.0172 18.7073 7.98084 18.6478 7.9511 18.5817C7.98415 18.661 8.0172 18.7404 8.05025 18.8197C8.01059 18.7238 7.98415 18.628 7.96762 18.5255C7.98084 18.6148 7.99076 18.7007 8.00398 18.7899C7.99076 18.6776 7.98745 18.5685 8.00067 18.4561C7.98745 18.5454 7.97754 18.6313 7.96432 18.7205C7.98084 18.6115 8.00728 18.509 8.05025 18.4066C8.0172 18.4859 7.98415 18.5652 7.9511 18.6445C7.97754 18.585 8.00728 18.5255 8.04364 18.4694C8.14279 18.314 7.97754 18.5421 7.98084 18.5454C7.97754 18.5355 8.05025 18.4727 8.05686 18.466C8.07669 18.4462 8.09982 18.4264 8.12296 18.4066C8.20558 18.3305 7.91474 18.5487 8.04694 18.4694C8.10974 18.433 8.17584 18.3966 8.24524 18.3669C8.16592 18.4 8.0866 18.433 8.00728 18.466C8.10643 18.4264 8.20889 18.4033 8.31465 18.3867C8.22541 18.3999 8.13948 18.4099 8.05025 18.4231C8.1494 18.4132 8.24524 18.4132 8.3477 18.4264C8.25846 18.4132 8.17253 18.4033 8.0833 18.39C8.18575 18.4066 8.27829 18.4297 8.37414 18.466C8.29482 18.433 8.2155 18.4 8.13618 18.3669C8.19567 18.3933 8.25516 18.4231 8.31134 18.4561C8.32456 18.4627 8.38075 18.5123 8.39397 18.5123C8.36422 18.5189 8.19236 18.3405 8.32456 18.4694C8.3477 18.4925 8.36753 18.5189 8.39066 18.5421C8.46668 18.6181 8.27829 18.3669 8.32456 18.4594C8.35761 18.5255 8.40058 18.5883 8.43032 18.6577C8.39727 18.5784 8.36422 18.4991 8.33117 18.4198C8.36753 18.5156 8.39397 18.6148 8.41049 18.7172C8.39727 18.628 8.38736 18.5421 8.37414 18.4528C8.38405 18.509 8.38736 18.5619 8.38736 18.6148C8.39727 19.1337 8.83683 19.6294 9.37885 19.6063C9.90765 19.5831 10.3836 19.17 10.3703 18.6148C10.3472 17.6431 9.68621 16.7111 8.70794 16.4963C7.77593 16.2914 6.84723 16.6681 6.33165 17.4712C5.88218 18.1686 5.90201 19.1733 6.39114 19.8442C6.93316 20.5879 7.83212 20.9514 8.73768 20.7234C9.69944 20.4854 10.3505 19.5831 10.367 18.6115C10.377 18.0926 9.90434 17.5968 9.37555 17.62C8.83353 17.6464 8.39727 18.0595 8.38736 18.6148Z" fill="#34A853"/>
<path d="M14.591 13.0723C14.591 13.1285 14.5843 13.1847 14.5777 13.2409C14.591 13.1517 14.6009 13.0657 14.6141 12.9765C14.5976 13.0856 14.5678 13.188 14.5249 13.2905C14.5579 13.2112 14.591 13.1318 14.624 13.0525C14.5943 13.1153 14.5579 13.1748 14.5249 13.2343C14.4654 13.3169 14.4885 13.2872 14.5943 13.1484C14.5744 13.1715 14.5513 13.1946 14.5282 13.2178C14.505 13.2409 14.4819 13.2607 14.4588 13.2806C14.5976 13.1781 14.6273 13.155 14.5447 13.2112C14.4885 13.2442 14.4356 13.2739 14.3761 13.3037C14.4554 13.2706 14.5348 13.2376 14.6141 13.2045C14.505 13.2508 14.3993 13.2806 14.2836 13.2971C14.3728 13.2839 14.4588 13.274 14.548 13.2607C14.4422 13.2706 14.3431 13.2706 14.2373 13.2607C14.3266 13.274 14.4125 13.2839 14.5017 13.2971C14.3993 13.2806 14.3034 13.2541 14.2043 13.2178C14.2836 13.2508 14.3629 13.2839 14.4422 13.3169C14.3794 13.2905 14.3232 13.2574 14.2638 13.2244C14.1811 13.1682 14.2076 13.1913 14.3431 13.2938C14.3166 13.274 14.2935 13.2508 14.2704 13.2277C14.2472 13.2045 14.2241 13.1814 14.201 13.155C14.3001 13.2905 14.3199 13.3136 14.2605 13.231C14.2241 13.1682 14.1911 13.112 14.1613 13.0459C14.1944 13.1252 14.2274 13.2045 14.2605 13.2839C14.2208 13.1847 14.191 13.0823 14.1745 12.9765C14.1877 13.0657 14.1977 13.1517 14.2109 13.2409C14.1977 13.1252 14.1977 13.0129 14.2142 12.8939C14.201 12.9831 14.1911 13.069 14.1778 13.1583C14.1944 13.0558 14.2241 12.96 14.2605 12.8641C14.2274 12.9435 14.1944 13.0228 14.1613 13.1021C14.1877 13.0426 14.2208 12.9897 14.2538 12.9335C14.3431 12.7749 14.1977 13.0228 14.1877 13.0129C14.1844 13.0096 14.2538 12.9401 14.2605 12.9335C14.2803 12.9137 14.3034 12.8972 14.3232 12.874C14.3993 12.7947 14.1117 13.0162 14.2406 12.9401C14.3034 12.9038 14.3629 12.8674 14.429 12.8377C14.3497 12.8707 14.2704 12.9038 14.191 12.9368C14.2869 12.8972 14.3827 12.8707 14.4852 12.8542C14.396 12.8674 14.31 12.8774 14.2208 12.8906C14.3431 12.874 14.4588 12.874 14.581 12.8906C14.4918 12.8774 14.4059 12.8674 14.3166 12.8542C14.4191 12.8707 14.5149 12.9005 14.6108 12.9368C14.5315 12.9038 14.4521 12.8707 14.3728 12.8377C14.4323 12.8641 14.4852 12.8972 14.5414 12.9302C14.7 13.0195 14.4521 12.874 14.4621 12.8641C14.4654 12.8608 14.5348 12.9302 14.5414 12.9368C14.5612 12.9567 14.5777 12.9798 14.6009 12.9996C14.6802 13.0757 14.4588 12.7881 14.5348 12.917C14.5711 12.9798 14.6075 13.0393 14.6372 13.1054C14.6042 13.0261 14.5711 12.9468 14.5381 12.8674C14.5777 12.9633 14.6042 13.0591 14.6207 13.1616C14.6075 13.0723 14.5976 12.9864 14.5843 12.8972C14.5843 12.9534 14.5876 13.0129 14.591 13.0723C14.6009 13.5912 15.0404 14.087 15.5824 14.0638C16.1112 14.0407 16.5839 13.6276 16.5739 13.0723C16.5574 12.2725 16.1112 11.4661 15.3676 11.1257C14.5348 10.7456 13.6061 10.858 12.9153 11.4727C12.3006 12.0214 12.0428 12.9831 12.327 13.7631C12.6575 14.662 13.5334 15.3363 14.5215 15.247C15.0603 15.2008 15.5659 14.9958 15.9493 14.6026C16.3525 14.1894 16.564 13.6441 16.5773 13.0723C16.5905 12.5535 16.1112 12.0577 15.5858 12.0808C15.0338 12.1073 14.6042 12.5171 14.591 13.0723ZM20.7713 16.8797C20.7713 16.9392 20.7647 16.9987 20.7581 17.0582C20.7713 16.9689 20.7812 16.883 20.7944 16.7938C20.7779 16.8962 20.7481 16.9921 20.7118 17.0879C20.7448 17.0086 20.7779 16.9293 20.8109 16.8499C20.7845 16.9094 20.7514 16.9623 20.7184 17.0185C20.6292 17.1771 20.7746 16.9293 20.7845 16.9392C20.7878 16.9425 20.7184 17.0119 20.7118 17.0185C20.692 17.0383 20.6688 17.0549 20.649 17.078C20.573 17.1573 20.8605 16.9359 20.7316 17.0119C20.6688 17.0482 20.6093 17.0846 20.5432 17.1143C20.6226 17.0813 20.7019 17.0482 20.7812 17.0152C20.6853 17.0549 20.5895 17.0813 20.487 17.0978C20.5763 17.0846 20.6622 17.0747 20.7514 17.0615C20.6292 17.078 20.5135 17.078 20.3912 17.0615C20.4804 17.0747 20.5664 17.0846 20.6556 17.0978C20.5531 17.0813 20.4573 17.0515 20.3615 17.0152C20.4408 17.0482 20.5201 17.0813 20.5994 17.1143C20.5399 17.0879 20.4871 17.0549 20.4309 17.0218C20.2722 16.9326 20.5201 17.078 20.5102 17.0879C20.5069 17.0912 20.4375 17.0218 20.4309 17.0152C20.411 16.9954 20.3945 16.9722 20.3714 16.9524C20.2921 16.8764 20.5135 17.1639 20.4375 17.035C20.4011 16.9722 20.3648 16.9127 20.335 16.8466C20.3681 16.926 20.4011 17.0053 20.4342 17.0846C20.3945 16.9888 20.3681 16.8929 20.3515 16.7905C20.3648 16.8797 20.3747 16.9656 20.3879 17.0549C20.3714 16.9392 20.3714 16.8268 20.3846 16.7078C20.3714 16.7971 20.3615 16.883 20.3482 16.9722C20.3648 16.8665 20.3945 16.764 20.4342 16.6649C20.4011 16.7442 20.3681 16.8235 20.335 16.9028C20.3648 16.84 20.3978 16.7838 20.4309 16.7244C20.5003 16.6021 20.3582 16.8136 20.3582 16.8136C20.3582 16.7938 20.4243 16.7409 20.4375 16.7277C20.4606 16.7045 20.4837 16.688 20.5069 16.6649C20.5829 16.5922 20.3251 16.7838 20.4176 16.7376C20.4804 16.7045 20.5366 16.6682 20.6027 16.6384C20.5234 16.6715 20.4441 16.7045 20.3648 16.7376C20.4705 16.6946 20.573 16.6682 20.6853 16.6516C20.5961 16.6649 20.5102 16.6748 20.4209 16.688C20.5234 16.6781 20.6259 16.6781 20.7283 16.6913C20.6391 16.6781 20.5532 16.6682 20.4639 16.655C20.5664 16.6715 20.6655 16.6979 20.7647 16.7376C20.6853 16.7045 20.606 16.6715 20.5267 16.6384C20.5895 16.6649 20.6457 16.6979 20.7052 16.7343C20.8242 16.8004 20.6391 16.6715 20.6259 16.6682C20.6556 16.6748 20.6953 16.731 20.7151 16.7508C20.7415 16.7772 20.8175 16.8731 20.7184 16.7409C20.6192 16.6087 20.692 16.7078 20.7118 16.7376C20.7514 16.8004 20.7845 16.8665 20.8142 16.9326C20.7812 16.8533 20.7481 16.7739 20.7151 16.6946C20.7514 16.7905 20.7746 16.883 20.7911 16.9855C20.7779 16.8962 20.768 16.8103 20.7548 16.7211C20.7647 16.7772 20.768 16.8268 20.7713 16.8797C20.7812 17.3986 21.2208 17.8943 21.7628 17.8712C22.2916 17.8481 22.7675 17.4349 22.7543 16.8797C22.7344 15.9113 22.0999 15.0355 21.1514 14.7744C20.216 14.5199 19.2477 14.9264 18.7222 15.7229C18.4809 16.0865 18.3586 16.5789 18.3983 17.0119C18.4446 17.5076 18.6164 17.9208 18.9304 18.3074C19.446 18.9453 20.3648 19.1899 21.1447 18.9817C22.0933 18.7272 22.7344 17.8447 22.7543 16.8764C22.7642 16.3575 22.2916 15.8618 21.7628 15.8849C21.2175 15.9113 20.7812 16.3245 20.7713 16.8797ZM26.9714 9.96235C26.9714 10.0218 26.9648 10.0813 26.9582 10.1408C26.9714 10.0516 26.9813 9.96566 26.9946 9.87642C26.978 9.97888 26.9483 10.0747 26.9119 10.1706C26.945 10.0912 26.978 10.0119 27.0111 9.93261C26.9847 9.9921 26.9516 10.045 26.9186 10.1012C26.8293 10.2598 26.9747 10.0119 26.9847 10.0218C26.988 10.0251 26.9186 10.0946 26.9119 10.1012C26.8921 10.121 26.869 10.1375 26.8491 10.1607C26.7731 10.24 27.0607 10.0185 26.9318 10.0946C26.869 10.1309 26.8095 10.1673 26.7434 10.197C26.8227 10.164 26.902 10.1309 26.9813 10.0979C26.8855 10.1375 26.7897 10.164 26.6872 10.1805C26.7764 10.1673 26.8624 10.1573 26.9516 10.1441C26.8359 10.1607 26.7269 10.1607 26.6112 10.1474C26.7004 10.1607 26.7864 10.1706 26.8756 10.1838C26.7731 10.1673 26.674 10.1408 26.5748 10.1012C26.6542 10.1342 26.7335 10.1673 26.8128 10.2003C26.75 10.1739 26.6938 10.1408 26.6343 10.1045C26.5153 10.0351 26.7004 10.1673 26.7136 10.1706C26.6839 10.164 26.6442 10.1078 26.6244 10.0879C26.598 10.0615 26.522 9.96566 26.6211 10.0979C26.7203 10.2301 26.6475 10.1309 26.6277 10.1012C26.5881 10.0384 26.555 9.97227 26.5253 9.90617C26.5583 9.98549 26.5914 10.0648 26.6244 10.1441C26.5881 10.0483 26.5649 9.95574 26.5484 9.85329C26.5616 9.94252 26.5715 10.0285 26.5847 10.1177C26.5715 10.0053 26.5748 9.89625 26.5881 9.78388C26.5748 9.87312 26.5649 9.95905 26.5517 10.0483C26.5682 9.94583 26.598 9.84998 26.6343 9.75414C26.6013 9.83346 26.5682 9.91278 26.5352 9.9921C26.5616 9.93261 26.5947 9.87973 26.6277 9.82354C26.717 9.6649 26.5715 9.91278 26.5616 9.90286C26.5583 9.89956 26.6277 9.83015 26.6343 9.82354C26.6542 9.80371 26.6773 9.78719 26.6971 9.76405C26.7731 9.68473 26.4856 9.90617 26.6145 9.83015C26.6773 9.7938 26.7368 9.75744 26.8029 9.7277C26.7236 9.76075 26.6442 9.7938 26.5649 9.82685C26.6608 9.78719 26.7566 9.76075 26.8591 9.74422C26.7698 9.75744 26.6839 9.76736 26.5947 9.78058C26.7103 9.76405 26.8227 9.76405 26.9417 9.77727C26.8525 9.76405 26.7665 9.75414 26.6773 9.74092C26.783 9.75744 26.8822 9.78388 26.9813 9.82685C26.902 9.7938 26.8227 9.76075 26.7434 9.7277C26.8062 9.75744 26.8657 9.78719 26.9252 9.82354C26.9582 9.84337 27.0508 9.91608 26.9152 9.81363C26.7731 9.70456 26.8921 9.80041 26.9186 9.82685C26.9318 9.84007 26.9615 9.88964 26.9813 9.89295C26.9615 9.88634 26.8425 9.68804 26.9086 9.80041C26.9483 9.86651 26.9847 9.9293 27.0177 10.002C26.9847 9.92269 26.9516 9.84337 26.9186 9.76405C26.9582 9.86651 26.988 9.96896 27.0012 10.0813C26.988 9.9921 26.978 9.90617 26.9648 9.81693C26.9681 9.86651 26.9714 9.91278 26.9714 9.96235C26.9813 10.4812 27.4209 10.977 27.9629 10.9538C28.4917 10.9307 28.9643 10.5176 28.9544 9.96235C28.9346 8.9973 28.3364 8.2074 27.4374 7.88682C26.6542 7.6059 25.6792 7.88352 25.1471 8.51477C24.5423 9.22865 24.4035 10.2631 24.9025 11.0827C25.4049 11.909 26.4096 12.3188 27.3482 12.0676C28.2967 11.8131 28.9379 10.9307 28.9577 9.96235C28.9676 9.44347 28.495 8.94772 27.9662 8.97086C27.4176 8.99399 26.9813 9.40381 26.9714 9.96235Z" fill="#34A853"/>
</svg>
