<svg width="30" height="30" viewBox="0 0 30 30" fill="none" xmlns="http://www.w3.org/2000/svg">
<g clip-path="url(#clip0_111_878)">
<path fill-rule="evenodd" clip-rule="evenodd" d="M19.5 12.5C19.5 15.02 17.52 17 15 17C12.48 17 10.5 15.02 10.5 12.5C10.5 11.879 9.996 11.375 9.375 11.375C8.754 11.375 8.25 11.879 8.25 12.5C8.25 16.28 11.22 19.25 15 19.25C18.78 19.25 21.75 16.28 21.75 12.5C21.75 11.879 21.246 11.375 20.625 11.375C20.004 11.375 19.5 11.879 19.5 12.5Z" fill="#34A853"/>
<path fill-rule="evenodd" clip-rule="evenodd" d="M4.875 8.6259V25.0014C4.875 25.3659 5.02013 25.7159 5.27775 25.9737C5.53538 26.2314 5.88523 26.377 6.24973 26.377C8.68873 26.377 15 26.377 15 26.377C15.621 26.377 16.125 26.8803 16.125 27.5014C16.125 28.1226 15.621 28.6259 15 28.6259C15 28.6259 8.68873 28.6259 6.24973 28.6259C5.28898 28.627 4.3665 28.2448 3.687 27.5648C3.00638 26.8848 2.625 25.9626 2.625 25.0014V7.50143C2.625 6.88031 3.129 6.37695 3.75 6.37695H26.25C26.871 6.37695 27.375 6.88031 27.375 7.50143V15.6259C27.375 16.247 26.871 16.7514 26.25 16.7514C25.629 16.7514 25.125 16.247 25.125 15.627V8.6259H4.875Z" fill="#34A853"/>
<path fill-rule="evenodd" clip-rule="evenodd" d="M27.2562 6.99761C27.2562 6.99761 26.1875 4.85924 25.4475 3.37925C24.8338 2.15092 23.5775 1.37598 22.205 1.37598C18.8875 1.37598 11.1125 1.37598 7.795 1.37598C6.4225 1.37598 5.16625 2.15092 4.5525 3.37925C3.8125 4.85924 2.74376 6.99761 2.74376 6.99761C2.46626 7.5526 2.69124 8.22928 3.24749 8.50761C3.80249 8.78428 4.47875 8.55928 4.75625 8.00428C4.75625 8.00428 5.82502 5.86591 6.56502 4.38592C6.79877 3.92092 7.27375 3.62593 7.795 3.62593C11.1125 3.62593 18.8875 3.62593 22.205 3.62593C22.7263 3.62593 23.2012 3.92092 23.435 4.38592C24.175 5.86591 25.2438 8.00428 25.2438 8.00428C25.5213 8.55928 26.1975 8.78428 26.7525 8.50761C27.3088 8.22928 27.5337 7.5526 27.2562 6.99761Z" fill="#34A853"/>
<path fill-rule="evenodd" clip-rule="evenodd" d="M20 24.8751H27.5C28.1213 24.8751 28.625 24.375 28.625 23.75C28.625 23.125 28.1213 22.625 27.5 22.625H20C19.3788 22.625 18.875 23.125 18.875 23.75C18.875 24.375 19.3788 24.8751 20 24.8751Z" fill="#34A853"/>
<path fill-rule="evenodd" clip-rule="evenodd" d="M25.9087 23.7502L22.955 20.8002C22.515 20.3627 22.515 19.6502 22.955 19.2002C23.3937 18.7627 24.1063 18.7627 24.545 19.2002L28.295 22.9502C28.735 23.4002 28.735 24.1127 28.295 24.5502L24.545 28.3002C24.1063 28.7377 23.3937 28.7377 22.955 28.3002C22.515 27.8627 22.515 27.1502 22.955 26.7002L25.9087 23.7502Z" fill="#34A853"/>
</g>
<defs>
<clipPath id="clip0_111_878">
<rect width="30" height="30" fill="white"/>
</clipPath>
</defs>
</svg>
