<svg width="30" height="30" viewBox="0 0 30 30" fill="none" xmlns="http://www.w3.org/2000/svg">
<g clip-path="url(#clip0_111_984)">
<path d="M30.1156 21.8047C30.1156 21.8047 30.1109 21.7719 30.1062 21.7531C30.1016 21.7203 30.0875 21.6922 30.0734 21.6641C30.0734 21.6547 30.0688 21.65 30.0641 21.6406L30.0453 21.6125L26.3141 15.0781C26.2297 14.9328 26.075 14.8438 25.9062 14.8438H20.75V11.0938C20.75 10.3203 20.1172 9.6875 19.3438 9.6875H17.9375C17.6797 9.6875 17.4688 9.89844 17.4688 10.1562C17.4688 10.4141 17.6797 10.625 17.9375 10.625H19.3438C19.6016 10.625 19.8125 10.8359 19.8125 11.0938V24.6875H9.44844C8.85781 24.1062 8.04688 23.75 7.15625 23.75C6.26562 23.75 5.45469 24.1062 4.86406 24.6875H2.9375V11.0938C2.9375 10.8359 3.14844 10.625 3.40625 10.625H4.8125C5.07031 10.625 5.28125 10.4141 5.28125 10.1562C5.28125 9.89844 5.07031 9.6875 4.8125 9.6875H3.40625C2.63281 9.6875 2 10.3203 2 11.0938V26.0938C2 26.8672 2.63281 27.5 3.40625 27.5H3.9125C4.1375 29.0891 5.50625 30.3125 7.15625 30.3125C8.80625 30.3125 10.175 29.0891 10.4 27.5H21.725C21.95 29.0891 23.3188 30.3125 24.9688 30.3125C26.6187 30.3125 27.9875 29.0891 28.2125 27.5H28.7188C29.4922 27.5 30.125 26.8672 30.125 26.0938V21.875C30.125 21.875 30.125 21.8281 30.1156 21.8047ZM7.15625 28.4375C6.38281 28.4375 5.75 27.8047 5.75 27.0312C5.75 26.2578 6.38281 25.625 7.15625 25.625C7.92969 25.625 8.5625 26.2578 8.5625 27.0312C8.5625 27.8047 7.92969 28.4375 7.15625 28.4375ZM24.9688 28.4375C24.1953 28.4375 23.5625 27.8047 23.5625 27.0312C23.5625 26.2578 24.1953 25.625 24.9688 25.625C25.7422 25.625 26.375 26.2578 26.375 27.0312C26.375 27.8047 25.7422 28.4375 24.9688 28.4375ZM29.1875 26.0938C29.1875 26.3516 28.9766 26.5625 28.7188 26.5625H28.2125C27.9875 24.9734 26.6187 23.75 24.9688 23.75C23.3188 23.75 21.95 24.9734 21.725 26.5625H20.75V15.7812H25.6344L26.4359 17.1875H23.0938C22.8359 17.1875 22.625 17.3984 22.625 17.6562V21.875C22.625 22.1328 22.8359 22.3438 23.0938 22.3438H29.1875V26.0938Z" fill="white"/>
<path d="M13.25 21.4062H14.1875C14.4453 21.4062 14.6562 21.1953 14.6562 20.9375C14.6562 20.6797 14.4453 20.4688 14.1875 20.4688H13.25C12.9922 20.4688 12.7812 20.6797 12.7812 20.9375C12.7812 21.1953 12.9922 21.4062 13.25 21.4062ZM17.9375 20.4688H16.0625C15.8047 20.4688 15.5938 20.6797 15.5938 20.9375C15.5938 21.1953 15.8047 21.4062 16.0625 21.4062H17.9375C18.1953 21.4062 18.4062 21.1953 18.4062 20.9375C18.4062 20.6797 18.1953 20.4688 17.9375 20.4688ZM13.25 23.2812H17.9375C18.1953 23.2812 18.4062 23.0703 18.4062 22.8125C18.4062 22.5547 18.1953 22.3438 17.9375 22.3438H13.25C12.9922 22.3438 12.7812 22.5547 12.7812 22.8125C12.7812 23.0703 12.9922 23.2812 13.25 23.2812ZM11.375 15.3125C14.2203 15.3125 16.5312 13.0016 16.5312 10.1562C16.5312 7.31094 14.2203 5 11.375 5C8.52969 5 6.21875 7.31094 6.21875 10.1562C6.21875 13.0016 8.52969 15.3125 11.375 15.3125ZM10.9062 7.34375C10.9062 7.08594 11.1172 6.875 11.375 6.875C11.6328 6.875 11.8438 7.08594 11.8438 7.34375V9.86562L13.4609 10.6766C13.6906 10.7891 13.7844 11.0703 13.6672 11.3047C13.5875 11.4688 13.4234 11.5625 13.25 11.5625C13.1797 11.5625 13.1094 11.5484 13.0391 11.5109L11.1641 10.5734C11.0047 10.4984 10.9062 10.3344 10.9062 10.1562V7.34375Z" fill="white"/>
</g>
<defs>
<clipPath id="clip0_111_984">
<rect width="30" height="30" fill="white"/>
</clipPath>
</defs>
</svg>
