<svg width="25" height="25" viewBox="0 0 25 25" fill="none" xmlns="http://www.w3.org/2000/svg">
<path d="M0.925926 18.7367V20H0.462963C0.340178 20 0.222421 20.0439 0.135599 20.122C0.0487764 20.2002 0 20.3062 0 20.4167V22.0833C0 22.1938 0.0487764 22.2998 0.135599 22.378C0.222421 22.4561 0.340178 22.5 0.462963 22.5H0.925926V24.5833C0.925926 24.6938 0.974702 24.7998 1.06152 24.878C1.14835 24.9561 1.2661 25 1.38889 25H21.7593C21.882 25 21.9998 24.9561 22.0866 24.878C22.1734 24.7998 22.2222 24.6938 22.2222 24.5833V23.3333H22.6852C22.808 23.3333 22.9257 23.2894 23.0126 23.2113C23.0994 23.1332 23.1481 23.0272 23.1481 22.9167V18.75C23.1481 18.6395 23.0994 18.5335 23.0126 18.4554C22.9257 18.3772 22.808 18.3333 22.6852 18.3333H22.2222V13.3333H24.537C24.6598 13.3333 24.7776 13.2894 24.8644 13.2113C24.9512 13.1332 25 13.0272 25 12.9167V10.4504H24.0741V12.5H21.2963V8.75C21.2963 8.63949 21.2475 8.53351 21.1607 8.45537C21.0739 8.37723 20.9561 8.33333 20.8333 8.33333C20.7105 8.33333 20.5928 8.37723 20.506 8.45537C20.4191 8.53351 20.3704 8.63949 20.3704 8.75V12.5H17.5926V7.5C17.5926 6.44083 19.8394 5.39583 20.8333 5.03083C21.8273 5.39583 24.0741 6.44083 24.0741 7.5V9.58333H25V7.5C25 5.59917 21.4056 4.33333 20.9963 4.19292C20.8917 4.15833 20.7768 4.15833 20.6722 4.19292C20.2611 4.33333 16.6667 5.59917 16.6667 7.5V12.9167C16.6667 13.0272 16.7154 13.1332 16.8023 13.2113C16.8891 13.2894 17.0068 13.3333 17.1296 13.3333H19.4444V18.4437C19.1699 18.5492 18.9358 18.725 18.7712 18.9491C18.6066 19.1732 18.5187 19.4359 18.5185 19.7046V17.0833C18.503 16.5181 18.2392 15.9815 17.7849 15.5911C17.3307 15.2006 16.7229 14.988 16.0949 15H12.0435L12.037 14.9654V12.6992C12.5409 12.3957 12.9651 11.9969 13.2802 11.5308C13.5953 11.0646 13.7937 10.5422 13.8616 10H14.3519C14.7202 10 15.0735 9.8683 15.3339 9.63388C15.5944 9.39946 15.7407 9.08152 15.7407 8.75C15.7407 8.41848 15.5944 8.10054 15.3339 7.86612C15.0735 7.6317 14.7202 7.5 14.3519 7.5H14.8148C15.306 7.5 15.777 7.3244 16.1243 7.01184C16.4716 6.69928 16.6667 6.27536 16.6667 5.83333V5.41667C16.6667 5.30616 16.6179 5.20018 16.5311 5.12204C16.4442 5.0439 16.3265 5 16.2037 5H14.744L13.8824 0.347917C13.8643 0.250701 13.8086 0.162398 13.725 0.0986991C13.6414 0.0349999 13.5354 2.89367e-05 13.4259 0H6.01852C5.909 2.89367e-05 5.80304 0.0349999 5.71946 0.0986991C5.63589 0.162398 5.58011 0.250701 5.56204 0.347917L4.70046 5H3.24074C3.11796 5 3.0002 5.0439 2.91338 5.12204C2.82655 5.20018 2.77778 5.30616 2.77778 5.41667V5.83333C2.77778 6.27536 2.97288 6.69928 3.32017 7.01184C3.66746 7.3244 4.13849 7.5 4.62963 7.5H5.09259C4.72424 7.5 4.37097 7.6317 4.1105 7.86612C3.85003 8.10054 3.7037 8.41848 3.7037 8.75C3.7037 9.08152 3.85003 9.39946 4.1105 9.63388C4.37097 9.8683 4.72424 10 5.09259 10H5.58287C5.65071 10.5422 5.8491 11.0646 6.16421 11.5308C6.47931 11.9969 6.90357 12.3957 7.40741 12.6992V14.9654L7.40093 15H3.34954C2.7215 14.988 2.11379 15.2006 1.65953 15.5911C1.20526 15.9815 0.941465 16.5181 0.925926 17.0833V17.9167H1.85185V17.0833C1.86728 16.7391 2.03348 16.4144 2.31412 16.1802C2.59476 15.946 2.96703 15.8213 3.34954 15.8333H3.7037V19.1667H3.24074C3.11796 19.1667 3.0002 19.2106 2.91338 19.2887C2.82655 19.3668 2.77778 19.4728 2.77778 19.5833V20H1.85185V18.7367H0.925926ZM1.85185 22.5H2.77778V24.1667H1.85185V22.5ZM18.5185 20.8333V21.6667H16.6667V20.8333H18.5185ZM16.6667 22.5H18.6412C18.796 22.8248 19.0836 23.0836 19.4444 23.2229V24.1667H16.6667V22.5ZM21.2963 24.1667H20.3704V23.3333H21.2963V24.1667ZM20.3704 15H21.2963V18.3333H20.3704V15ZM21.2963 13.3333V14.1667H20.3704V13.3333H21.2963ZM19.4444 19.7046C19.4446 19.562 19.5075 19.4253 19.6195 19.3245C19.7314 19.2236 19.8833 19.1669 20.0417 19.1667H22.2222V22.5H20.0417C19.8833 22.4998 19.7314 22.443 19.6195 22.3422C19.5075 22.2413 19.4446 22.1046 19.4444 21.9621V19.7046ZM17.5926 17.0833V20H16.6667V19.5833C16.6667 19.4728 16.6179 19.3668 16.5311 19.2887C16.4442 19.2106 16.3265 19.1667 16.2037 19.1667H15.7407V15.8333H16.0949C16.4774 15.8213 16.8497 15.946 17.1303 16.1802C17.411 16.4144 17.5772 16.7391 17.5926 17.0833ZM14.8148 15.8333V19.1667H13.8889V15.8333H14.8148ZM8.17917 15.8671L8.89861 16.5146L7.99907 16.8383L8.17917 15.8671ZM11.2653 15.8671L11.4454 16.8383L10.5458 16.5146L11.2653 15.8671ZM14.8148 8.75C14.8148 8.86051 14.766 8.96649 14.6792 9.04463C14.5924 9.12277 14.4746 9.16667 14.3519 9.16667H13.8889V8.33333H14.3519C14.4746 8.33333 14.5924 8.37723 14.6792 8.45537C14.766 8.53351 14.8148 8.63949 14.8148 8.75ZM6.41065 0.833333H13.0338L13.4968 3.33333H5.94769L6.41065 0.833333ZM5.79352 4.16667H13.6509L13.8051 5H5.63935L5.79352 4.16667ZM4.62963 6.66667C4.38406 6.66667 4.14855 6.57887 3.9749 6.42259C3.80126 6.26631 3.7037 6.05435 3.7037 5.83333H15.7407C15.7407 6.05435 15.6432 6.26631 15.4695 6.42259C15.2959 6.57887 15.0604 6.66667 14.8148 6.66667H4.62963ZM4.62963 8.75C4.62963 8.63949 4.67841 8.53351 4.76523 8.45537C4.85205 8.37723 4.96981 8.33333 5.09259 8.33333H5.55556V9.16667H5.09259C4.96981 9.16667 4.85205 9.12277 4.76523 9.04463C4.67841 8.96649 4.62963 8.86051 4.62963 8.75ZM6.48148 9.58333V7.5H12.963V9.58333C12.963 10.3569 12.6215 11.0987 12.0138 11.6457C11.406 12.1927 10.5817 12.5 9.72222 12.5C8.86272 12.5 8.03843 12.1927 7.43067 11.6457C6.82292 11.0987 6.48148 10.3569 6.48148 9.58333ZM9.72222 13.3333C10.1957 13.3325 10.6655 13.2585 11.1111 13.1146V14.8275L9.72222 16.0775L8.33333 14.8275V13.1146C8.77898 13.2585 9.24876 13.3325 9.72222 13.3333ZM7.11713 17.8246C7.18116 17.8711 7.25781 17.9014 7.33919 17.9124C7.42056 17.9234 7.50371 17.9146 7.58009 17.8871L9.72222 17.1154L11.8653 17.8871C11.9416 17.9145 12.0246 17.9231 12.1058 17.9121C12.187 17.9011 12.2635 17.8709 12.3275 17.8245C12.3914 17.7781 12.4405 17.7172 12.4697 17.6481C12.4989 17.579 12.5071 17.5042 12.4935 17.4312L12.1977 15.8333H12.963V19.1667H6.48148V15.8333H7.24676L6.95093 17.4312C6.93735 17.5042 6.94559 17.5791 6.9748 17.6482C7.00401 17.7173 7.05313 17.7782 7.11713 17.8246ZM4.62963 15.8333H5.55556V19.1667H4.62963V15.8333ZM3.7037 20H15.7407V24.1667H3.7037V20ZM2.77778 21.6667H0.925926V20.8333H2.77778V21.6667Z" fill="#34A853"/>
</svg>
