<svg width="23" height="25" viewBox="0 0 23 25" fill="none" xmlns="http://www.w3.org/2000/svg">
<path d="M11.5 0.908203C8.45001 0.908203 5.52494 1.88714 3.36827 3.62966C1.2116 5.37218 0 7.73554 0 10.1998C0 16.4717 10.1344 23.5566 10.5656 23.8585C10.826 24.0385 11.1574 24.1374 11.5 24.1374C11.8426 24.1374 12.174 24.0385 12.4344 23.8585C12.9375 23.5566 23 16.4717 23 10.1998C23 7.73554 21.7884 5.37218 19.6317 3.62966C17.4751 1.88714 14.55 0.908203 11.5 0.908203ZM11.5 21.4079C8.43812 19.085 2.875 14.0791 2.875 10.1998C2.875 8.35162 3.7837 6.5791 5.4012 5.27221C7.01871 3.96532 9.21251 3.23111 11.5 3.23111C13.7875 3.23111 15.9813 3.96532 17.5988 5.27221C19.2163 6.5791 20.125 8.35162 20.125 10.1998C20.125 14.0791 14.5619 19.0966 11.5 21.4079ZM11.5 5.55402C10.3628 5.55402 9.25105 5.82649 8.30547 6.33698C7.35989 6.84747 6.6229 7.57305 6.18769 8.42196C5.75249 9.27087 5.63862 10.205 5.86048 11.1062C6.08235 12.0074 6.62998 12.8352 7.43414 13.4849C8.23829 14.1347 9.26284 14.5771 10.3782 14.7564C11.4936 14.9356 12.6498 14.8436 13.7004 14.492C14.7511 14.1404 15.6491 13.5449 16.281 12.7809C16.9128 12.0169 17.25 11.1187 17.25 10.1998C17.25 8.96769 16.6442 7.78601 15.5659 6.91475C14.4875 6.04349 13.025 5.55402 11.5 5.55402ZM11.5 12.5227C10.9314 12.5227 10.3755 12.3865 9.90274 12.1313C9.42994 11.876 9.06145 11.5132 8.84385 11.0888C8.62624 10.6643 8.56931 10.1973 8.68024 9.74666C8.79117 9.29606 9.06499 8.88216 9.46707 8.5573C9.86914 8.23243 10.3814 8.01119 10.9391 7.92156C11.4968 7.83193 12.0749 7.87794 12.6002 8.05375C13.1256 8.22957 13.5746 8.5273 13.8905 8.9093C14.2064 9.2913 14.375 9.74041 14.375 10.1998C14.375 10.8159 14.0721 11.4068 13.5329 11.8424C12.9938 12.278 12.2625 12.5227 11.5 12.5227Z" fill="#34A853"/>
</svg>
