<svg width="35" height="34" viewBox="0 0 35 34" fill="none" xmlns="http://www.w3.org/2000/svg">
<path d="M14.5144 27.4003V19.3626L16.4886 13.7221C16.6061 13.4636 16.7706 13.2521 16.9821 13.0875C17.2172 12.8995 17.4992 12.8055 17.8282 12.8055H28.1222C28.4512 12.8055 28.7332 12.8995 28.9682 13.0875C29.2032 13.2521 29.3678 13.4636 29.4618 13.7221L31.4359 19.3626V27.4003C31.4359 27.6589 31.3419 27.8821 31.1539 28.0702C30.9894 28.2347 30.7779 28.3169 30.5194 28.3169H29.5323C29.2738 28.3169 29.0505 28.2347 28.8625 28.0702C28.698 27.8821 28.6157 27.6589 28.6157 27.4003V26.2017H17.3347V27.4003C17.3347 27.6589 17.2407 27.8821 17.0526 28.0702C16.8881 28.2347 16.6766 28.3169 16.4181 28.3169H15.431C15.1725 28.3169 14.9492 28.2347 14.7612 28.0702C14.5967 27.8821 14.5144 27.6589 14.5144 27.4003ZM17.3347 17.741H28.6157L27.6286 14.9207H18.3218L17.3347 17.741ZM16.6296 19.8562V24.0865V19.8562ZM18.7448 23.3815C19.1443 23.3815 19.4734 23.2522 19.7319 22.9937C20.0139 22.7117 20.1549 22.3709 20.1549 21.9714C20.1549 21.5718 20.0139 21.2428 19.7319 20.9843C19.4734 20.7022 19.1443 20.5612 18.7448 20.5612C18.3453 20.5612 18.0045 20.7022 17.7225 20.9843C17.4639 21.2428 17.3347 21.5718 17.3347 21.9714C17.3347 22.3709 17.4639 22.7117 17.7225 22.9937C18.0045 23.2522 18.3453 23.3815 18.7448 23.3815ZM27.2056 23.3815C27.6051 23.3815 27.9341 23.2522 28.1927 22.9937C28.4747 22.7117 28.6157 22.3709 28.6157 21.9714C28.6157 21.5718 28.4747 21.2428 28.1927 20.9843C27.9341 20.7022 27.6051 20.5612 27.2056 20.5612C26.806 20.5612 26.4653 20.7022 26.1832 20.9843C25.9247 21.2428 25.7954 21.5718 25.7954 21.9714C25.7954 22.3709 25.9247 22.7117 26.1832 22.9937C26.4653 23.2522 26.806 23.3815 27.2056 23.3815ZM6.05365 28.3169V26.9068L7.46378 25.4967C6.28867 25.4967 5.28983 25.0854 4.46726 24.2628C3.64469 23.4402 3.2334 22.4414 3.2334 21.2663V9.98527C3.2334 8.43412 3.92671 7.34128 5.31334 6.70672C6.69996 6.07216 9.06193 5.75488 12.3992 5.75488C15.8775 5.75488 18.2748 6.06041 19.5909 6.67147C20.907 7.28252 21.5651 8.38712 21.5651 9.98527V11.3954H18.7448V9.98527H6.05365V18.446H13.1043V28.3169H6.05365ZM7.46378 22.6764C7.86332 22.6764 8.19235 22.5472 8.45087 22.2886C8.7329 22.0066 8.87391 21.6658 8.87391 21.2663C8.87391 20.8668 8.7329 20.5377 8.45087 20.2792C8.19235 19.9972 7.86332 19.8562 7.46378 19.8562C7.06424 19.8562 6.72346 19.9972 6.44144 20.2792C6.18292 20.5377 6.05365 20.8668 6.05365 21.2663C6.05365 21.6658 6.18292 22.0066 6.44144 22.2886C6.72346 22.5472 7.06424 22.6764 7.46378 22.6764ZM16.6296 24.0865H29.3208V19.8562H16.6296V24.0865Z" fill="#4CA14D"/>
</svg>
