<svg width="33" height="31" viewBox="0 0 33 31" fill="none" xmlns="http://www.w3.org/2000/svg">
<path d="M24.0178 16.457H15.0073C14.7226 16.457 14.4916 16.6735 14.4916 16.9414C14.4916 17.2093 14.7226 17.4258 15.0073 17.4258H24.0178C24.303 17.4258 24.5334 17.2093 24.5334 16.9414C24.5334 16.6735 24.303 16.457 24.0178 16.457ZM24.0178 20.6135H19.5128C19.2277 20.6135 18.9972 20.83 18.9972 21.0978C18.9972 21.3657 19.2277 21.5822 19.5128 21.5822H24.0178C24.303 21.5822 24.5334 21.3657 24.5334 21.0978C24.5334 20.83 24.303 20.6135 24.0178 20.6135ZM24.0178 18.535H16.5985C16.3139 18.535 16.0829 18.7515 16.0829 19.0194C16.0829 19.2872 16.3139 19.5037 16.5985 19.5037H24.0178C24.303 19.5037 24.5334 19.2872 24.5334 19.0194C24.5334 18.7515 24.303 18.535 24.0178 18.535Z" fill="#34A853"/>
<path d="M27.6262 4.25293H8.35727C7.36212 4.25293 6.55259 5.0134 6.55259 5.94824V7.27252C6.55259 7.27349 6.55207 7.27398 6.55207 7.27495C6.55207 7.27591 6.55259 7.2764 6.55259 7.27737V9.53649C6.55259 9.53746 6.55207 9.53794 6.55207 9.53891C6.55207 9.53988 6.55259 9.54037 6.55259 9.54134V11.2686H5.37129C4.37716 11.2686 3.56866 12.0281 3.56866 12.962V25.0544C3.56866 25.9883 4.37716 26.7478 5.37129 26.7478H24.6417C25.6364 26.7478 26.4449 25.9883 26.4449 25.0544V19.7336H27.6257C28.6208 19.7336 29.4303 18.9731 29.4303 18.0382V5.94824C29.4309 5.01388 28.6213 4.25293 27.6262 4.25293ZM7.58384 7.7598H28.3996V9.05502H7.58384V7.7598ZM8.35727 5.22168H27.6262C28.0526 5.22168 28.3996 5.54766 28.3996 5.94824V6.79057H7.58384V5.94824C7.58384 5.54766 7.93085 5.22168 8.35727 5.22168ZM5.37181 12.2379H24.6423C25.0676 12.2379 25.4141 12.5629 25.4141 12.9625V14.2911H4.60043V12.9625C4.60043 12.5629 4.94641 12.2379 5.37181 12.2379ZM25.4141 25.0549C25.4141 25.4545 25.0676 25.7795 24.6423 25.7795H5.37181C4.94641 25.7795 4.60043 25.4545 4.60043 25.0549V15.2599H25.4141V25.0549ZM27.6262 18.7648H26.4454V12.9625C26.4454 12.0286 25.6369 11.2691 24.6423 11.2691H7.58384V10.0238H28.3996V18.0387C28.3996 18.4388 28.0526 18.7648 27.6262 18.7648Z" fill="#34A853"/>
<path d="M9.95362 16.2871C7.67714 16.2871 5.82501 18.027 5.82501 20.1655C5.82501 22.304 7.67714 24.0439 9.95362 24.0439C12.2301 24.0439 14.0817 22.304 14.0817 20.1655C14.0817 18.027 12.2301 16.2871 9.95362 16.2871ZM9.95362 23.0751C8.24587 23.0751 6.85626 21.7702 6.85626 20.1655C6.85626 18.5608 8.24587 17.2559 9.95362 17.2559C11.6614 17.2559 13.0505 18.5608 13.0505 20.1655C13.0505 21.7702 11.6614 23.0751 9.95362 23.0751Z" fill="#34A853"/>
<path d="M9.95361 19.6811C9.73705 19.6811 9.56122 19.5154 9.56122 19.312C9.56122 19.1086 9.73705 18.9434 9.95361 18.9434C10.0841 18.9434 10.2063 19.0044 10.2795 19.1061C10.4383 19.328 10.759 19.3856 10.9952 19.2369C11.2313 19.0868 11.2932 18.786 11.1339 18.5641C10.9823 18.3534 10.7698 18.1984 10.5306 18.0982V17.918C10.5306 17.6501 10.2996 17.4336 10.015 17.4336C9.73034 17.4336 9.49934 17.6501 9.49934 17.918V18.0512C8.93783 18.2304 8.52997 18.7249 8.52997 19.312C8.52997 20.0492 9.16883 20.6498 9.95361 20.6498C10.1702 20.6498 10.346 20.8155 10.346 21.0189C10.346 21.2224 10.1702 21.3875 9.95361 21.3875C9.82316 21.3875 9.70095 21.3265 9.62773 21.2248C9.46892 21.003 9.1482 20.9453 8.91205 21.094C8.67589 21.2442 8.61402 21.545 8.77334 21.7668C8.9502 22.0129 9.20853 22.1843 9.49934 22.2773V22.4154C9.49934 22.6832 9.73034 22.8998 10.015 22.8998C10.2996 22.8998 10.5306 22.6832 10.5306 22.4154V22.2391C11.0287 22.0303 11.3778 21.5634 11.3778 21.0189C11.3772 20.2812 10.7389 19.6811 9.95361 19.6811Z" fill="#34A853"/>
</svg>
