<svg width="35" height="35" viewBox="0 0 35 35" fill="none" xmlns="http://www.w3.org/2000/svg">
<g clip-path="url(#clip0_62_901)">
<path d="M32.014 23.7752C32.0009 23.623 31.9448 23.4776 31.852 23.3562C31.7593 23.2348 31.6339 23.1423 31.4905 23.0896C31.3471 23.0368 31.1917 23.0261 31.0424 23.0585C30.8931 23.091 30.7561 23.1653 30.6476 23.2729C30.2384 23.6684 29.7247 23.9389 29.167 24.0523C29.8493 23.0819 30.3034 21.9698 30.4953 20.7992C30.6872 19.6285 30.612 18.4296 30.2753 17.2922C30.0011 16.5251 29.5849 15.8165 29.0485 15.2034C28.9503 15.0918 28.8214 15.0116 28.6779 14.9727C28.5345 14.9338 28.3827 14.9379 28.2416 14.9845C28.0964 15.033 27.9687 15.1233 27.8746 15.2441C27.7806 15.3649 27.7242 15.5108 27.7128 15.6635C27.6946 15.9787 27.6086 16.2863 27.4605 16.5652C27.3125 16.8441 27.106 17.0878 26.8551 17.2795C26.5919 17.4716 26.2859 17.5968 25.9635 17.6443C26.4648 15.5841 27.3003 10.1893 23.9393 5.47352C22.3497 3.26725 20.1478 1.57576 17.6064 0.608583C17.4985 0.565899 17.3811 0.553193 17.2666 0.571812C17.1521 0.590431 17.0448 0.639681 16.956 0.714343C16.8712 0.783819 16.8064 0.874608 16.7683 0.977389C16.7302 1.08017 16.7201 1.19124 16.7392 1.29919C16.9522 2.67298 16.9878 4.06846 16.8449 5.45131C16.7059 6.69536 16.4168 7.91802 15.984 9.09262C15.5143 8.42363 14.9144 7.85634 14.2202 7.42473C13.526 6.99313 12.7518 6.7061 11.944 6.58083C11.8061 6.55778 11.6646 6.56876 11.5319 6.61281C11.3992 6.65686 11.2793 6.73265 11.1825 6.83359C11.0817 6.93807 11.008 7.06571 10.968 7.20529C10.928 7.34488 10.9229 7.49215 10.953 7.63419C11.3443 9.24315 11.2965 10.9277 10.8145 12.5118L10.7394 12.7329C10.7134 12.7928 10.6995 12.8572 10.6985 12.9226C10.6974 12.9879 10.7092 13.0527 10.7332 13.1135C10.7572 13.1742 10.793 13.2296 10.8384 13.2766C10.8838 13.3235 10.9381 13.361 10.998 13.387C11.0579 13.413 11.1224 13.4269 11.1877 13.4279C11.253 13.429 11.3179 13.4172 11.3786 13.3932C11.4394 13.3692 11.4948 13.3334 11.5417 13.288C11.5886 13.2426 11.6261 13.1883 11.6521 13.1284C11.6764 13.0723 11.6965 13.011 11.7177 12.9486L11.2439 12.7974L11.7536 12.8418C12.282 11.1422 12.3549 9.33376 11.9652 7.59717C12.7556 7.74821 13.4992 8.08374 14.1354 8.57644C14.7716 9.06915 15.2825 9.70512 15.6266 10.4326C15.664 10.5213 15.7283 10.5959 15.8105 10.646C15.8927 10.6961 15.9885 10.7191 16.0845 10.7118C16.1795 10.7098 16.2719 10.6807 16.3508 10.6278C16.4297 10.575 16.4918 10.5006 16.5297 10.4136C17.2067 8.86734 17.6453 7.2274 17.8306 5.54967C17.9624 4.29058 17.9542 3.02077 17.8063 1.76348C19.9357 2.6849 21.7753 4.16668 23.1291 6.05097C26.689 11.0471 25.1745 16.8924 24.834 18.0134C24.8125 18.0841 24.807 18.1586 24.8179 18.2317C24.8288 18.3047 24.8558 18.3744 24.8971 18.4357C24.9383 18.497 24.9927 18.5483 25.0562 18.5859C25.1197 18.6236 25.1909 18.6466 25.2644 18.6533C26.0363 18.7372 26.8122 18.5343 27.4441 18.0832C28.0389 17.6377 28.4552 16.9945 28.6181 16.2695C28.9191 16.6856 29.1595 17.1425 29.3319 17.6264C30.471 20.8129 28.0628 23.9296 27.7847 24.2755C27.7284 24.3453 27.6921 24.429 27.6795 24.5178C27.6668 24.6066 27.6784 24.6971 27.713 24.7798C27.7475 24.8626 27.8038 24.9345 27.8758 24.9879C27.9478 25.0413 28.0329 25.0744 28.1221 25.0835C29.1707 25.1994 30.2227 24.8977 31.0505 24.2437C31.2439 26.3432 30.6751 28.4421 29.4483 30.1567C28.7539 31.0168 27.8945 31.7291 26.9205 32.2519C25.9466 32.7746 24.8779 33.0971 23.7775 33.2005C23.6532 33.2188 23.5404 33.2833 23.4616 33.3812C23.3829 33.479 23.3441 33.6031 23.3529 33.7284C23.3617 33.8537 23.4176 33.971 23.5092 34.0569C23.6009 34.1428 23.7216 34.1908 23.8473 34.1915C23.8712 34.193 23.8952 34.193 23.9192 34.1915C25.1484 34.0716 26.3412 33.7065 27.4269 33.1178C28.5126 32.529 29.4693 31.7286 30.2404 30.7638C31.6875 28.7393 32.3206 26.2448 32.014 23.7752ZM27.8503 21.0836C27.9028 21.0427 27.9466 20.9917 27.9791 20.9336C28.0115 20.8754 28.0319 20.8113 28.0391 20.7451C28.0463 20.6789 28.0402 20.612 28.021 20.5482C28.0018 20.4844 27.97 20.4252 27.9275 20.3739C27.885 20.3227 27.8326 20.2805 27.7734 20.2499C27.7143 20.2193 27.6496 20.2009 27.5832 20.1957C27.5168 20.1906 27.4501 20.1989 27.3869 20.2201C27.3238 20.2412 27.2656 20.2749 27.2157 20.319C25.6959 21.5881 24.9524 22.8519 25.0074 24.0861C25.0535 24.658 25.2285 25.2119 25.5193 25.7064C25.8039 26.1973 25.9839 26.7417 26.0481 27.3055C26.1062 28.1191 25.9367 28.9328 25.5584 29.6554C25.5295 29.714 25.5124 29.7778 25.5081 29.843C25.5038 29.9082 25.5124 29.9736 25.5334 30.0355C25.5544 30.0974 25.5875 30.1546 25.6306 30.2037C25.6737 30.2528 25.7261 30.2929 25.7848 30.3217C25.8531 30.3559 25.9284 30.3736 26.0047 30.3736C26.0977 30.3734 26.1887 30.3473 26.2676 30.2982C26.3465 30.249 26.41 30.1788 26.4511 30.0954C26.9116 29.2086 27.1156 28.2109 27.0401 27.2145C26.9665 26.5268 26.7531 25.8613 26.413 25.259C26.1876 24.8889 26.0481 24.4729 26.0047 24.0417C25.9603 23.1354 26.5822 22.1402 27.8503 21.0836ZM11.4353 15.8908H10.5617C10.0738 15.8915 9.59117 15.9918 9.14341 16.1856C8.69566 16.3795 8.29225 16.6628 7.95794 17.0182V16.2948L8.75113 15.4995C9.42415 14.8226 9.80192 13.9069 9.80192 12.9523C9.80192 11.9978 9.42415 11.082 8.75113 10.4051L8.13032 9.78428C7.94978 9.61125 7.70936 9.51464 7.45928 9.51464C7.2092 9.51464 6.96879 9.61125 6.78824 9.78428L6.16743 10.4061C5.49441 11.0831 5.11664 11.9988 5.11664 12.9534C5.11664 13.9079 5.49441 14.8237 6.16743 15.5006L6.96168 16.2959V17.0161C6.6273 16.6605 6.22375 16.3769 5.77581 16.1828C5.32787 15.9888 4.84499 15.8883 4.35682 15.8877H3.48431C3.23186 15.8877 2.98976 15.9879 2.81126 16.1665C2.63275 16.345 2.53247 16.5871 2.53247 16.8395V17.7226C2.53443 18.6757 2.9139 19.5891 3.58782 20.2631C4.26175 20.937 5.17522 21.3165 6.1283 21.3184H6.95534V22.9154C6.62117 22.562 6.21853 22.2803 5.77197 22.0876C5.3254 21.8948 4.84426 21.7951 4.35788 21.7943H3.48431C3.23186 21.7943 2.98976 21.8946 2.81126 22.0731C2.63275 22.2516 2.53247 22.4937 2.53247 22.7462V23.6293C2.53443 24.5823 2.9139 25.4958 3.58782 26.1697C4.26175 26.8437 5.17522 27.2231 6.1283 27.2251H6.95534V28.6465C6.62199 28.2914 6.21972 28.0079 5.77312 27.8135C5.32651 27.6191 4.84495 27.5179 4.35788 27.5159H3.48431C3.23186 27.5159 2.98976 27.6162 2.81126 27.7947C2.63275 27.9732 2.53247 28.2153 2.53247 28.4678V29.3509C2.53443 30.3039 2.9139 31.2174 3.58782 31.8913C4.26175 32.5653 5.17522 32.9447 6.1283 32.9467H6.95534V33.8604C6.96124 33.9884 7.01624 34.1093 7.10891 34.1978C7.20158 34.2862 7.3248 34.3356 7.45293 34.3356C7.58107 34.3356 7.70428 34.2862 7.79696 34.1978C7.88963 34.1093 7.94463 33.9884 7.95053 33.8604V32.9467H8.77652C9.72959 32.9447 10.6431 32.5653 11.317 31.8913C11.9909 31.2174 12.3704 30.3039 12.3723 29.3509V28.4678C12.3723 28.2153 12.2721 27.9732 12.0936 27.7947C11.9151 27.6162 11.6729 27.5159 11.4205 27.5159H10.5617C10.0738 27.5165 9.59117 27.6169 9.14341 27.8107C8.69566 28.0046 8.29225 28.2879 7.95794 28.6433V27.223H8.78392C9.73699 27.221 10.6505 26.8415 11.3244 26.1676C11.9983 25.4937 12.3778 24.5802 12.3797 23.6272V22.7441C12.3797 22.4916 12.2795 22.2495 12.101 22.071C11.9225 21.8925 11.6804 21.7922 11.4279 21.7922H10.5617C10.0738 21.7928 9.59117 21.8932 9.14341 22.087C8.69566 22.2809 8.29225 22.5642 7.95794 22.9196V21.3226H8.78392C9.73699 21.3207 10.6505 20.9412 11.3244 20.2673C11.9983 19.5934 12.3778 18.6799 12.3797 17.7268V16.8437C12.38 16.5924 12.2809 16.3511 12.104 16.1726C11.927 15.9941 11.6867 15.8928 11.4353 15.8908ZM6.96274 31.9473H6.13464C5.44433 31.9464 4.78253 31.6718 4.2944 31.1837C3.80628 30.6956 3.53168 30.0338 3.53084 29.3435L3.48325 28.5069H4.35682C5.04732 28.5075 5.70939 28.7819 6.19774 29.2701C6.6861 29.7582 6.96084 30.4202 6.96168 31.1107L6.96274 31.9473ZM6.96274 26.2225H6.13464C5.44524 26.2217 4.78424 25.9478 4.29627 25.4608C3.80829 24.9738 3.53308 24.3134 3.53084 23.624L3.48325 22.7874H4.35682C5.04732 22.7877 5.7095 23.0619 6.19805 23.5499C6.68661 24.0378 6.96162 24.6997 6.96274 25.3902V26.2225ZM6.96274 20.3222H6.13464C5.44506 20.3213 4.7839 20.0473 4.29589 19.5601C3.80789 19.0729 3.5328 18.4122 3.53084 17.7226L3.48325 16.886H4.35682C5.04732 16.8866 5.70939 17.1611 6.19774 17.6492C6.6861 18.1374 6.96084 18.7993 6.96168 19.4898L6.96274 20.3222ZM10.5586 28.5069L11.3845 28.4604V29.3435C11.3837 30.0332 11.1095 30.6945 10.6221 31.1826C10.1347 31.6706 9.47368 31.9456 8.78392 31.9473H7.95794V31.1107C7.95989 30.4211 8.23499 29.7604 8.72299 29.2732C9.21099 28.786 9.87215 28.512 10.5617 28.5111L10.5586 28.5069ZM10.5586 22.7821L11.3845 22.7356V23.6187C11.3837 24.309 11.1091 24.9708 10.621 25.4589C10.1329 25.9471 9.47106 26.2217 8.78075 26.2225H7.95794V25.3902C7.95906 24.7 8.23378 24.0385 8.72187 23.5506C9.20997 23.0627 9.87161 22.7883 10.5617 22.7874L10.5586 22.7821ZM7.45664 15.379L6.86861 14.7909C6.38146 14.3009 6.10803 13.638 6.10803 12.947C6.10803 12.256 6.38146 11.5931 6.86861 11.1031L7.42174 10.4812L8.04677 11.1126C8.53399 11.6028 8.80745 12.2659 8.80745 12.9571C8.80745 13.6482 8.53399 14.3113 8.04677 14.8015L7.45664 15.379ZM11.3845 17.7131C11.3837 18.4034 11.1091 19.0652 10.621 19.5533C10.1329 20.0414 9.47106 20.316 8.78075 20.3169H7.95794V19.4803C7.95878 18.79 8.23337 18.1282 8.7215 17.6401C9.20962 17.152 9.87142 16.8774 10.5617 16.8765L11.3877 16.83L11.3845 17.7131ZM21.8357 8.68015C21.9582 9.09611 22.0076 9.53017 21.9817 9.96302C21.9775 10.0285 21.9863 10.0941 22.0076 10.1561C22.0288 10.2181 22.0621 10.2754 22.1056 10.3245C22.149 10.3736 22.2017 10.4137 22.2607 10.4424C22.3196 10.4711 22.3837 10.4879 22.4491 10.4918H22.4777C22.6048 10.4918 22.7271 10.4431 22.8195 10.3558C22.9119 10.2685 22.9674 10.1492 22.9747 10.0222C23.0078 9.47446 22.9451 8.92512 22.7897 8.39883C22.3455 7.06568 21.3962 5.95992 20.1457 5.31911C20.0293 5.26206 19.8953 5.2526 19.7721 5.29275C19.6488 5.33289 19.5461 5.41948 19.4857 5.53413C19.4253 5.64878 19.4119 5.78247 19.4484 5.90681C19.485 6.03115 19.5685 6.13635 19.6814 6.20009C20.6956 6.71405 21.4687 7.60406 21.8357 8.68015ZM14.3405 13.893H14.3574C14.4868 13.8928 14.611 13.8425 14.7039 13.7525C14.7968 13.6625 14.8512 13.54 14.8556 13.4108C14.8903 12.3223 14.5667 11.2526 13.9344 10.366C13.8964 10.3128 13.8483 10.2676 13.7929 10.233C13.7374 10.1984 13.6757 10.175 13.6112 10.1643C13.5468 10.1535 13.4808 10.1556 13.4171 10.1703C13.3534 10.185 13.2933 10.2122 13.2401 10.2502C13.1869 10.2881 13.1417 10.3362 13.1071 10.3917C13.0725 10.4471 13.0492 10.5089 13.0384 10.5733C13.0276 10.6378 13.0297 10.7038 13.0444 10.7674C13.0592 10.8311 13.0863 10.8913 13.1243 10.9445C13.3646 11.282 13.5508 11.6548 13.6764 12.0497C13.8128 12.4791 13.8747 12.9287 13.8593 13.3791C13.855 13.511 13.9033 13.6393 13.9935 13.7356C14.0838 13.832 14.2086 13.8886 14.3405 13.893ZM23.8377 28.4646C23.8377 28.2122 23.7375 27.97 23.5589 27.7915C23.3804 27.613 23.1383 27.5128 22.8859 27.5128H22.0187C21.5308 27.5143 21.0484 27.6154 20.601 27.81C20.1536 28.0046 19.7507 28.2885 19.417 28.6444V27.223H20.243C21.196 27.2207 22.1093 26.8412 22.7831 26.1673C23.457 25.4935 23.8366 24.5801 23.8388 23.6272V22.7441C23.8388 22.4916 23.7385 22.2495 23.56 22.071C23.3815 21.8925 23.1394 21.7922 22.887 21.7922H22.0187C21.5311 21.7932 21.0489 21.8937 20.6015 22.0875C20.1542 22.2814 19.7511 22.5645 19.417 22.9196V21.3226H20.243C21.196 21.3204 22.1093 20.9409 22.7831 20.267C23.457 19.5931 23.8366 18.6798 23.8388 17.7268V16.8437C23.8388 16.5913 23.7385 16.3492 23.56 16.1707C23.3815 15.9922 23.1394 15.8919 22.887 15.8919H22.0187C21.5311 15.8929 21.0489 15.9934 20.6015 16.1872C20.1542 16.3811 19.7511 16.6642 19.417 17.0193V16.2948L20.2102 15.4995C20.8837 14.8229 21.2618 13.907 21.2618 12.9523C21.2618 11.9976 20.8837 11.0817 20.2102 10.4051L19.5894 9.78428C19.409 9.61131 19.1688 9.51474 18.9189 9.51474C18.669 9.51474 18.4287 9.61131 18.2483 9.78428L17.6275 10.4061C16.954 11.0828 16.5759 11.9986 16.5759 12.9534C16.5759 13.9081 16.954 14.8239 17.6275 15.5006L18.4207 16.2959V17.0151C18.0864 16.6597 17.683 16.3763 17.2353 16.1825C16.7875 15.9886 16.3049 15.8883 15.8169 15.8877H14.9434C14.6909 15.8877 14.4488 15.9879 14.2703 16.1665C14.0918 16.345 13.9915 16.5871 13.9915 16.8395V17.7226C13.9938 18.6756 14.3733 19.5889 15.0472 20.2628C15.721 20.9366 16.6344 21.3162 17.5873 21.3184H18.4133V22.9154C18.0791 22.5618 17.6763 22.28 17.2295 22.0873C16.7827 21.8945 16.3014 21.7949 15.8148 21.7943H14.9412C14.6888 21.7943 14.4467 21.8946 14.2682 22.0731C14.0897 22.2516 13.9894 22.4937 13.9894 22.7462V23.6293C13.9916 24.5823 14.3712 25.4956 15.0451 26.1694C15.7189 26.8433 16.6322 27.2229 17.5852 27.2251H18.4112V28.6454C18.0769 28.29 17.6735 28.0067 17.2257 27.8129C16.778 27.619 16.2953 27.5187 15.8074 27.518H14.9338C14.6814 27.518 14.4393 27.6183 14.2608 27.7968C14.0823 27.9753 13.982 28.2174 13.982 28.4699V29.353C13.9842 30.306 14.3638 31.2193 15.0377 31.8931C15.7115 32.567 16.6248 32.9466 17.5778 32.9488H18.4038V33.8626C18.4097 33.9906 18.4647 34.1114 18.5574 34.1999C18.6501 34.2884 18.7733 34.3377 18.9014 34.3377C19.0295 34.3377 19.1528 34.2884 19.2454 34.1999C19.3381 34.1114 19.3931 33.9906 19.399 33.8626V32.9488H20.225C21.178 32.9466 22.0913 32.567 22.7652 31.8931C23.439 31.2193 23.8186 30.306 23.8208 29.353L23.8377 28.4646ZM18.4154 31.9547H17.5895C16.899 31.9541 16.2369 31.6796 15.7485 31.1915C15.2602 30.7033 14.9854 30.0414 14.9846 29.3509L14.9381 28.5143H15.8116C16.502 28.5151 17.1638 28.7897 17.6519 29.2779C18.14 29.766 18.4146 30.4278 18.4154 31.1181V31.9547ZM18.4154 26.2299H17.5895C16.899 26.2293 16.2369 25.9549 15.7485 25.4667C15.2602 24.9785 14.9854 24.3166 14.9846 23.6261L14.9381 22.7895H15.8116C16.502 22.7895 17.1641 23.0633 17.6528 23.5509C18.1415 24.0384 18.4169 24.6999 18.4186 25.3902L18.4154 26.2299ZM18.4154 20.3296H17.5895C16.899 20.329 16.2369 20.0545 15.7485 19.5664C15.2602 19.0782 14.9854 18.4163 14.9846 17.7258L14.9381 16.8892H15.8116C16.502 16.89 17.1638 17.1646 17.6519 17.6528C18.14 18.1409 18.4146 18.8027 18.4154 19.493V20.3296ZM22.0113 22.7895L22.8372 22.743V23.6261C22.8364 24.3166 22.5617 24.9785 22.0733 25.4667C21.585 25.9549 20.9229 26.2293 20.2324 26.2299H19.417V25.3902C19.4181 24.7004 19.6925 24.0392 20.1802 23.5514C20.6678 23.0635 21.3289 22.7888 22.0187 22.7874L22.0113 22.7895ZM22.0113 16.8892L22.8372 16.8427V17.7258C22.8364 18.4163 22.5617 19.0782 22.0733 19.5664C21.585 20.0545 20.9229 20.329 20.2324 20.3296H19.417V19.493C19.417 18.8025 19.6909 18.1402 20.1787 17.6515C20.6664 17.1627 21.3282 16.8874 22.0187 16.886L22.0113 16.8892ZM18.9083 15.3917L18.3213 14.8036C17.8337 14.3139 17.5599 13.6509 17.5599 12.9597C17.5599 12.2686 17.8337 11.6056 18.3213 11.1158L18.8734 10.4939L19.4942 11.1158C19.9819 11.6056 20.2556 12.2686 20.2556 12.9597C20.2556 13.6509 19.9819 14.3139 19.4942 14.8036L18.9083 15.3917ZM22.8372 29.3519C22.8342 30.0397 22.5595 30.6983 22.073 31.1845C21.5864 31.6706 20.9275 31.9448 20.2398 31.9473H19.417V31.1107C19.4178 30.4202 19.6926 29.7582 20.1809 29.2701C20.6693 28.7819 21.3313 28.5075 22.0218 28.5069L22.8478 28.4604L22.8372 29.3519Z" fill="#34A853"/>
</g>
<defs>
<clipPath id="clip0_62_901">
<rect width="33.8431" height="33.8431" fill="white" transform="translate(0.380615 0.537109)"/>
</clipPath>
</defs>
</svg>
