<svg width="13" height="21" viewBox="0 0 13 21" fill="none" xmlns="http://www.w3.org/2000/svg">
<path d="M11.5174 14.7474V17.5047C11.518 17.7607 11.4879 18.0141 11.4289 18.2486C11.3699 18.4832 11.2833 18.6937 11.1748 18.8667C11.0663 19.0398 10.9381 19.1715 10.7986 19.2535C10.6591 19.3355 10.5113 19.366 10.3646 19.343C8.73729 19.0356 7.17416 18.0692 5.80079 16.5213C4.52304 15.1101 3.43974 13.2274 2.6278 11.0066C1.73407 8.60885 1.17788 5.8789 1.00429 3.03793C0.991077 2.78377 1.00846 2.5276 1.05532 2.28575C1.10219 2.0439 1.17752 1.82166 1.27652 1.63318C1.37551 1.4447 1.496 1.29411 1.63032 1.191C1.76463 1.08788 1.90983 1.03451 2.05667 1.03427H3.64316C3.8998 1.02988 4.14861 1.18783 4.3432 1.47869C4.5378 1.76955 4.6649 2.17346 4.70082 2.61514C4.76778 3.49755 4.89196 4.36396 5.071 5.19784C5.14215 5.52681 5.15755 5.88434 5.11537 6.22805C5.07319 6.57177 4.97521 6.88727 4.83303 7.13716L4.16141 8.30444C4.91423 10.6055 6.01044 12.5107 7.33439 13.8191L8.00601 12.6518C8.14979 12.4047 8.33132 12.2344 8.52909 12.1611C8.72685 12.0878 8.93256 12.1146 9.12184 12.2382C9.60164 12.5494 10.1001 12.7652 10.6079 12.8816C10.8647 12.9446 11.0994 13.1695 11.2671 13.5135C11.4348 13.8575 11.5239 14.2966 11.5174 14.7474Z" stroke="#4CA14D" stroke-width="1.89286" stroke-linecap="round" stroke-linejoin="round"/>
</svg>
